<?xml version="1.0" encoding="utf-8"?>
<!-- Generator: Adobe Illustrator 25.2.1, SVG Export Plug-In . SVG Version: 6.00 Build 0)  -->
<svg version="1.1" xmlns="http://www.w3.org/2000/svg" xmlns:xlink="http://www.w3.org/1999/xlink" x="0px" y="0px"
	 viewBox="0 0 1005.5 564.5" style="enable-background:new 0 0 1005.5 564.5;" xml:space="preserve">
<style type="text/css">
	.st0{fill:#4B2A7A;}
	.st1{opacity:0.2;}
	.st2{fill:#FF9CEE;}
	.st3{opacity:0.2;fill:#FF9CEE;}
	.st4{fill:#606060;}
	.st5{fill:url(#SVGID_1_);}
	.st6{fill:url(#SVGID_2_);}
	.st7{fill:url(#SVGID_3_);}
	.st8{fill:url(#SVGID_4_);}
	.st9{fill:url(#SVGID_5_);}
	.st10{fill:url(#SVGID_6_);}
	.st11{fill:url(#SVGID_7_);}
	.st12{opacity:0.1;}
	.st13{fill:url(#SVGID_8_);}
	.st14{fill:url(#SVGID_9_);}
	.st15{fill:#CFCFCF;}
	.st16{fill:#616161;}
	.st17{fill:#FFE8CD;}
	.st18{fill:#FFDF3F;}
	.st19{fill:#FFFFFF;}
	.st20{fill:#53A0FF;}
	.st21{fill:#8C00F5;}
	.st22{fill:#FFDE7A;}
	.st23{opacity:0.3;fill:#FFFFFF;}
	.st24{fill:url(#SVGID_10_);}
	.st25{fill:#FF8963;}
	.st26{fill:url(#SVGID_11_);}
	.st27{fill:#3B3B3B;}
	.st28{opacity:0.2;fill:#3B3B3B;}
	.st29{fill:#EDEDED;}
	.st30{opacity:0.3;}
	.st31{fill:#5E461F;}
	.st32{fill:#FFBD53;}
	.st33{fill:#002F98;}
	.st34{fill:#D06BFF;}
	.st35{fill:#0046BF;}
	.st36{fill:#FF9258;}
	.st37{fill:#301D00;}
	.st38{fill:#895100;}
</style>
<g id="BACKGROUND">
	<rect class="st0" width="1005.5" height="564.5"/>
</g>
<g id="OBJECTS">
	<g>
		<g>
			<g>
				<g class="st1">
					<g>
						<path class="st2" d="M428,513.1c-0.4,0-0.7-0.1-1-0.4c-0.1-0.1-0.2-0.3-0.3-0.4c-0.1-0.2-0.1-0.3-0.1-0.5c0-0.4,0.1-0.7,0.4-1
							c0.5-0.5,1.4-0.5,1.9,0c0.3,0.3,0.4,0.6,0.4,1c0,0.2,0,0.4-0.1,0.5c-0.1,0.2-0.2,0.3-0.3,0.4
							C428.7,512.9,428.3,513.1,428,513.1z"/>
					</g>
					<g>
						<path class="st2" d="M422.4,511.1C422.4,511.1,422.4,511.1,422.4,511.1L422.4,511.1c-0.7-0.3-1-1.1-0.8-1.8l0,0
							c0.3-0.7,1.1-1,1.8-0.8l0,0c0.7,0.3,1,1.1,0.8,1.8l0,0c-0.2,0.5-0.7,0.9-1.3,0.9l0,0C422.7,511.2,422.5,511.2,422.4,511.1z
							 M417.3,509c-0.7-0.3-1-1.1-0.7-1.8l0,0c0.3-0.7,1.1-1,1.8-0.7l0,0c0.7,0.3,1,1.1,0.7,1.8l0,0c-0.2,0.5-0.7,0.8-1.2,0.8l0,0
							C417.7,509.1,417.5,509.1,417.3,509z M412.4,506.6C412.4,506.6,412.4,506.6,412.4,506.6L412.4,506.6c-0.7-0.3-0.9-1.2-0.6-1.8
							l0,0c0.4-0.7,1.2-0.9,1.8-0.6l0,0c0.7,0.4,0.9,1.2,0.6,1.8l0,0c-0.2,0.5-0.7,0.7-1.2,0.7l0,0
							C412.8,506.7,412.6,506.7,412.4,506.6z M407.6,503.9L407.6,503.9L407.6,503.9c-0.6-0.4-0.9-1.2-0.5-1.9l0,0
							c0.4-0.7,1.2-0.9,1.9-0.5l0,0c0.6,0.4,0.9,1.2,0.5,1.9l0,0c-0.3,0.4-0.7,0.7-1.2,0.7l0,0C408,504.1,407.8,504,407.6,503.9z
							 M402.9,501c-0.6-0.4-0.8-1.3-0.4-1.9l0,0c0.4-0.6,1.3-0.8,1.9-0.4l0,0c0.6,0.4,0.8,1.3,0.4,1.9l0,0c-0.3,0.4-0.7,0.6-1.1,0.6
							l0,0C403.4,501.2,403.1,501.1,402.9,501z M398.4,497.8L398.4,497.8L398.4,497.8c-0.6-0.4-0.7-1.3-0.3-1.9l0,0
							c0.4-0.6,1.3-0.7,1.9-0.3l0,0c0.6,0.4,0.7,1.3,0.3,1.9l0,0c-0.3,0.4-0.7,0.6-1.1,0.6l0,0C398.9,498.1,398.7,498,398.4,497.8z
							 M394.1,494.4C394.1,494.4,394.1,494.4,394.1,494.4L394.1,494.4c-0.6-0.5-0.7-1.3-0.2-1.9l0,0c0.5-0.6,1.3-0.7,1.9-0.2l0,0
							c0.6,0.5,0.7,1.3,0.2,1.9l0,0c-0.3,0.3-0.7,0.5-1,0.5l0,0C394.6,494.8,394.3,494.7,394.1,494.4z M389.9,490.9L389.9,490.9
							L389.9,490.9c-0.5-0.5-0.6-1.4-0.1-1.9l0,0c0.5-0.6,1.4-0.6,1.9-0.1l0,0c0.6,0.5,0.6,1.4,0.1,1.9l0,0c-0.3,0.3-0.6,0.4-1,0.4
							l0,0C390.5,491.2,390.2,491.1,389.9,490.9z M386,487.1L386,487.1L386,487.1c-0.5-0.5-0.5-1.4,0-1.9l0,0c0.5-0.5,1.4-0.5,1.9,0
							l0,0c0.5,0.5,0.5,1.4,0,1.9l0,0c-0.3,0.3-0.6,0.4-1,0.4l0,0C386.6,487.5,386.2,487.3,386,487.1z M382.2,483.1L382.2,483.1
							L382.2,483.1c-0.5-0.6-0.4-1.4,0.1-1.9l0,0c0.6-0.5,1.4-0.5,1.9,0.1l0,0c0.5,0.6,0.5,1.4-0.1,1.9l0,0
							c-0.3,0.2-0.6,0.4-0.9,0.4l0,0C382.8,483.5,382.5,483.4,382.2,483.1z M378.6,478.9c-0.5-0.6-0.4-1.4,0.2-1.9l0,0
							c0.6-0.5,1.4-0.4,1.9,0.2l0,0c0.5,0.6,0.4,1.4-0.2,1.9l0,0c-0.2,0.2-0.6,0.3-0.9,0.3l0,0C379.3,479.4,378.9,479.2,378.6,478.9
							z M375.3,474.6c-0.4-0.6-0.3-1.5,0.3-1.9l0,0c0.6-0.4,1.5-0.3,1.9,0.3v0c0.4,0.6,0.3,1.5-0.3,1.9l0,0
							c-0.2,0.2-0.5,0.3-0.8,0.3l0,0C375.9,475.1,375.5,474.9,375.3,474.6z M372.1,470c-0.4-0.6-0.2-1.5,0.4-1.9l0,0
							c0.6-0.4,1.5-0.2,1.9,0.4l0,0c0.4,0.6,0.2,1.5-0.4,1.9l0,0c-0.2,0.1-0.5,0.2-0.7,0.2l0,0C372.8,470.6,372.4,470.4,372.1,470z
							 M369.3,465.4c-0.4-0.7-0.2-1.5,0.5-1.8l0,0c0.6-0.4,1.5-0.2,1.8,0.5l0,0c0.4,0.6,0.2,1.5-0.5,1.8l0,0
							c-0.2,0.1-0.4,0.2-0.7,0.2l0,0C370,466,369.5,465.8,369.3,465.4z M366.6,460.6L366.6,460.6L366.6,460.6
							c-0.4-0.7-0.1-1.5,0.6-1.8l0,0c0.7-0.3,1.5-0.1,1.8,0.6l0,0c0.3,0.7,0.1,1.5-0.6,1.8l0,0c-0.2,0.1-0.4,0.1-0.6,0.1l0,0
							C367.3,461.3,366.8,461,366.6,460.6z M364.2,455.6c-0.3-0.7,0-1.5,0.7-1.8l0,0c0.7-0.3,1.5,0,1.8,0.7l0,0
							c0.3,0.7,0,1.5-0.7,1.8l0,0c-0.2,0.1-0.4,0.1-0.6,0.1l0,0C364.9,456.4,364.4,456.1,364.2,455.6z M362.1,450.5L362.1,450.5
							L362.1,450.5c-0.3-0.7,0.1-1.5,0.8-1.8l0,0c0.7-0.3,1.5,0.1,1.8,0.8l0,0c0.3,0.7-0.1,1.5-0.8,1.8l0,0
							c-0.2,0.1-0.3,0.1-0.5,0.1l0,0C362.8,451.4,362.3,451.1,362.1,450.5z M793.3,450c-0.4-0.6-0.3-1.5,0.4-1.9v0
							c0.6-0.4,1.5-0.3,1.9,0.4l0,0c0.4,0.6,0.3,1.5-0.4,1.9l0,0l0,0l0,0c-0.2,0.2-0.5,0.2-0.8,0.2l0,0
							C794,450.6,793.5,450.4,793.3,450z M797.7,446.9c-0.4-0.6-0.3-1.5,0.3-1.9l0,0c0.6-0.4,1.5-0.3,1.9,0.3l0,0
							c0.4,0.6,0.3,1.5-0.3,1.9l0,0l0,0l0,0c-0.2,0.2-0.5,0.3-0.8,0.3l0,0C798.4,447.5,798,447.2,797.7,446.9z M360.3,445.4
							c-0.2-0.7,0.2-1.5,0.9-1.7l0,0c0.7-0.2,1.5,0.1,1.7,0.9l0,0c0.2,0.7-0.1,1.5-0.9,1.7l0,0c-0.1,0-0.3,0.1-0.4,0.1l0,0
							C361,446.3,360.5,445.9,360.3,445.4z M802.1,443.7c-0.5-0.6-0.4-1.5,0.2-1.9l0,0c0.6-0.4,1.4-0.3,1.9,0.2l0,0
							c0.5,0.6,0.4,1.5-0.2,1.9l0,0l0,0l0,0c-0.2,0.2-0.5,0.3-0.8,0.3l0,0C802.8,444.2,802.4,444,802.1,443.7z M358.7,440.1
							c-0.2-0.7,0.2-1.5,1-1.7l0,0c0.7-0.2,1.5,0.2,1.7,1l0,0c0.2,0.7-0.2,1.5-1,1.7l0,0c-0.1,0-0.2,0.1-0.4,0.1l0,0
							C359.4,441.1,358.9,440.7,358.7,440.1z M806.4,440.3c-0.5-0.6-0.4-1.4,0.2-1.9l0,0c0.6-0.5,1.4-0.4,1.9,0.2l0,0
							c0.5,0.6,0.4,1.4-0.2,1.9l0,0c-0.3,0.2-0.6,0.3-0.9,0.3l0,0C807,440.8,806.6,440.7,806.4,440.3z M810.5,436.9
							c-0.5-0.6-0.4-1.4,0.1-1.9l0,0c0.6-0.5,1.4-0.4,1.9,0.1l0,0c0.5,0.6,0.4,1.4-0.1,1.9l0,0c-0.3,0.2-0.6,0.3-0.9,0.3l0,0
							C811.2,437.3,810.8,437.2,810.5,436.9z M357.5,434.7c-0.1-0.7,0.3-1.5,1.1-1.6l0,0c0.7-0.1,1.5,0.3,1.6,1.1l0,0
							c0.1,0.7-0.3,1.5-1.1,1.6l0,0c-0.1,0-0.2,0-0.3,0l0,0C358.2,435.8,357.6,435.4,357.5,434.7z M814.6,433.3
							c-0.5-0.6-0.5-1.4,0.1-1.9l0,0c0.6-0.5,1.4-0.5,1.9,0.1l0,0c0.5,0.6,0.5,1.4-0.1,1.9l0,0c-0.3,0.2-0.6,0.4-0.9,0.4l0,0
							C815.2,433.7,814.9,433.6,814.6,433.3z M356.5,429.3L356.5,429.3L356.5,429.3c-0.1-0.7,0.4-1.4,1.1-1.5l0,0
							c0.7-0.1,1.4,0.4,1.5,1.1l0,0c0.1,0.7-0.4,1.4-1.1,1.5l0,0c-0.1,0-0.1,0-0.2,0l0,0C357.2,430.5,356.6,430,356.5,429.3z
							 M818.6,429.6c-0.5-0.5-0.5-1.4,0-1.9l0,0c0.5-0.5,1.4-0.5,1.9,0l0,0c0.5,0.5,0.5,1.4,0,1.9l0,0c-0.3,0.3-0.6,0.4-1,0.4l0,0
							C819.2,430,818.8,429.8,818.6,429.6z M822.4,425.8c-0.5-0.5-0.6-1.4,0-1.9v0c0.5-0.5,1.4-0.6,1.9,0l0,0c0.5,0.5,0.5,1.4,0,1.9
							l0,0c-0.3,0.3-0.6,0.4-1,0.4l0,0C823,426.2,822.7,426,822.4,425.8z M355.8,423.9L355.8,423.9L355.8,423.9
							c-0.1-0.7,0.5-1.4,1.2-1.5l0,0c0.7-0.1,1.4,0.5,1.5,1.2l0,0c0.1,0.7-0.5,1.4-1.2,1.5l0,0c0,0-0.1,0-0.1,0l0,0
							C356.4,425.1,355.9,424.6,355.8,423.9z M826.2,421.9c-0.6-0.5-0.6-1.4-0.1-1.9l0,0c0.5-0.5,1.4-0.6,1.9-0.1l0,0
							c0.6,0.5,0.6,1.4,0.1,1.9l0,0c-0.3,0.3-0.6,0.4-1,0.4l0,0C826.8,422.2,826.4,422.1,826.2,421.9z M355.4,418.4
							c0-0.8,0.5-1.4,1.3-1.4l0,0c0.7,0,1.4,0.5,1.4,1.3l0,0c0,0.7-0.5,1.4-1.3,1.4l0,0c0,0,0,0-0.1,0l0,0
							C356,419.7,355.4,419.1,355.4,418.4z M829.8,417.8c-0.6-0.5-0.6-1.4-0.1-1.9l0,0c0.5-0.6,1.4-0.6,1.9-0.1l0,0
							c0.6,0.5,0.6,1.3,0.1,1.9l0,0l0,0l0,0c-0.3,0.3-0.6,0.5-1,0.5l0,0C830.4,418.2,830.1,418.1,829.8,417.8z M355.3,412.9
							L355.3,412.9L355.3,412.9c0-0.7,0.6-1.4,1.4-1.3l0,0c0.7,0,1.3,0.6,1.3,1.4l0,0c0,0.7-0.6,1.4-1.4,1.4l0,0
							C355.9,414.3,355.3,413.7,355.3,412.9z M833.3,413.7c-0.6-0.5-0.7-1.3-0.2-1.9l0,0c0.5-0.6,1.3-0.7,1.9-0.2l0,0
							c0.6,0.5,0.7,1.3,0.2,1.9l0,0l0,0l0,0c-0.3,0.3-0.7,0.5-1,0.5l0,0C833.9,414,833.6,413.9,833.3,413.7z M358,412.9L358,412.9
							L358,412.9L358,412.9z M836.8,409.5c-0.6-0.5-0.7-1.3-0.2-1.9l0,0c0.5-0.6,1.3-0.7,1.9-0.2l0,0c0.6,0.5,0.7,1.3,0.2,1.9l0,0
							c-0.3,0.3-0.7,0.5-1.1,0.5l0,0C837.3,409.8,837,409.7,836.8,409.5z M356.7,408.8c-0.7,0-1.3-0.7-1.3-1.4l0,0
							c0-0.7,0.7-1.3,1.4-1.3l0,0c0.7,0,1.3,0.7,1.3,1.4l0,0C358.1,408.3,357.5,408.9,356.7,408.8L356.7,408.8
							C356.8,408.9,356.7,408.9,356.7,408.8z M840.1,405.2c-0.6-0.4-0.7-1.3-0.3-1.9l0,0c0.4-0.6,1.3-0.7,1.9-0.3l0,0
							c0.6,0.4,0.7,1.3,0.3,1.9l0,0c-0.3,0.4-0.7,0.6-1.1,0.6l0,0C840.6,405.5,840.3,405.4,840.1,405.2z M357.1,403.4
							c-0.7-0.1-1.3-0.7-1.2-1.5l0,0l0,0l0,0c0.1-0.7,0.7-1.3,1.5-1.2l0,0c0.7,0.1,1.3,0.7,1.2,1.5l0,0c-0.1,0.7-0.7,1.2-1.3,1.2
							l0,0C357.2,403.4,357.1,403.4,357.1,403.4z M843.3,400.8c-0.6-0.4-0.8-1.3-0.3-1.9l0,0c0.4-0.6,1.3-0.8,1.9-0.3l0,0
							c0.6,0.4,0.8,1.3,0.3,1.9l0,0c-0.3,0.4-0.7,0.6-1.1,0.6l0,0C843.8,401.1,843.5,401,843.3,400.8z M357.7,398.1
							c-0.7-0.1-1.2-0.8-1.1-1.6l0,0c0.1-0.7,0.8-1.2,1.5-1.1l0,0c0.7,0.1,1.2,0.8,1.1,1.5l0,0c-0.1,0.7-0.7,1.2-1.3,1.2l0,0
							C357.8,398.1,357.8,398.1,357.7,398.1z M846.3,396.3c-0.6-0.4-0.8-1.2-0.4-1.9l0,0c0.4-0.6,1.2-0.8,1.9-0.4l0,0
							c0.6,0.4,0.8,1.2,0.4,1.9l0,0c-0.3,0.4-0.7,0.6-1.1,0.6l0,0C846.8,396.6,846.6,396.5,846.3,396.3z M358.6,392.7
							c-0.7-0.2-1.2-0.9-1.1-1.6l0,0c0.2-0.7,0.9-1.2,1.6-1l0,0c0.7,0.1,1.2,0.9,1,1.6l0,0c-0.1,0.6-0.7,1.1-1.3,1.1l0,0
							C358.8,392.7,358.7,392.7,358.6,392.7z M849.3,391.8c-0.6-0.4-0.8-1.2-0.4-1.9v0c0.4-0.6,1.2-0.8,1.9-0.4l0,0
							c0.6,0.4,0.8,1.2,0.4,1.9l0,0l0,0l0,0c-0.3,0.4-0.7,0.6-1.2,0.6l0,0C849.7,392,849.5,391.9,849.3,391.8z M359.8,387.4
							c-0.7-0.2-1.2-0.9-1-1.7l0,0c0.2-0.7,0.9-1.2,1.7-1l0,0c0.7,0.2,1.2,0.9,1,1.7l0,0c-0.2,0.6-0.7,1-1.3,1l0,0
							C360,387.4,359.9,387.4,359.8,387.4z M852.1,387.2c-0.6-0.4-0.9-1.2-0.5-1.8l0,0c0.4-0.7,1.2-0.9,1.9-0.5l0,0
							c0.7,0.4,0.9,1.2,0.5,1.8l0,0c-0.3,0.4-0.7,0.7-1.2,0.7l0,0C852.6,387.4,852.3,387.3,852.1,387.2z M854.8,382.5
							c-0.7-0.4-0.9-1.2-0.5-1.8l0,0c0.4-0.7,1.2-0.9,1.8-0.5l0,0c0.7,0.4,0.9,1.2,0.5,1.8l0,0c-0.2,0.4-0.7,0.7-1.2,0.7l0,0
							C855.2,382.6,855,382.6,854.8,382.5z M361.2,382.2c-0.7-0.2-1.1-1-0.9-1.7l0,0c0.2-0.7,1-1.1,1.7-0.9l0,0
							c0.7,0.2,1.1,1,0.9,1.7l0,0c-0.2,0.6-0.7,1-1.3,1l0,0C361.5,382.2,361.3,382.2,361.2,382.2z M857.4,377.7
							c-0.7-0.3-0.9-1.2-0.6-1.8l0,0c0.4-0.7,1.2-0.9,1.8-0.6l0,0c0.7,0.4,0.9,1.2,0.6,1.8l0,0l0,0l0,0c-0.2,0.5-0.7,0.7-1.2,0.7
							l0,0C857.8,377.8,857.6,377.8,857.4,377.7z M362.9,377c-0.7-0.3-1.1-1-0.8-1.8l0,0c0.3-0.7,1-1.1,1.8-0.8l0,0
							c0.7,0.3,1.1,1,0.8,1.8l0,0c-0.2,0.5-0.7,0.9-1.3,0.9l0,0C363.2,377.1,363.1,377.1,362.9,377z M859.8,372.9
							c-0.7-0.3-0.9-1.1-0.6-1.8v0c0.3-0.7,1.1-1,1.8-0.6l0,0c0.7,0.3,1,1.1,0.6,1.8l0,0c0,0,0,0,0,0l0,0c-0.2,0.5-0.7,0.8-1.2,0.8
							l0,0C860.2,373,860,373,859.8,372.9z M364.9,372c-0.7-0.3-1-1.1-0.7-1.8l0,0c0.3-0.7,1.1-1,1.8-0.7l0,0c0.7,0.3,1,1.1,0.7,1.8
							l0,0c-0.2,0.5-0.7,0.8-1.2,0.8l0,0C365.2,372.1,365.1,372,364.9,372z M862.2,368c-0.7-0.3-1-1.1-0.7-1.8l0,0
							c0.3-0.7,1.1-1,1.8-0.7l0,0c0.7,0.3,1,1.1,0.7,1.8l0,0c-0.2,0.5-0.7,0.8-1.2,0.8l0,0C862.5,368.1,862.4,368,862.2,368z
							 M367.1,367c-0.7-0.3-0.9-1.1-0.6-1.8l0,0c0.3-0.7,1.2-1,1.8-0.6l0,0c0.7,0.3,1,1.2,0.6,1.8l0,0c-0.2,0.5-0.7,0.8-1.2,0.8l0,0
							C367.5,367.2,367.3,367.1,367.1,367z M864.4,363c-0.7-0.3-1-1.1-0.7-1.8l0,0c0.3-0.7,1.1-1,1.8-0.7l0,0c0.7,0.3,1,1.1,0.7,1.8
							l0,0c-0.2,0.5-0.7,0.8-1.3,0.8l0,0C864.7,363.1,864.5,363.1,864.4,363z M369.6,362.2c-0.7-0.4-0.9-1.2-0.5-1.8l0,0
							c0.4-0.7,1.2-0.9,1.9-0.5l0,0c0.7,0.4,0.9,1.2,0.5,1.9v0c-0.2,0.4-0.7,0.7-1.2,0.7l0,0C370,362.4,369.8,362.3,369.6,362.2z
							 M866.4,358c-0.7-0.3-1-1.1-0.8-1.8l0,0c0.3-0.7,1.1-1,1.8-0.8l0,0c0.7,0.3,1,1.1,0.8,1.8l0,0c-0.2,0.5-0.7,0.9-1.3,0.9l0,0
							C866.8,358.1,866.6,358.1,866.4,358z M372.3,357.5c-0.6-0.4-0.8-1.2-0.4-1.9l0,0l0,0l0,0c0.4-0.6,1.3-0.8,1.9-0.4l0,0
							c0.6,0.4,0.8,1.2,0.4,1.9l0,0c-0.3,0.4-0.7,0.6-1.2,0.6l0,0C372.8,357.7,372.5,357.7,372.3,357.5z M375.3,353
							c-0.6-0.4-0.8-1.3-0.3-1.9l0,0c0.4-0.6,1.3-0.7,1.9-0.3l0,0c0.6,0.4,0.7,1.3,0.3,1.9l0,0c-0.3,0.4-0.7,0.6-1.1,0.6l0,0
							C375.8,353.3,375.5,353.2,375.3,353z M868.4,352.9c-0.7-0.2-1.1-1-0.8-1.7l0,0c0.3-0.7,1-1.1,1.7-0.8l0,0
							c0.7,0.3,1.1,1,0.8,1.7l0,0c-0.2,0.6-0.7,0.9-1.3,0.9l0,0C868.7,353,868.5,353,868.4,352.9z M378.5,348.6
							c-0.6-0.5-0.7-1.3-0.2-1.9l0,0c0.5-0.6,1.3-0.7,1.9-0.2l0,0c0.6,0.5,0.7,1.3,0.2,1.9l0,0c-0.3,0.3-0.7,0.5-1.1,0.5l0,0
							C379.1,348.9,378.8,348.8,378.5,348.6z M870.2,347.8c-0.7-0.2-1.1-1-0.9-1.7v0c0.2-0.7,1-1.1,1.7-0.9l0,0
							c0.7,0.2,1.1,1,0.9,1.7l0,0l0,0l0,0c-0.2,0.6-0.7,0.9-1.3,0.9l0,0C870.5,347.9,870.3,347.9,870.2,347.8z M381.9,344.4
							c-0.6-0.5-0.6-1.3-0.1-1.9l0,0c0.5-0.6,1.3-0.6,1.9-0.1l0,0c0.6,0.5,0.6,1.3,0.1,1.9l0,0c-0.3,0.3-0.7,0.5-1,0.5l0,0
							C382.5,344.7,382.2,344.6,381.9,344.4z M871.9,342.7c-0.7-0.2-1.1-1-0.9-1.7l0,0c0.2-0.7,1-1.1,1.7-0.9l0,0
							c0.7,0.2,1.1,1,0.9,1.7l0,0c-0.2,0.6-0.7,1-1.3,1l0,0C872.1,342.7,872,342.7,871.9,342.7z M385.5,340.3
							c-0.6-0.5-0.6-1.4-0.1-1.9l0,0c0.5-0.6,1.4-0.6,1.9-0.1l0,0c0.6,0.5,0.6,1.4,0.1,1.9l0,0c-0.3,0.3-0.6,0.5-1,0.5l0,0
							C386.1,340.7,385.7,340.5,385.5,340.3z M873.4,337.5c-0.7-0.2-1.2-0.9-1-1.7l0,0c0.2-0.7,0.9-1.2,1.7-1l0,0
							c0.7,0.2,1.1,1,1,1.7l0,0c-0.2,0.6-0.7,1-1.3,1l0,0C873.6,337.5,873.5,337.5,873.4,337.5z M389.1,336.3
							c-0.5-0.5-0.6-1.4-0.1-1.9l0,0c0.5-0.6,1.4-0.6,1.9-0.1l0,0c0.5,0.5,0.6,1.4,0.1,1.9l0,0c-0.3,0.3-0.6,0.4-1,0.4l0,0
							C389.7,336.7,389.4,336.5,389.1,336.3z M392.8,332.3c-0.5-0.5-0.6-1.4,0-1.9l0,0c0.5-0.5,1.4-0.6,1.9,0l0,0
							c0.5,0.5,0.6,1.4,0.1,1.9l0,0c-0.3,0.3-0.6,0.4-1,0.4l0,0C393.4,332.7,393.1,332.6,392.8,332.3z M874.8,332.2
							c-0.7-0.2-1.2-0.9-1-1.6l0,0c0.2-0.7,0.9-1.2,1.6-1l0,0c0.7,0.2,1.2,0.9,1,1.6l0,0c-0.1,0.6-0.7,1-1.3,1l0,0
							C875,332.3,874.9,332.2,874.8,332.2z M396.6,328.4c-0.5-0.5-0.6-1.4-0.1-1.9l0,0c0.5-0.5,1.4-0.6,1.9-0.1l0,0
							c0.5,0.5,0.6,1.4,0.1,1.9l0,0c-0.3,0.3-0.6,0.4-1,0.4l0,0C397.1,328.8,396.8,328.6,396.6,328.4z M876,326.9
							c-0.7-0.2-1.2-0.9-1-1.6l0,0c0.2-0.7,0.9-1.2,1.6-1l0,0c0.7,0.2,1.2,0.9,1,1.6l0,0l0,0l0,0c-0.1,0.6-0.7,1.1-1.3,1.1l0,0
							C876.2,327,876.1,327,876,326.9z M400.3,324.5c-0.6-0.5-0.6-1.4-0.1-1.9l0,0l0,0l0,0c0.5-0.6,1.4-0.6,1.9-0.1l0,0
							c0.5,0.5,0.6,1.4,0.1,1.9l0,0c-0.3,0.3-0.6,0.4-1,0.4l0,0C400.9,324.8,400.5,324.7,400.3,324.5z M877.1,321.6
							c-0.7-0.1-1.2-0.9-1.1-1.6l0,0c0.1-0.7,0.8-1.2,1.6-1.1l0,0c0.7,0.1,1.2,0.9,1.1,1.6l0,0c0,0,0,0,0,0l0,0
							c-0.1,0.7-0.7,1.1-1.3,1.1l0,0C877.3,321.7,877.2,321.6,877.1,321.6z M404,320.5c-0.6-0.5-0.6-1.4-0.1-1.9l0,0
							c0.5-0.6,1.4-0.6,1.9-0.1l0,0c0.6,0.5,0.6,1.4,0.1,1.9l0,0c-0.3,0.3-0.6,0.4-1,0.4l0,0C404.5,320.8,404.2,320.7,404,320.5z
							 M407.6,316.4c-0.6-0.5-0.6-1.3-0.1-1.9l0,0c0.5-0.6,1.3-0.6,1.9-0.1l0,0c0.6,0.5,0.6,1.3,0.1,1.9l0,0c-0.3,0.3-0.7,0.5-1,0.5
							l0,0C408.1,316.7,407.8,316.6,407.6,316.4z M878.1,316.3c-0.7-0.1-1.2-0.8-1.1-1.5l0,0c0.1-0.7,0.8-1.2,1.5-1.1l0,0
							c0.7,0.1,1.2,0.8,1.1,1.5l0,0c-0.1,0.7-0.7,1.1-1.3,1.1l0,0C878.3,316.3,878.2,316.3,878.1,316.3z M411,312.3
							c-0.6-0.5-0.7-1.3-0.2-1.9l0,0c0.5-0.6,1.3-0.7,1.9-0.2l0,0c0.6,0.5,0.7,1.3,0.2,1.9l0,0c-0.3,0.3-0.7,0.5-1.1,0.5l0,0
							C411.6,312.5,411.3,312.5,411,312.3z M878.9,310.9c-0.7-0.1-1.3-0.8-1.2-1.5l0,0c0.1-0.7,0.8-1.3,1.5-1.2l0,0
							c0.7,0.1,1.3,0.8,1.2,1.5l0,0c-0.1,0.7-0.7,1.2-1.3,1.2l0,0C879.1,310.9,879,310.9,878.9,310.9z M414.4,308
							c-0.6-0.4-0.7-1.3-0.3-1.9l0,0c0.4-0.6,1.3-0.7,1.9-0.3l0,0c0.6,0.4,0.7,1.3,0.3,1.9l0,0c-0.3,0.4-0.7,0.6-1.1,0.6l0,0
							C414.9,308.3,414.6,308.2,414.4,308z M879.6,305.6c-0.7-0.1-1.3-0.7-1.2-1.5l0,0c0.1-0.7,0.7-1.3,1.5-1.2l0,0
							c0.7,0.1,1.3,0.7,1.2,1.5l0,0l0,0l0,0c-0.1,0.7-0.7,1.2-1.4,1.2l0,0C879.7,305.6,879.6,305.6,879.6,305.6z M417.6,303.6
							c-0.6-0.4-0.8-1.3-0.3-1.9l0,0c0.4-0.6,1.3-0.8,1.9-0.3l0,0c0.6,0.4,0.8,1.3,0.3,1.9l0,0c-0.3,0.4-0.7,0.6-1.1,0.6l0,0
							C418.1,303.8,417.8,303.8,417.6,303.6z M880.1,300.2c-0.7-0.1-1.3-0.7-1.2-1.5l0,0c0.1-0.7,0.7-1.3,1.5-1.3l0,0
							c0.7,0.1,1.3,0.7,1.3,1.5l0,0l0,0l0,0c-0.1,0.7-0.7,1.2-1.4,1.2l0,0C880.2,300.2,880.2,300.2,880.1,300.2z M420.6,299.1
							c-0.6-0.4-0.8-1.2-0.4-1.9l0,0c0.4-0.6,1.2-0.8,1.9-0.4l0,0c0.6,0.4,0.8,1.2,0.4,1.9l0,0c-0.3,0.4-0.7,0.6-1.2,0.6l0,0
							C421.1,299.3,420.8,299.3,420.6,299.1z M880.5,294.8c-0.7,0-1.3-0.7-1.3-1.4l0,0c0-0.7,0.7-1.3,1.4-1.3l0,0
							c0.7,0,1.3,0.7,1.3,1.4l0,0C881.9,294.2,881.3,294.8,880.5,294.8L880.5,294.8C880.5,294.8,880.5,294.8,880.5,294.8z
							 M423.5,294.5c-0.6-0.4-0.9-1.2-0.5-1.9l0,0l0,0l0,0c0.4-0.7,1.2-0.9,1.9-0.5l0,0c0.6,0.4,0.9,1.2,0.5,1.9l0,0
							c-0.3,0.4-0.7,0.7-1.2,0.7l0,0C424,294.7,423.7,294.6,423.5,294.5z M426.2,289.8c-0.7-0.4-0.9-1.2-0.5-1.8l0,0
							c0.4-0.7,1.2-0.9,1.8-0.6l0,0c0.7,0.4,0.9,1.2,0.5,1.8l0,0c-0.2,0.4-0.7,0.7-1.2,0.7l0,0C426.6,290,426.4,289.9,426.2,289.8z
							 M880.7,289.3c-0.7,0-1.3-0.6-1.3-1.4l0,0c0-0.7,0.6-1.3,1.4-1.3l0,0c0.7,0,1.3,0.6,1.3,1.4l0,0
							C882.1,288.7,881.5,289.3,880.7,289.3L880.7,289.3C880.7,289.3,880.7,289.3,880.7,289.3z M428.8,285c-0.7-0.3-1-1.1-0.6-1.8
							l0,0c0,0,0,0,0,0l0,0c0.3-0.7,1.2-1,1.8-0.6l0,0c0.7,0.3,1,1.1,0.6,1.8l0,0c-0.2,0.5-0.7,0.7-1.2,0.7l0,0
							C429.1,285.2,428.9,285.1,428.8,285z M879.4,282.6c0-0.8,0.6-1.4,1.3-1.4l0,0c0.7,0,1.4,0.6,1.4,1.3l0,0c0,0,0,0,0,0l0,0
							c0,0.7-0.6,1.4-1.3,1.4l0,0c0,0,0,0,0,0l0,0C880,283.9,879.4,283.3,879.4,282.6z M431.1,280.1c-0.7-0.3-1-1.1-0.7-1.8l0,0
							c0.3-0.7,1.1-1,1.8-0.7l0,0c0.7,0.3,1,1.1,0.7,1.8l0,0c-0.2,0.5-0.7,0.8-1.2,0.8l0,0C431.5,280.3,431.3,280.2,431.1,280.1z
							 M879.3,277.2c0-0.7,0.6-1.4,1.3-1.4l0,0c0.8,0,1.4,0.6,1.4,1.3l0,0c0,0.7-0.6,1.4-1.3,1.4l0,0c0,0,0,0-0.1,0l0,0
							C879.9,278.5,879.3,277.9,879.3,277.2z M433.2,275.2c-0.7-0.3-1-1.1-0.8-1.8l0,0c0.3-0.7,1.1-1,1.8-0.8l0,0
							c0.7,0.3,1,1,0.8,1.8l0,0c-0.2,0.5-0.7,0.9-1.3,0.9l0,0C433.6,275.3,433.4,275.2,433.2,275.2z M879,271.8
							c0-0.7,0.5-1.4,1.3-1.4l0,0c0.7-0.1,1.4,0.5,1.5,1.3l0,0c0.1,0.7-0.5,1.4-1.3,1.4l0,0c0,0-0.1,0-0.1,0l0,0
							C879.6,273.1,879.1,272.5,879,271.8z M435.1,270.1c-0.7-0.2-1.1-1-0.9-1.7l0,0c0.2-0.7,1-1.1,1.7-0.8l0,0
							c0.7,0.2,1.1,1,0.9,1.7l0,0c-0.2,0.6-0.7,0.9-1.3,0.9l0,0C435.4,270.1,435.3,270.1,435.1,270.1z M878.6,266.4
							c-0.1-0.7,0.5-1.4,1.2-1.5l0,0c0.7-0.1,1.4,0.5,1.5,1.2l0,0l0,0l0,0c0.1,0.7-0.5,1.4-1.2,1.5l0,0c-0.1,0-0.1,0-0.1,0l0,0
							C879.2,267.7,878.6,267.1,878.6,266.4z M436.8,264.9c-0.7-0.2-1.1-1-0.9-1.7l0,0c0.2-0.7,1-1.1,1.7-0.9l0,0
							c0.7,0.2,1.1,1,0.9,1.7l0,0c-0.2,0.6-0.7,1-1.3,1l0,0C437,265,436.9,265,436.8,264.9z M878,261.1L878,261.1
							c-0.1-0.7,0.4-1.4,1.2-1.5l0,0c0.7-0.1,1.4,0.4,1.5,1.2l0,0c0,0,0,0,0,0l0,0c0.1,0.7-0.4,1.4-1.2,1.5l0,0c-0.1,0-0.1,0-0.2,0
							l0,0C878.6,262.3,878,261.8,878,261.1z M438.2,259.7c-0.7-0.2-1.2-0.9-1-1.6l0,0c0.2-0.7,0.9-1.2,1.6-1l0,0
							c0.7,0.2,1.2,0.9,1,1.6v0c-0.1,0.6-0.7,1.1-1.3,1.1l0,0C438.4,259.7,438.3,259.7,438.2,259.7z M877.2,255.8
							c-0.1-0.7,0.4-1.4,1.1-1.6l0,0c0.7-0.1,1.4,0.4,1.6,1.1l0,0c0.1,0.7-0.4,1.4-1.1,1.6l0,0c-0.1,0-0.1,0-0.2,0l0,0
							C877.9,256.9,877.3,256.4,877.2,255.8z M439.3,254.4c-0.7-0.1-1.2-0.8-1.1-1.6l0,0c0.1-0.7,0.8-1.2,1.6-1.1l0,0
							c0.7,0.1,1.2,0.8,1.1,1.6l0,0c-0.1,0.7-0.7,1.1-1.3,1.1l0,0C439.5,254.4,439.4,254.4,439.3,254.4z M876.2,250.5
							c-0.2-0.7,0.3-1.5,1-1.6l0,0c0.7-0.2,1.5,0.3,1.6,1l0,0c0,0,0,0,0,0l0,0c0.1,0.7-0.3,1.5-1.1,1.6l0,0c-0.1,0-0.2,0-0.3,0l0,0
							C876.9,251.6,876.3,251.1,876.2,250.5z M440.2,249c-0.7-0.1-1.3-0.8-1.2-1.5l0,0c0.1-0.7,0.8-1.3,1.5-1.2l0,0
							c0.7,0.1,1.3,0.8,1.2,1.5l0,0c-0.1,0.7-0.7,1.2-1.3,1.2l0,0C440.3,249,440.2,249,440.2,249z M874.9,245.3
							c-0.2-0.7,0.2-1.5,1-1.7l0,0c0.7-0.2,1.5,0.2,1.7,1l0,0l0,0l0,0c0.2,0.7-0.2,1.5-1,1.7l0,0c-0.1,0-0.2,0-0.4,0l0,0
							C875.6,246.3,875.1,245.9,874.9,245.3z M440.7,243.6c-0.7,0-1.3-0.7-1.3-1.4l0,0c0-0.8,0.7-1.3,1.4-1.3l0,0
							c0.7,0,1.3,0.7,1.3,1.4l0,0C442.1,243.1,441.5,243.6,440.7,243.6L440.7,243.6C440.8,243.6,440.7,243.6,440.7,243.6z
							 M873.3,240.2L873.3,240.2c-0.2-0.7,0.1-1.5,0.8-1.7l0,0c0.7-0.2,1.5,0.1,1.7,0.8l0,0c0.2,0.7-0.1,1.5-0.8,1.7l0,0
							c-0.1,0.1-0.3,0.1-0.4,0.1l0,0C874.1,241.1,873.5,240.8,873.3,240.2z M439.5,236.9c0-0.7,0.6-1.4,1.3-1.4l0,0
							c0.7,0,1.4,0.6,1.4,1.3l0,0c0,0.7-0.6,1.4-1.3,1.4l0,0c0,0,0,0,0,0l0,0C440.2,238.2,439.6,237.6,439.5,236.9z M871.4,235.3
							c-0.3-0.7,0-1.5,0.7-1.8l0,0c0.7-0.3,1.5,0,1.8,0.7l0,0c0.3,0.7,0,1.5-0.7,1.8l0,0c-0.2,0.1-0.4,0.1-0.5,0.1l0,0
							C872.1,236.1,871.6,235.8,871.4,235.3z M439.3,231.5c-0.1-0.7,0.5-1.4,1.2-1.5l0,0c0.7-0.1,1.4,0.5,1.5,1.3v0
							c0.1,0.8-0.5,1.4-1.2,1.5l0,0c0,0-0.1,0-0.1,0l0,0C440,232.8,439.4,232.3,439.3,231.5z M869,230.6L869,230.6
							c-0.4-0.7-0.1-1.5,0.5-1.9l0,0c0.7-0.4,1.5-0.1,1.8,0.5l0,0l0,0l0,0c0.4,0.7,0.1,1.5-0.5,1.8l0,0c-0.2,0.1-0.4,0.2-0.7,0.2
							l0,0C869.7,231.3,869.3,231,869,230.6z M438.8,226.2c-0.1-0.7,0.4-1.4,1.2-1.5l0,0c0.7-0.1,1.4,0.4,1.5,1.2l0,0
							c0.1,0.7-0.4,1.4-1.2,1.5l0,0c-0.1,0-0.1,0-0.2,0l0,0C439.4,227.4,438.9,226.9,438.8,226.2z M866.2,226.1
							c-0.4-0.6-0.3-1.5,0.3-1.9l0,0c0.6-0.4,1.5-0.3,1.9,0.3l0,0c0.4,0.6,0.3,1.5-0.3,1.9l0,0c-0.2,0.2-0.5,0.3-0.8,0.3l0,0
							C866.9,226.7,866.4,226.5,866.2,226.1z M862.8,222.1L862.8,222.1c-0.5-0.5-0.5-1.4,0-1.9l0,0c0.5-0.5,1.4-0.5,1.9,0l0,0
							c0.5,0.5,0.5,1.4,0,1.9l0,0c-0.3,0.3-0.6,0.4-0.9,0.4l0,0C863.4,222.5,863.1,222.4,862.8,222.1z M437.8,221
							c-0.1-0.7,0.3-1.5,1.1-1.6l0,0c0.7-0.1,1.5,0.3,1.6,1l0,0c0.1,0.7-0.3,1.5-1.1,1.6l0,0c-0.1,0-0.2,0-0.3,0l0,0
							C438.5,222.1,438,221.6,437.8,221z M858.9,218.6c-0.6-0.5-0.7-1.3-0.2-1.9l0,0c0.5-0.6,1.3-0.7,1.9-0.2l0,0l0,0l0,0
							c0.6,0.4,0.7,1.3,0.2,1.9l0,0c-0.3,0.3-0.7,0.5-1.1,0.5l0,0C859.5,218.9,859.2,218.8,858.9,218.6z M436.6,215.8
							c-0.2-0.7,0.2-1.5,1-1.7l0,0c0.7-0.2,1.5,0.2,1.7,1l0,0c0.2,0.7-0.2,1.5-1,1.7l0,0c-0.1,0-0.2,0-0.4,0l0,0
							C437.3,216.8,436.8,216.4,436.6,215.8z M854.6,215.7c-0.7-0.4-0.9-1.2-0.5-1.8l0,0c0.4-0.7,1.2-0.9,1.9-0.5l0,0
							c0.7,0.4,0.9,1.2,0.5,1.9l0,0c-0.2,0.4-0.7,0.7-1.2,0.7l0,0C855,215.9,854.8,215.8,854.6,215.7z M849.9,213.4L849.9,213.4
							c-0.7-0.3-1-1.1-0.7-1.8l0,0c0.3-0.7,1.1-1,1.8-0.7l0,0c0.7,0.3,1,1.1,0.7,1.8l0,0c-0.2,0.5-0.7,0.8-1.3,0.8l0,0
							C850.2,213.5,850,213.5,849.9,213.4z M780.5,211.9c-0.7,0-1.3-0.6-1.3-1.4l0,0c0-0.7,0.6-1.3,1.4-1.3l0,0
							c0.7,0,1.4,0.6,1.3,1.4l0,0C781.8,211.3,781.2,211.9,780.5,211.9L780.5,211.9C780.5,211.9,780.5,211.9,780.5,211.9z
							 M784.6,210.5c0-0.8,0.6-1.4,1.3-1.4l0,0l0,0l0,0c0.7,0,1.4,0.6,1.4,1.3l0,0c0,0.7-0.6,1.4-1.3,1.4l0,0c0,0,0,0-0.1,0l0,0
							C785.2,211.8,784.6,211.2,784.6,210.5z M844.9,211.7L844.9,211.7c-0.7-0.2-1.1-1-0.9-1.7l0,0c0.2-0.7,0.9-1.1,1.7-0.9l0,0l0,0
							l0,0c0.7,0.2,1.1,1,0.9,1.7l0,0c-0.2,0.6-0.7,1-1.3,1l0,0C845.1,211.8,845,211.8,844.9,211.7z M775,211.7L775,211.7
							c-0.7,0-1.3-0.7-1.3-1.4l0,0c0-0.8,0.7-1.3,1.4-1.3l0,0c0,0,0,0,0,0l0,0c0.7,0,1.3,0.7,1.3,1.4l0,0
							C776.4,211.2,775.8,211.7,775,211.7L775,211.7C775,211.7,775,211.7,775,211.7z M435.1,210.6c-0.2-0.7,0.2-1.5,0.9-1.7l0,0
							c0.7-0.2,1.5,0.2,1.7,0.9l0,0c0.2,0.7-0.2,1.5-0.9,1.7l0,0c-0.1,0-0.3,0.1-0.4,0.1l0,0C435.8,211.6,435.3,211.2,435.1,210.6z
							 M790,210.3c0-0.7,0.5-1.4,1.3-1.4l0,0c0.7-0.1,1.4,0.5,1.4,1.3l0,0c0,0.7-0.5,1.4-1.3,1.4l0,0c0,0-0.1,0-0.1,0l0,0
							C790.6,211.5,790,211,790,210.3z M769.5,211.2L769.5,211.2c-0.7-0.1-1.3-0.8-1.2-1.5l0,0c0.1-0.7,0.8-1.3,1.5-1.2l0,0l0,0l0,0
							c0.7,0.1,1.3,0.8,1.2,1.5l0,0c-0.1,0.7-0.7,1.2-1.3,1.2l0,0C769.6,211.2,769.6,211.2,769.5,211.2z M795.4,209.9
							c-0.1-0.7,0.5-1.4,1.2-1.5l0,0c0.7-0.1,1.4,0.5,1.5,1.2l0,0c0.1,0.7-0.5,1.4-1.2,1.5v0c0,0-0.1,0-0.1,0l0,0
							C796,211.2,795.4,210.6,795.4,209.9z M800.8,209.4c-0.1-0.7,0.5-1.4,1.2-1.5l0,0l0,0l0,0c0.7-0.1,1.4,0.5,1.5,1.2l0,0
							c0.1,0.7-0.5,1.4-1.2,1.5l0,0c0,0-0.1,0-0.1,0l0,0C801.4,210.7,800.9,210.1,800.8,209.4z M839.7,210.5L839.7,210.5
							c-0.7-0.1-1.2-0.8-1.1-1.6l0,0c0.1-0.7,0.8-1.2,1.6-1.1l0,0c0,0,0,0,0,0l0,0c0.7,0.1,1.2,0.8,1.1,1.6l0,0
							c-0.1,0.7-0.7,1.1-1.3,1.1l0,0C839.9,210.6,839.8,210.5,839.7,210.5z M764,210.3c-0.7-0.1-1.2-0.9-1-1.6l0,0
							c0.1-0.7,0.9-1.2,1.6-1l0,0c0.7,0.2,1.2,0.9,1,1.6l0,0c-0.1,0.6-0.7,1.1-1.3,1.1l0,0C764.2,210.3,764.1,210.3,764,210.3z
							 M806.2,209c-0.1-0.7,0.5-1.4,1.2-1.5l0,0l0,0l0,0c0.7-0.1,1.4,0.5,1.5,1.2l0,0c0.1,0.7-0.5,1.4-1.2,1.5l0,0c0,0-0.1,0-0.1,0
							l0,0C806.8,210.2,806.3,209.7,806.2,209z M834.5,209.8c-0.7-0.1-1.3-0.7-1.2-1.5l0,0c0.1-0.7,0.7-1.3,1.5-1.2l0,0
							c0.7,0.1,1.3,0.7,1.2,1.5l0,0c-0.1,0.7-0.7,1.2-1.3,1.2l0,0C834.6,209.8,834.5,209.8,834.5,209.8z M811.6,208.5
							c-0.1-0.8,0.5-1.4,1.3-1.5l0,0c0.7-0.1,1.4,0.5,1.5,1.2l0,0c0.1,0.7-0.5,1.4-1.3,1.5l0,0c0,0-0.1,0-0.1,0l0,0
							C812.2,209.8,811.6,209.2,811.6,208.5z M817,208.1c0-0.7,0.5-1.4,1.3-1.4l0,0c0.7,0,1.4,0.5,1.4,1.3l0,0
							c0,0.7-0.5,1.4-1.3,1.4l0,0c0,0,0,0-0.1,0l0,0C817.6,209.5,817,208.9,817,208.1z M829.2,209.4L829.2,209.4
							c-0.8,0-1.3-0.7-1.3-1.4l0,0c0-0.7,0.7-1.3,1.4-1.3l0,0c0.7,0,1.3,0.7,1.3,1.4l0,0C830.5,208.8,829.9,209.4,829.2,209.4
							L829.2,209.4C829.2,209.4,829.2,209.4,829.2,209.4z M822.4,207.9c0-0.7,0.6-1.4,1.3-1.4l0,0c0.7,0,1.4,0.6,1.4,1.4l0,0
							c0,0.7-0.6,1.4-1.4,1.4h0c0,0,0,0,0,0l0,0C823,209.3,822.4,208.7,822.4,207.9z M758.7,208.9c-0.7-0.2-1.1-1-0.9-1.7l0,0
							c0.2-0.7,1-1.1,1.7-0.9l0,0l0,0l0,0c0.7,0.2,1.1,1,0.9,1.7l0,0c-0.2,0.6-0.7,1-1.3,1l0,0C758.9,209,758.8,208.9,758.7,208.9z
							 M753.5,207.1c-0.7-0.3-1-1.1-0.8-1.8l0,0c0.3-0.7,1.1-1,1.8-0.8l0,0l0,0l0,0c0.7,0.3,1,1.1,0.8,1.8l0,0
							c-0.2,0.5-0.7,0.9-1.3,0.9l0,0C753.8,207.2,753.6,207.1,753.5,207.1z M433.4,205.6L433.4,205.6L433.4,205.6
							c-0.3-0.7,0.1-1.5,0.8-1.7l0,0c0.7-0.3,1.5,0.1,1.7,0.8l0,0c0.3,0.7-0.1,1.5-0.8,1.7l0,0c-0.1,0.1-0.3,0.1-0.5,0.1l0,0
							C434.1,206.5,433.6,206.1,433.4,205.6z M748.4,204.8c-0.7-0.4-0.9-1.2-0.6-1.8l0,0c0.4-0.7,1.2-0.9,1.8-0.6l0,0
							c0.7,0.4,0.9,1.2,0.6,1.8l0,0c-0.2,0.5-0.7,0.7-1.2,0.7l0,0C748.8,204.9,748.6,204.9,748.4,204.8z M743.6,201.9L743.6,201.9
							c-0.6-0.4-0.8-1.3-0.4-1.9l0,0c0.4-0.6,1.3-0.8,1.9-0.4l0,0c0,0,0,0,0,0l0,0c0.6,0.4,0.8,1.3,0.4,1.9l0,0
							c-0.3,0.4-0.7,0.6-1.1,0.6l0,0C744.1,202.2,743.8,202.1,743.6,201.9z M431.5,200.5C431.5,200.5,431.5,200.5,431.5,200.5
							L431.5,200.5c-0.3-0.7,0.1-1.5,0.8-1.8l0,0c0.7-0.3,1.5,0.1,1.8,0.8l0,0c0.3,0.7-0.1,1.5-0.8,1.8l0,0
							c-0.2,0.1-0.3,0.1-0.5,0.1l0,0C432.2,201.4,431.7,201,431.5,200.5z M739.2,198.5c-0.6-0.5-0.6-1.4-0.1-1.9l0,0
							c0.5-0.6,1.3-0.6,1.9-0.1l0,0c0.6,0.5,0.6,1.4,0.1,1.9l0,0c-0.3,0.3-0.6,0.5-1,0.5l0,0C739.7,198.9,739.4,198.8,739.2,198.5z
							 M429.5,195.5c-0.3-0.7,0-1.5,0.7-1.8l0,0c0.7-0.3,1.5,0,1.8,0.7l0,0c0.3,0.7,0,1.5-0.7,1.8l0,0c-0.2,0.1-0.3,0.1-0.5,0.1l0,0
							C430.2,196.3,429.7,196,429.5,195.5z M735.2,194.5c-0.5-0.6-0.4-1.4,0.1-1.9l0,0c0.6-0.5,1.4-0.4,1.9,0.1l0,0
							c0.5,0.6,0.4,1.4-0.1,1.9l0,0c-0.3,0.2-0.6,0.3-0.9,0.3l0,0C735.9,195,735.5,194.9,735.2,194.5z M427.4,190.5
							c-0.3-0.7,0-1.5,0.7-1.8l0,0c0.7-0.3,1.5,0,1.8,0.7l0,0c0.3,0.7,0,1.5-0.7,1.8l0,0c-0.2,0.1-0.4,0.1-0.5,0.1l0,0
							C428.1,191.3,427.6,191,427.4,190.5z M731.9,190c-0.4-0.6-0.2-1.5,0.4-1.9l0,0c0.6-0.4,1.5-0.2,1.9,0.4l0,0l0,0l0,0
							c0.4,0.6,0.2,1.5-0.4,1.9l0,0c-0.2,0.1-0.5,0.2-0.7,0.2l0,0C732.6,190.6,732.2,190.4,731.9,190z M425.3,185.5
							c-0.3-0.7,0-1.5,0.7-1.8l0,0c0.7-0.3,1.5,0,1.8,0.7l0,0c0.3,0.7,0,1.5-0.7,1.8l0,0c-0.2,0.1-0.3,0.1-0.5,0.1l0,0
							C426,186.4,425.5,186,425.3,185.5z M729.4,185c-0.3-0.7,0.1-1.5,0.7-1.8l0,0c0.7-0.3,1.5,0,1.8,0.7l0,0l0,0l0,0
							c0.3,0.7-0.1,1.5-0.7,1.8l0,0c-0.2,0.1-0.3,0.1-0.5,0.1l0,0C730.1,185.8,729.6,185.5,729.4,185z M423.2,180.5
							c-0.3-0.7,0-1.5,0.7-1.8l0,0c0.7-0.3,1.5,0,1.8,0.7v0c0.3,0.7,0,1.5-0.7,1.8l0,0c-0.2,0.1-0.3,0.1-0.5,0.1l0,0
							C423.9,181.4,423.4,181,423.2,180.5z M727.6,179.6L727.6,179.6c-0.2-0.7,0.2-1.5,1-1.7l0,0c0.7-0.2,1.5,0.3,1.6,1l0,0l0,0l0,0
							c0.2,0.7-0.2,1.5-1,1.7l0,0c-0.1,0-0.2,0-0.3,0l0,0C728.3,180.7,727.8,180.3,727.6,179.6z M421.1,175.5
							c-0.3-0.7,0.1-1.5,0.8-1.8l0,0c0.7-0.3,1.5,0.1,1.8,0.8l0,0c0.3,0.7-0.1,1.5-0.8,1.8l0,0c-0.2,0.1-0.3,0.1-0.5,0.1l0,0
							C421.8,176.3,421.3,176,421.1,175.5z M726.5,174.2L726.5,174.2c-0.1-0.7,0.4-1.4,1.1-1.6l0,0c0.7-0.1,1.4,0.4,1.6,1.1l0,0
							c0.1,0.7-0.4,1.4-1.1,1.5l0,0c-0.1,0-0.1,0-0.2,0l0,0C727.2,175.4,726.6,174.9,726.5,174.2z M419.2,170.4
							c-0.3-0.7,0.1-1.5,0.8-1.8l0,0c0.7-0.2,1.5,0.1,1.7,0.8l0,0c0.3,0.7-0.1,1.5-0.8,1.7l0,0c-0.1,0.1-0.3,0.1-0.5,0.1l0,0
							C419.9,171.2,419.4,170.9,419.2,170.4z M725.8,168.8c-0.1-0.7,0.4-1.4,1.2-1.5l0,0c0.7-0.1,1.4,0.5,1.5,1.2l0,0c0,0,0,0,0,0
							l0,0c0.1,0.7-0.4,1.4-1.2,1.5l0,0c-0.1,0-0.1,0-0.2,0l0,0C726.5,170,725.9,169.5,725.8,168.8z M417.4,165.2
							c-0.2-0.7,0.2-1.5,0.9-1.7l0,0c0.7-0.2,1.5,0.2,1.7,0.9l0,0c0.2,0.7-0.1,1.5-0.9,1.7l0,0c-0.1,0-0.3,0.1-0.4,0.1l0,0
							C418.1,166.1,417.6,165.8,417.4,165.2z M725.2,163.4c-0.1-0.7,0.5-1.4,1.2-1.5l0,0c0.7-0.1,1.4,0.5,1.5,1.2l0,0
							c0.1,0.7-0.5,1.4-1.2,1.5l0,0c-0.1,0-0.1,0-0.1,0l0,0C725.9,164.6,725.3,164.1,725.2,163.4z M415.8,159.9
							C415.8,159.9,415.8,159.9,415.8,159.9L415.8,159.9c-0.2-0.7,0.2-1.5,1-1.7l0,0c0.7-0.2,1.5,0.2,1.7,1l0,0
							c0.2,0.7-0.2,1.5-1,1.7l0,0c-0.1,0-0.2,0.1-0.4,0.1l0,0C416.5,160.9,416,160.5,415.8,159.9z M724.6,158L724.6,158
							c-0.1-0.7,0.4-1.4,1.2-1.5l0,0c0.7-0.1,1.4,0.4,1.5,1.2l0,0l0,0l0,0c0.1,0.7-0.4,1.4-1.2,1.5l0,0c-0.1,0-0.1,0-0.2,0l0,0
							C725.3,159.2,724.7,158.7,724.6,158z M578.7,157.1c-0.7,0-1.3-0.6-1.3-1.4l0,0c0-0.7,0.6-1.3,1.4-1.3l0,0
							c0.7,0,1.3,0.6,1.3,1.4l0,0C580.1,156.5,579.5,157.1,578.7,157.1L578.7,157.1C578.7,157.1,578.7,157.1,578.7,157.1z
							 M582.8,155.7c0-0.8,0.6-1.4,1.3-1.4l0,0c0.7,0,1.4,0.6,1.4,1.3l0,0c0,0.7-0.6,1.4-1.3,1.4l0,0c0,0,0,0,0,0l0,0
							C583.4,157,582.8,156.4,582.8,155.7z M573.3,156.9c-0.7,0-1.3-0.7-1.3-1.4l0,0c0-0.7,0.7-1.3,1.4-1.3l0,0
							c0.7,0,1.3,0.7,1.3,1.4l0,0C574.6,156.3,574,156.9,573.3,156.9L573.3,156.9C573.3,156.9,573.3,156.9,573.3,156.9z
							 M588.2,155.6c0-0.7,0.5-1.4,1.3-1.4l0,0l0,0l0,0c0.7,0,1.4,0.5,1.4,1.3l0,0c0,0.7-0.5,1.4-1.3,1.4l0,0c0,0,0,0-0.1,0l0,0
							C588.9,156.8,588.3,156.3,588.2,155.6z M567.8,156.5c-0.7-0.1-1.3-0.7-1.2-1.5l0,0c0.1-0.7,0.7-1.3,1.5-1.2l0,0l0,0l0,0
							c0.7,0.1,1.3,0.7,1.2,1.5l0,0c-0.1,0.7-0.7,1.2-1.4,1.2l0,0C567.9,156.5,567.8,156.5,567.8,156.5z M593.6,155.2
							c-0.1-0.7,0.5-1.4,1.2-1.5l0,0c0.7-0.1,1.4,0.5,1.5,1.2l0,0c0.1,0.7-0.5,1.4-1.2,1.5l0,0c0,0-0.1,0-0.1,0l0,0
							C594.3,156.5,593.7,155.9,593.6,155.2z M562.3,156c-0.7-0.1-1.3-0.8-1.2-1.5l0,0c0.1-0.7,0.8-1.3,1.5-1.2l0,0l0,0l0,0
							c0.7,0.1,1.3,0.8,1.2,1.5l0,0c-0.1,0.7-0.7,1.2-1.4,1.2l0,0C562.5,156,562.4,156,562.3,156z M599,154.7
							c-0.1-0.7,0.4-1.4,1.2-1.5l0,0c0.7-0.1,1.4,0.4,1.5,1.2l0,0c0.1,0.7-0.4,1.4-1.2,1.5l0,0c-0.1,0-0.1,0-0.2,0l0,0
							C599.7,155.9,599.1,155.4,599,154.7z M414.5,154.6C414.5,154.6,414.5,154.6,414.5,154.6L414.5,154.6c-0.2-0.7,0.3-1.5,1-1.6
							l0,0c0.7-0.2,1.5,0.3,1.6,1l0,0c0.2,0.7-0.3,1.5-1,1.6l0,0c-0.1,0-0.2,0-0.3,0l0,0C415.2,155.7,414.6,155.2,414.5,154.6z
							 M556.9,155.2c-0.7-0.1-1.2-0.8-1.1-1.6l0,0c0.1-0.7,0.8-1.2,1.6-1.1l0,0c0.7,0.1,1.2,0.9,1.1,1.6l0,0
							c-0.1,0.7-0.7,1.1-1.3,1.1l0,0C557.1,155.3,557,155.2,556.9,155.2z M604.4,154c-0.1-0.7,0.4-1.4,1.1-1.5l0,0
							c0.7-0.1,1.4,0.4,1.5,1.1l0,0c0.1,0.7-0.4,1.4-1.1,1.5l0,0c-0.1,0-0.1,0-0.2,0l0,0C605.1,155.2,604.5,154.7,604.4,154z
							 M609.8,153.2c-0.1-0.7,0.3-1.4,1.1-1.6l0,0l0,0l0,0c0.7-0.1,1.4,0.4,1.6,1.1l0,0c0.1,0.7-0.4,1.4-1.1,1.6l0,0
							c-0.1,0-0.2,0-0.2,0l0,0C610.5,154.3,609.9,153.8,609.8,153.2z M551.4,153.8c-0.7-0.2-1.1-1-0.8-1.7l0,0
							c0.2-0.7,1-1.1,1.7-0.8l0,0c0.7,0.2,1.1,1,0.8,1.7l0,0c-0.2,0.6-0.7,0.9-1.3,0.9l0,0C551.7,153.9,551.6,153.9,551.4,153.8z
							 M723.6,152.8L723.6,152.8c-0.2-0.7,0.3-1.5,1-1.6l0,0c0.7-0.2,1.5,0.3,1.6,1l0,0c0.2,0.7-0.3,1.5-1,1.6l0,0
							c-0.1,0-0.2,0-0.3,0l0,0C724.3,153.9,723.8,153.4,723.6,152.8z M615.1,152.2c-0.2-0.7,0.3-1.5,1-1.6l0,0
							c0.7-0.2,1.5,0.3,1.6,1l0,0c0.2,0.7-0.3,1.5-1,1.6l0,0c-0.1,0-0.2,0-0.3,0l0,0C615.8,153.2,615.2,152.8,615.1,152.2z
							 M620.4,150.9c-0.2-0.7,0.3-1.5,1-1.6l0,0c0.7-0.2,1.5,0.2,1.7,1l0,0c0.2,0.7-0.3,1.5-1,1.7l0,0c-0.1,0-0.2,0-0.3,0l0,0
							C621.1,152,620.5,151.6,620.4,150.9z M546.3,151.4c-0.6-0.4-0.8-1.3-0.4-1.9l0,0c0.4-0.6,1.2-0.8,1.9-0.4l0,0
							c0.6,0.4,0.8,1.3,0.4,1.9l0,0c-0.3,0.4-0.7,0.6-1.1,0.6l0,0C546.8,151.6,546.5,151.5,546.3,151.4z M625.6,149.6
							c-0.2-0.7,0.2-1.5,0.9-1.7l0,0c0.7-0.2,1.5,0.2,1.7,0.9l0,0c0.2,0.7-0.2,1.5-0.9,1.7l0,0c-0.1,0-0.3,0.1-0.4,0.1l0,0
							C626.3,150.6,625.8,150.2,625.6,149.6z M413.5,149.2c-0.1-0.7,0.4-1.4,1.2-1.5l0,0c0.7-0.1,1.4,0.4,1.5,1.2v0
							c0.1,0.7-0.4,1.4-1.2,1.5l0,0c-0.1,0-0.1,0-0.2,0l0,0C414.2,150.3,413.6,149.8,413.5,149.2z M630.8,148
							c-0.2-0.7,0.2-1.5,0.9-1.7l0,0c0.7-0.2,1.5,0.2,1.7,0.9l0,0c0.2,0.7-0.2,1.5-0.9,1.7l0,0c-0.2,0.1-0.3,0.1-0.4,0.1l0,0
							C631.5,148.9,631,148.6,630.8,148z M722.2,147.8c-0.3-0.7,0.1-1.5,0.8-1.7l0,0c0.7-0.3,1.5,0.1,1.7,0.8l0,0l0,0l0,0
							c0.3,0.7-0.1,1.5-0.8,1.7l0,0c-0.1,0.1-0.3,0.1-0.5,0.1l0,0C722.9,148.7,722.4,148.3,722.2,147.8z M541.9,147.5L541.9,147.5
							c-0.5-0.6-0.4-1.4,0.1-1.9l0,0c0.6-0.5,1.4-0.4,1.9,0.1l0,0l0,0l0,0c0.5,0.6,0.4,1.4-0.1,1.9l0,0c-0.3,0.2-0.6,0.3-0.9,0.3
							l0,0C542.6,148,542.2,147.9,541.9,147.5z M636,146.3c-0.3-0.7,0.1-1.5,0.8-1.7l0,0c0.7-0.3,1.5,0.1,1.7,0.8l0,0
							c0.3,0.7-0.1,1.5-0.8,1.7l0,0c-0.2,0.1-0.3,0.1-0.5,0.1l0,0C636.7,147.2,636.2,146.8,636,146.3z M641,144.4
							c-0.3-0.7,0.1-1.5,0.8-1.8l0,0c0,0,0,0,0,0l0,0c0.7-0.3,1.5,0.1,1.8,0.7l0,0c0.3,0.7-0.1,1.5-0.8,1.8l0,0
							c-0.2,0.1-0.3,0.1-0.5,0.1l0,0C641.8,145.2,641.3,144.9,641,144.4z M413,143.7c-0.1-0.7,0.5-1.4,1.3-1.4l0,0
							c0.7,0,1.4,0.5,1.4,1.3l0,0c0,0.7-0.5,1.4-1.3,1.4l0,0c0,0-0.1,0-0.1,0l0,0C413.6,144.9,413,144.4,413,143.7z M720,143.1
							c-0.4-0.7-0.2-1.5,0.5-1.9l0,0c0.7-0.4,1.5-0.2,1.9,0.5l0,0l0,0l0,0c0.4,0.7,0.2,1.5-0.5,1.9l0,0c-0.2,0.1-0.5,0.2-0.7,0.2
							l0,0C720.7,143.8,720.2,143.5,720,143.1z M538.6,143c-0.4-0.6-0.2-1.5,0.4-1.9l0,0c0.7-0.4,1.5-0.2,1.9,0.5l0,0
							c0.4,0.6,0.2,1.5-0.5,1.9l0,0c-0.2,0.1-0.5,0.2-0.7,0.2l0,0C539.3,143.6,538.9,143.4,538.6,143z M646.1,142.3
							c-0.3-0.7,0-1.5,0.7-1.8l0,0c0.7-0.3,1.5,0,1.8,0.7l0,0c0.3,0.7,0,1.5-0.7,1.8l0,0c-0.2,0.1-0.4,0.1-0.5,0.1l0,0
							C646.8,143.1,646.3,142.8,646.1,142.3z M651,140.1c-0.3-0.7,0-1.5,0.7-1.8l0,0l0,0l0,0c0.7-0.3,1.5,0,1.8,0.7l0,0
							c0.3,0.7,0,1.5-0.7,1.8l0,0c-0.2,0.1-0.4,0.1-0.6,0.1l0,0C651.7,140.9,651.2,140.6,651,140.1z M412.8,138.2
							c0-0.8,0.6-1.4,1.3-1.4l0,0c0.8,0,1.4,0.6,1.4,1.3l0,0c0,0.7-0.6,1.4-1.3,1.4l0,0h0l0,0C413.4,139.5,412.8,138.9,412.8,138.2z
							 M716.9,139c-0.5-0.5-0.5-1.4,0.1-1.9l0,0c0.6-0.5,1.4-0.5,1.9,0.1l0,0c0.5,0.6,0.5,1.4-0.1,1.9l0,0c-0.3,0.2-0.6,0.4-0.9,0.4
							l0,0C717.6,139.4,717.2,139.3,716.9,139z M536,138.1c-0.3-0.7,0-1.5,0.6-1.8l0,0c0.7-0.3,1.5,0,1.8,0.6l0,0
							c0.3,0.7,0,1.5-0.6,1.8l0,0c-0.2,0.1-0.4,0.1-0.6,0.1l0,0C536.7,138.8,536.2,138.6,536,138.1z M656,137.9
							c-0.3-0.7,0-1.5,0.7-1.8l0,0c0.7-0.3,1.5,0,1.8,0.7l0,0c0.3,0.7,0,1.5-0.7,1.8l0,0c-0.2,0.1-0.4,0.1-0.5,0.1l0,0
							C656.7,138.7,656.2,138.4,656,137.9z M660.9,135.7c-0.3-0.7,0-1.5,0.7-1.8l0,0c0,0,0,0,0,0l0,0c0.7-0.3,1.5,0,1.8,0.7l0,0
							c0.3,0.7,0,1.5-0.7,1.8l0,0c-0.2,0.1-0.4,0.1-0.5,0.1l0,0C661.6,136.5,661.1,136.2,660.9,135.7z M713.1,135.5
							c-0.6-0.4-0.7-1.3-0.3-1.9l0,0c0.4-0.6,1.3-0.7,1.9-0.3l0,0c0.6,0.4,0.7,1.3,0.3,1.9l0,0c-0.3,0.4-0.7,0.6-1.1,0.6l0,0
							C713.6,135.8,713.3,135.7,713.1,135.5z M665.9,133.6c-0.3-0.7,0.1-1.5,0.8-1.8l0,0c0.7-0.3,1.5,0.1,1.8,0.8l0,0
							c0.3,0.7-0.1,1.5-0.8,1.8l0,0c-0.1,0.1-0.3,0.1-0.5,0.1l0,0C666.6,134.5,666.1,134.1,665.9,133.6z M414.1,134.1
							c-0.7,0-1.3-0.6-1.3-1.4l0,0c0-0.7,0.6-1.3,1.4-1.3l0,0c0.7,0,1.3,0.6,1.3,1.4l0,0C415.5,133.5,414.9,134.1,414.1,134.1
							L414.1,134.1C414.2,134.1,414.1,134.1,414.1,134.1z M533.7,133.1L533.7,133.1c-0.3-0.7,0-1.5,0.7-1.8l0,0
							c0.7-0.3,1.5,0,1.8,0.7l0,0l0,0l0,0c0.3,0.7,0,1.5-0.7,1.8l0,0c-0.2,0.1-0.4,0.1-0.6,0.1l0,0
							C534.4,133.9,533.9,133.6,533.7,133.1z M708.7,132.9L708.7,132.9c-0.7-0.3-1-1.1-0.6-1.8l0,0c0.3-0.7,1.2-1,1.8-0.6l0,0l0,0
							l0,0c0.7,0.3,1,1.1,0.6,1.8l0,0c-0.2,0.5-0.7,0.8-1.2,0.8l0,0C709.1,133,708.9,133,708.7,132.9z M671,131.7
							c-0.2-0.7,0.1-1.5,0.9-1.7l0,0c0.7-0.2,1.5,0.1,1.7,0.9l0,0c0.2,0.7-0.1,1.5-0.9,1.7l0,0c-0.1,0.1-0.3,0.1-0.4,0.1l0,0
							C671.7,132.6,671.2,132.2,671,131.7z M676.1,130c-0.2-0.7,0.2-1.5,1-1.7l0,0c0.7-0.2,1.5,0.2,1.7,1l0,0c0.2,0.7-0.2,1.5-1,1.7
							l0,0c-0.1,0-0.2,0.1-0.3,0.1l0,0C676.9,131,676.3,130.6,676.1,130z M703.8,131L703.8,131c-0.7-0.2-1.1-1-0.9-1.7l0,0
							c0.2-0.7,1-1.1,1.7-0.9l0,0c0.7,0.2,1.1,1,0.9,1.7l0,0c-0.2,0.6-0.7,1-1.3,1l0,0C704.1,131,703.9,131,703.8,131z M681.4,128.8
							c-0.1-0.7,0.4-1.4,1.1-1.6l0,0c0.7-0.1,1.5,0.4,1.6,1.1l0,0c0.1,0.7-0.4,1.5-1.1,1.6l0,0c-0.1,0-0.2,0-0.2,0l0,0
							C682.1,129.9,681.5,129.4,681.4,128.8z M698.7,129.7L698.7,129.7c-0.7-0.1-1.2-0.8-1.1-1.6l0,0c0.1-0.7,0.8-1.2,1.6-1.1l0,0
							c0.7,0.1,1.2,0.8,1.1,1.6l0,0c-0.1,0.7-0.7,1.1-1.3,1.1l0,0C698.9,129.8,698.8,129.8,698.7,129.7z M686.8,128
							c-0.1-0.8,0.5-1.4,1.3-1.5l0,0c0.8,0,1.4,0.5,1.5,1.3l0,0c0,0.7-0.5,1.4-1.3,1.4l0,0c0,0-0.1,0-0.1,0l0,0
							C687.4,129.2,686.8,128.7,686.8,128z M693.5,129.2L693.5,129.2c-0.7,0-1.3-0.7-1.3-1.4l0,0c0-0.7,0.7-1.3,1.4-1.3l0,0
							c0.7,0,1.3,0.7,1.3,1.4l0,0C694.9,128.6,694.3,129.2,693.5,129.2L693.5,129.2C693.5,129.2,693.5,129.2,693.5,129.2z
							 M531.4,128.2c-0.3-0.7,0-1.5,0.7-1.8l0,0c0.7-0.3,1.5,0,1.8,0.7l0,0c0.3,0.7,0,1.5-0.7,1.8l0,0c-0.2,0.1-0.4,0.1-0.6,0.1l0,0
							C532.1,129,531.7,128.7,531.4,128.2z M414.3,128.7c-0.7,0-1.3-0.7-1.3-1.4l0,0c0,0,0,0,0,0l0,0c0-0.8,0.7-1.3,1.4-1.3l0,0
							c0.7,0,1.3,0.7,1.3,1.4l0,0C415.7,128.1,415.1,128.7,414.3,128.7L414.3,128.7C414.3,128.7,414.3,128.7,414.3,128.7z
							 M529.2,123.3c-0.3-0.7,0-1.5,0.7-1.8l0,0c0.7-0.3,1.5,0,1.8,0.7l0,0c0.3,0.7,0,1.5-0.7,1.8l0,0c-0.2,0.1-0.4,0.1-0.6,0.1l0,0
							C529.9,124.1,529.4,123.8,529.2,123.3z M414.6,123.2c-0.7-0.1-1.3-0.7-1.2-1.5l0,0c0.1-0.7,0.7-1.3,1.5-1.3l0,0
							c0.7,0.1,1.3,0.7,1.2,1.5l0,0c-0.1,0.7-0.6,1.2-1.3,1.2l0,0C414.7,123.3,414.7,123.3,414.6,123.2z M526.9,118.4L526.9,118.4
							c-0.3-0.7,0-1.5,0.7-1.8l0,0c0.7-0.3,1.5,0,1.8,0.7l0,0c0.3,0.7,0,1.5-0.7,1.8l0,0c-0.2,0.1-0.4,0.1-0.6,0.1l0,0
							C527.6,119.1,527.1,118.9,526.9,118.4z M415.1,117.8c-0.7-0.1-1.3-0.7-1.2-1.5l0,0l0,0l0,0c0.1-0.7,0.7-1.3,1.5-1.2l0,0
							c0.7,0.1,1.3,0.7,1.2,1.5l0,0c-0.1,0.7-0.7,1.2-1.4,1.2l0,0C415.2,117.8,415.1,117.8,415.1,117.8z M524.6,113.4
							c-0.3-0.7,0-1.5,0.7-1.8l0,0c0.7-0.3,1.5,0,1.8,0.7l0,0c0.3,0.7,0,1.5-0.7,1.8l0,0c-0.2,0.1-0.4,0.1-0.6,0.1l0,0
							C525.4,114.2,524.9,113.9,524.6,113.4z M415.7,112.4c-0.7-0.1-1.3-0.8-1.2-1.5l0,0c0.1-0.7,0.8-1.3,1.5-1.2l0,0
							c0.7,0.1,1.3,0.8,1.2,1.5l0,0c-0.1,0.7-0.7,1.2-1.3,1.2l0,0C415.8,112.5,415.8,112.4,415.7,112.4z M522.4,108.5
							c-0.3-0.7,0-1.5,0.7-1.8l0,0c0.7-0.3,1.5,0,1.8,0.7l0,0l0,0l0,0c0.3,0.7,0,1.5-0.7,1.8l0,0c-0.2,0.1-0.4,0.1-0.6,0.1l0,0
							C523.1,109.3,522.6,109,522.4,108.5z M416.4,107.1c-0.7-0.1-1.2-0.8-1.1-1.6l0,0c0.1-0.7,0.8-1.2,1.5-1.1l0,0
							c0.7,0.1,1.2,0.8,1.1,1.6l0,0c-0.1,0.7-0.7,1.1-1.3,1.1l0,0C416.6,107.1,416.5,107.1,416.4,107.1z M520.1,103.6
							c-0.3-0.7,0-1.5,0.7-1.8l0,0c0.7-0.3,1.5,0,1.8,0.7l0,0c0.3,0.7,0,1.5-0.7,1.8l0,0c-0.2,0.1-0.4,0.1-0.6,0.1l0,0
							C520.8,104.4,520.4,104.1,520.1,103.6z M417.3,101.7c-0.7-0.1-1.2-0.8-1.1-1.6l0,0c0.1-0.7,0.9-1.2,1.6-1.1l0,0
							c0.7,0.1,1.2,0.9,1.1,1.6l0,0c-0.1,0.7-0.7,1.1-1.3,1.1l0,0C417.5,101.7,417.4,101.7,417.3,101.7z M517.9,98.6L517.9,98.6
							c-0.3-0.7,0-1.5,0.7-1.8l0,0c0.7-0.3,1.5,0,1.8,0.7l0,0l0,0l0,0c0.3,0.7,0,1.5-0.7,1.8l0,0c-0.2,0.1-0.4,0.1-0.6,0.1l0,0
							C518.6,99.4,518.1,99.1,517.9,98.6z M418.4,96.4c-0.7-0.2-1.2-0.9-1-1.6l0,0c0.2-0.7,0.9-1.2,1.6-1l0,0c0.7,0.2,1.2,0.9,1,1.6
							l0,0c-0.1,0.6-0.7,1.1-1.3,1.1l0,0C418.6,96.4,418.5,96.4,418.4,96.4z M515.6,93.7c-0.3-0.7,0-1.5,0.7-1.8l0,0
							c0.7-0.3,1.5,0,1.8,0.7l0,0c0.3,0.7,0,1.5-0.7,1.8l0,0c-0.2,0.1-0.4,0.1-0.6,0.1l0,0C516.3,94.5,515.8,94.2,515.6,93.7z
							 M419.6,91.1c-0.7-0.2-1.2-0.9-1-1.6l0,0c0.2-0.7,0.9-1.2,1.6-1l0,0c0.7,0.2,1.2,0.9,1,1.6l0,0c-0.2,0.6-0.7,1-1.3,1l0,0
							C419.8,91.1,419.7,91.1,419.6,91.1z M513.3,88.8c-0.3-0.7,0-1.5,0.7-1.8l0,0c0.7-0.3,1.5,0,1.8,0.7l0,0c0.3,0.7,0,1.5-0.7,1.8
							l0,0c-0.2,0.1-0.4,0.1-0.6,0.1l0,0C514.1,89.6,513.6,89.3,513.3,88.8z M420.9,85.8c-0.7-0.2-1.1-1-0.9-1.7l0,0l0,0l0,0
							c0.2-0.7,1-1.1,1.7-0.9l0,0c0.7,0.2,1.1,1,0.9,1.7l0,0c-0.2,0.6-0.7,1-1.3,1l0,0C421.2,85.9,421.1,85.9,420.9,85.8z
							 M511.1,83.9c-0.3-0.7,0-1.5,0.6-1.8l0,0c0.7-0.3,1.5,0,1.8,0.6l0,0c0.3,0.7,0,1.5-0.6,1.8l0,0c-0.2,0.1-0.4,0.1-0.6,0.1l0,0
							C511.8,84.6,511.3,84.4,511.1,83.9z M422.5,80.6c-0.7-0.2-1.1-1-0.9-1.7l0,0c0.2-0.7,1-1.1,1.7-0.9l0,0c0.7,0.2,1.1,1,0.9,1.7
							l0,0c-0.2,0.6-0.7,0.9-1.3,0.9l0,0C422.7,80.7,422.6,80.7,422.5,80.6z M508.5,79.2c-0.4-0.6-0.2-1.5,0.4-1.9l0,0
							c0.6-0.4,1.5-0.2,1.9,0.4l0,0c0.4,0.6,0.2,1.5-0.4,1.9l0,0c-0.2,0.1-0.5,0.2-0.7,0.2l0,0C509.2,79.9,508.8,79.7,508.5,79.2z
							 M424.2,75.5c-0.7-0.3-1.1-1.1-0.8-1.8l0,0c0.3-0.7,1-1.1,1.8-0.8l0,0c0.7,0.3,1,1,0.8,1.8l0,0c-0.2,0.5-0.7,0.9-1.3,0.9l0,0
							C424.5,75.6,424.4,75.5,424.2,75.5z M505.5,74.9c-0.4-0.6-0.3-1.5,0.3-1.9l0,0c0.6-0.4,1.4-0.3,1.9,0.3l0,0
							c0.4,0.6,0.3,1.5-0.3,1.9l0,0c-0.2,0.2-0.5,0.3-0.8,0.3l0,0C506.2,75.4,505.8,75.2,505.5,74.9z M502.2,70.7
							c-0.5-0.6-0.4-1.4,0.1-1.9l0,0c0.6-0.5,1.4-0.4,1.9,0.1l0,0c0.5,0.6,0.4,1.4-0.1,1.9l0,0c-0.3,0.2-0.6,0.3-0.9,0.3l0,0
							C502.9,71.2,502.5,71,502.2,70.7z M426.2,70.4c-0.7-0.3-1-1.1-0.7-1.8l0,0c0.3-0.7,1.1-1,1.8-0.7l0,0c0.7,0.3,1,1.1,0.7,1.8
							l0,0c-0.2,0.5-0.7,0.8-1.2,0.8l0,0C426.6,70.5,426.4,70.5,426.2,70.4z M498.6,66.8L498.6,66.8c-0.5-0.5-0.5-1.4,0-1.9l0,0
							c0.5-0.5,1.4-0.5,1.9,0l0,0c0.5,0.5,0.5,1.4,0,1.9l0,0c-0.3,0.2-0.6,0.4-1,0.4l0,0C499.2,67.2,498.9,67,498.6,66.8z
							 M428.5,65.5c-0.7-0.3-0.9-1.2-0.6-1.8l0,0c0.3-0.7,1.2-0.9,1.8-0.6l0,0c0.7,0.3,0.9,1.2,0.6,1.8l0,0
							c-0.2,0.5-0.7,0.7-1.2,0.7l0,0C428.9,65.7,428.7,65.6,428.5,65.5z M494.8,63c-0.6-0.5-0.6-1.4-0.1-1.9l0,0
							c0.5-0.5,1.4-0.6,1.9-0.1l0,0c0.6,0.5,0.6,1.4,0.1,1.9l0,0c-0.3,0.3-0.6,0.4-1,0.4l0,0C495.4,63.4,495,63.3,494.8,63z
							 M431.1,60.7c-0.6-0.4-0.8-1.2-0.4-1.9l0,0c0,0,0,0,0,0l0,0c0.4-0.6,1.2-0.8,1.9-0.4l0,0c0.6,0.4,0.8,1.2,0.4,1.9l0,0
							c-0.3,0.4-0.7,0.6-1.2,0.6l0,0C431.5,60.9,431.3,60.9,431.1,60.7z M490.7,59.5c-0.6-0.5-0.7-1.3-0.2-1.9l0,0
							c0.5-0.6,1.3-0.7,1.9-0.2l0,0c0.6,0.5,0.7,1.3,0.2,1.9l0,0c-0.3,0.3-0.7,0.5-1.1,0.5l0,0C491.3,59.8,491,59.7,490.7,59.5z
							 M486.5,56.3L486.5,56.3c-0.6-0.4-0.7-1.3-0.3-1.9l0,0c0.4-0.6,1.3-0.7,1.9-0.3l0,0c0.6,0.4,0.7,1.3,0.3,1.9l0,0
							c-0.3,0.4-0.7,0.6-1.1,0.6l0,0C487,56.5,486.7,56.4,486.5,56.3z M434,56.2c-0.6-0.5-0.7-1.3-0.3-1.9l0,0
							c0.5-0.6,1.3-0.7,1.9-0.3l0,0c0.6,0.5,0.7,1.3,0.2,1.9l0,0c-0.3,0.4-0.7,0.5-1.1,0.5l0,0C434.6,56.5,434.3,56.4,434,56.2z
							 M482.1,53.3c-0.6-0.4-0.8-1.2-0.4-1.9l0,0c0.4-0.6,1.2-0.8,1.9-0.4l0,0c0.6,0.4,0.8,1.2,0.4,1.9l0,0
							c-0.3,0.4-0.7,0.6-1.1,0.6l0,0C482.5,53.5,482.3,53.4,482.1,53.3z M437.4,52c-0.5-0.5-0.5-1.4,0-1.9l0,0
							c0.5-0.5,1.4-0.5,1.9,0l0,0c0.5,0.5,0.5,1.4,0,1.9l0,0c-0.3,0.3-0.6,0.4-1,0.4l0,0C438.1,52.4,437.7,52.2,437.4,52z
							 M477.5,50.6c-0.7-0.4-0.9-1.2-0.5-1.8l0,0c0.4-0.7,1.2-0.9,1.8-0.5l0,0c0.7,0.4,0.9,1.2,0.5,1.8l0,0
							c-0.2,0.4-0.7,0.7-1.2,0.7l0,0C477.9,50.7,477.7,50.7,477.5,50.6z M441.4,48.3c-0.4-0.6-0.3-1.5,0.3-1.9l0,0
							c0.6-0.4,1.5-0.3,1.9,0.3l0,0c0.4,0.6,0.3,1.5-0.3,1.9l0,0c-0.2,0.2-0.5,0.3-0.8,0.3l0,0C442.1,48.8,441.7,48.7,441.4,48.3z
							 M472.7,48.2c-0.7-0.3-1-1.1-0.7-1.8l0,0c0.3-0.7,1.1-1,1.8-0.7l0,0c0.7,0.3,1,1.1,0.7,1.8l0,0c-0.2,0.5-0.7,0.8-1.2,0.8l0,0
							C473.1,48.3,472.9,48.3,472.7,48.2z M467.8,46.2c-0.7-0.2-1.1-1-0.8-1.7l0,0c0.2-0.7,1-1.1,1.7-0.8l0,0c0.7,0.2,1.1,1,0.8,1.7
							l0,0c-0.2,0.6-0.7,0.9-1.3,0.9l0,0C468.1,46.3,467.9,46.3,467.8,46.2z M445.9,45.3c-0.3-0.7,0-1.5,0.7-1.8l0,0
							c0.7-0.3,1.5,0,1.8,0.7l0,0c0.3,0.7,0,1.5-0.7,1.8l0,0c-0.2,0.1-0.4,0.1-0.6,0.1l0,0C446.6,46.1,446.1,45.8,445.9,45.3z
							 M462.7,44.8c-0.7-0.2-1.2-0.9-1-1.6l0,0c0.2-0.7,0.9-1.2,1.6-1l0,0c0.7,0.2,1.2,0.9,1,1.6l0,0c-0.1,0.6-0.7,1.1-1.3,1.1l0,0
							C462.9,44.8,462.8,44.8,462.7,44.8z M450.9,43.4c-0.1-0.7,0.3-1.5,1.1-1.6l0,0c0.7-0.1,1.5,0.3,1.6,1.1l0,0
							c0.1,0.7-0.3,1.5-1.1,1.6l0,0c-0.1,0-0.2,0-0.3,0l0,0C451.6,44.5,451.1,44,450.9,43.4z M457.6,44.1c-0.7,0-1.3-0.7-1.3-1.4
							l0,0c0-0.8,0.7-1.3,1.4-1.3l0,0l0,0l0,0c0.7,0,1.3,0.7,1.3,1.4l0,0C459,43.5,458.4,44.1,457.6,44.1L457.6,44.1
							C457.6,44.1,457.6,44.1,457.6,44.1z"/>
					</g>
					<g>
						<path class="st2" d="M789.7,453.7c-0.2,0-0.4,0-0.5-0.1s-0.3-0.2-0.4-0.3c-0.3-0.3-0.4-0.6-0.4-1c0-0.2,0-0.4,0.1-0.5
							c0.1-0.2,0.2-0.3,0.3-0.4c0.1-0.1,0.3-0.2,0.4-0.3c0.2-0.1,0.5-0.1,0.8-0.1c0.1,0,0.2,0,0.3,0.1c0.1,0,0.2,0.1,0.2,0.1
							c0.1,0.1,0.1,0.1,0.2,0.2c0.1,0.1,0.2,0.3,0.3,0.4c0.1,0.2,0.1,0.3,0.1,0.5c0,0.2,0,0.4-0.1,0.5c-0.1,0.2-0.2,0.3-0.3,0.4
							C790.4,453.5,790,453.7,789.7,453.7z"/>
					</g>
				</g>
				<path class="st3" d="M368.6,489c3,12.3,10.1,22.9,19.4,31.6h437.8c12.7-29.8,14.1-64-2-91.7c-10.7-18.4-28.1-33.1-33.9-53.6
					c-7.5-26.9,7.5-54.7,23.9-77.3c16.5-22.6,35.7-45.5,38.2-73.4c1-10.8-0.9-22.2-7.2-31c-8.6-12.1-24.2-17.5-39-17.9
					c-14.8-0.3-29.4,3.7-43.8,7.1c-50.2,11.7-102.3,15.4-153.7,11c-19.7-1.7-40.5-5-55.7-17.8c-31.3-26.3-27.7-79.1-68.1-96.1
					c-34.9-14.6-78.5,3.3-86.1,41c-7.8,38.9-6.5,79.5,3.6,117.8c5.8,21.7,14.4,42.8,17.4,65.1c3.2,23.5,0,47.9-9.3,69.8
					C393.8,412.2,358.6,448.3,368.6,489z"/>
				<g>
					<g>
						
							<rect x="330.6" y="312.6" transform="matrix(0.6542 -0.7563 0.7563 0.6542 -74.5612 464.308)" class="st4" width="279.8" height="2.1"/>
					</g>
					<g>
						<g>
							<path class="st4" d="M412.7,444.8c72.6,32,157.7-1,189.7-73.6c32-72.6-1-157.7-73.6-189.7c-13.9-6.1-28.6-10-43.6-11.5
								c-1.7-0.2-3.3,1.1-3.5,2.8c-0.2,1.7,1.1,3.3,2.8,3.5c14.4,1.5,28.5,5.2,41.7,11c69.4,30.6,101,112,70.4,181.4
								c-30.6,69.4-112,101-181.4,70.4c-13.3-5.8-25.5-13.7-36.3-23.4c-1.3-1.2-3.3-1.1-4.5,0.2c-1.2,1.3-1.1,3.3,0.2,4.5
								C386.1,430.5,398.9,438.7,412.7,444.8z"/>
						</g>
					</g>
					<g>
						<rect x="464.7" y="452.1" class="st4" width="14.9" height="60.9"/>
					</g>
					<g>
						<path class="st4" d="M524.8,520.6H419.5c-4.2,0-7.6-3.4-7.6-7.6l0,0c0-4.2,3.4-7.6,7.6-7.6h105.3c4.2,0,7.6,3.4,7.6,7.6l0,0
							C532.4,517.2,529,520.6,524.8,520.6z"/>
					</g>
					
						<linearGradient id="SVGID_1_" gradientUnits="userSpaceOnUse" x1="182.7425" y1="280.2394" x2="444.47" y2="280.2394" gradientTransform="matrix(-0.915 -0.4033 -0.4033 0.915 870.7464 183.2086)">
						<stop  offset="0" style="stop-color:#4D80D9"/>
						<stop  offset="1" style="stop-color:#4DD9CF"/>
					</linearGradient>
					<circle class="st5" cx="470.8" cy="313.2" r="130.9"/>
					<linearGradient id="SVGID_2_" gradientUnits="userSpaceOnUse" x1="413.1356" y1="290.7357" x2="601.6646" y2="290.7357">
						<stop  offset="0" style="stop-color:#9ED700"/>
						<stop  offset="1" style="stop-color:#A2C200"/>
					</linearGradient>
					<path class="st6" d="M523.6,193.4c-18.6-8.2-38.1-11.7-57.2-11.1c-1,1.3-1.9,2.6-2.9,3.8c-1.3,1.7-2.7,4-1.5,5.9
						c0.7,1.1,2,1.5,3.3,1.9c8.5,2.5,17,5,25.5,7.5c2,0.6,4.2,1.3,5.6,3c1,1.2,1.4,2.8,1.7,4.3c1.7,8,1.8,16.3,0.5,24.4
						c-0.3,2-0.8,4-1.9,5.6c-1.2,1.7-3,2.9-4.8,4c-6.3,3.6-13.4,6.2-18.1,11.7c-4.7,5.5-5.4,15.4,0.9,19c1.3,0.7,2.8,1.2,3.8,2.3
						c1.1,1.4,1.1,3.3,1,5.1c-0.5,10-1.1,20-1.6,30c4.5,2,9.6-1.5,12.7-5.4c3.1-3.9,5.9-8.6,10.7-10c4.8-1.5,10.3,1.2,13.1,5.5
						c2.8,4.2,3.4,9.6,2.8,14.6c-0.3,2.7-0.9,5.5-2.7,7.6c-2.5,2.9-6.5,3.8-10.1,5c-14.9,5-25.2,18.1-35.9,29.7
						c-10.6,11.6-24.2,22.8-39.9,22c-2.3-0.1-4.6-0.5-6.8,0.1c-6.5,1.7-8.1,10.1-8.5,16.9c9.3,0.9,18.5-5.5,27.7-3.7
						c5.3,1,9.7,4.7,14.9,5.8c11.6,2.6,21.9-7.5,29.1-16.9c3.7-4.8,7.7-10.1,13.6-11.3c11.9-2.4,22.7,13,34.1,9.1
						c7.2-2.5,10-11.5,9.2-19.1c-0.8-7.6-4-14.9-4.1-22.5c-0.2-9.8,4.5-18.9,9.2-27.5c0.8-1.4,1.6-2.9,3.1-3.4
						c2-0.7,4.1,0.8,5.8,2.1c6.9,5.6,13.9,11.5,18.3,19.1c4.5,7.7,6,17.7,1.5,25.4c-1.5,2.5-3.6,4.7-4.2,7.6
						c-1.4,6.8,5.9,12,12.4,14.3c0.6,0.2,1.1,0.4,1.7,0.6c1.8-3.3,3.5-6.7,5-10.2C619.7,299.8,589.7,222.6,523.6,193.4z"/>
					<linearGradient id="SVGID_3_" gradientUnits="userSpaceOnUse" x1="339.8885" y1="305.0807" x2="429.942" y2="305.0807">
						<stop  offset="0" style="stop-color:#9ED700"/>
						<stop  offset="1" style="stop-color:#A2C200"/>
					</linearGradient>
					<path class="st7" d="M427.4,305.7c3.7-5.8,2.8-13.4,0.4-19.9c-6.3-2-9-9.8-8.3-16.4c0.8-6.6,3.9-12.6,5.6-19.1
						c1.6-6.4,1.3-14.1-3.6-18.5c-6.9-6.1-20.4-4-23.3-12.7c-1.3-3.9,0.5-8.1,2.2-11.8c1-2.2,2.1-4.4,3.2-6.6
						c-22.6,13.4-41.3,33.8-52.7,59.6c-23.2,52.6-9,112.1,31,149c2.7-8.8,2.6-18.3-2.5-25.7c-3.7-5.4-9.7-9.2-12-15.3
						c-3.1-8.3,1.7-17.2,6.1-24.8c4.4-7.7,8.5-17.2,4.3-24.9c-2.2-4-6.2-6.6-9.6-9.6c-3.4-3-6.6-7.1-6-11.7c0.5-4.3,4.3-7.6,8.4-8.8
						c4.1-1.2,8.5-0.9,12.8-0.5c9,0.8,19.7,2.8,23.3,11.1c1.2,2.8,1.4,5.9,3.1,8.4C414,313.3,423.7,311.5,427.4,305.7z"/>
					<linearGradient id="SVGID_4_" gradientUnits="userSpaceOnUse" x1="437.596" y1="427.8477" x2="551.5369" y2="427.8477">
						<stop  offset="0" style="stop-color:#9ED700"/>
						<stop  offset="1" style="stop-color:#A2C200"/>
					</linearGradient>
					<path class="st8" d="M551.5,416.1c-6-5.6-16.4-4.9-25-3.5c-5.7,0.9-11.5,1.9-16.7,4.6c-3.5,1.8-6.6,4.3-10.2,5.9
						c-12.1,5.3-26.4-1.8-39.3,1.1c-8.7,1.9-15.9,8.2-22,14.7c-0.3,0.3-0.5,0.6-0.8,0.9C477.8,450.3,519.9,440.9,551.5,416.1z"/>
					<linearGradient id="SVGID_5_" gradientUnits="userSpaceOnUse" x1="431.2437" y1="324.9221" x2="448.9914" y2="324.9221">
						<stop  offset="0" style="stop-color:#9ED700"/>
						<stop  offset="1" style="stop-color:#A2C200"/>
					</linearGradient>
					<path class="st9" d="M438.1,315.9c1.1,3.5-0.7,7.1-2.7,10.2c-2,3.1-4.2,6.2-4.2,9.8c0,0.5,0,1,0.3,1.5c0.3,0.5,0.9,0.7,1.4,0.9
						c4.3,1.4,9.2,0.8,13.1-1.5c2-1.2,3.3-4.1,2.8-6.4s-2-4.3-2.4-6.6c-0.4-2.5,0.6-5.1,0.5-7.6c0-2.6-1.8-5.6-4.3-5.3
						C440.7,311.1,439,314.1,438.1,315.9z"/>
					<linearGradient id="SVGID_6_" gradientUnits="userSpaceOnUse" x1="451.1984" y1="226.676" x2="468.1456" y2="226.676">
						<stop  offset="0" style="stop-color:#9ED700"/>
						<stop  offset="1" style="stop-color:#A2C200"/>
					</linearGradient>
					<path class="st10" d="M452.8,233.8c-0.5,0.6-1.2,1.1-1.5,1.9c-0.6,1.8,1.5,3.2,3.3,3.8c2.5,0.8,5.2,1.4,7.6,0.3
						c0.9-0.4,1.6-1,2-1.9c0.3-0.8,0.2-1.7,0.1-2.5c-0.2-2.7,0.3-5.5,1.3-8c0.9-2,2.2-3.9,2.5-6.1c0.5-2.9-1-6-3.6-7.5
						c-2.5-1.5-6-1.2-8.3,0.7c-2,1.7-3.7,5.6-4,8.2C451.8,226.1,455,230.9,452.8,233.8z"/>
					<linearGradient id="SVGID_7_" gradientUnits="userSpaceOnUse" x1="391.6669" y1="340.7639" x2="405.1333" y2="340.7639">
						<stop  offset="0" style="stop-color:#9ED700"/>
						<stop  offset="1" style="stop-color:#A2C200"/>
					</linearGradient>
					<path class="st11" d="M395.5,335.9c0.2,3.4-1.3,6.8-3.8,9.1c1.1,2.2,4,2.8,6.3,2.1c2.3-0.7,4.1-2.5,5.8-4.2
						c0.4-0.4,0.9-0.9,1.1-1.4c0.6-1.3,0-2.8-0.8-3.9c-1-1.4-2.3-2.6-3.9-3c-1.6-0.5-3.5,0-4.5,1.3"/>
					<path class="st12" d="M523.6,193.4c-7.8-3.4-15.8-6-23.8-7.9c30.1,36.9,38.9,89,18.4,135.6c-25.7,58.3-88.8,88.5-148.7,74.8
						c12.6,15.5,29,28.3,48.6,37c66.1,29.1,143.4-0.8,172.5-67C619.7,299.8,589.7,222.6,523.6,193.4z"/>
				</g>
				<g>
					
						<linearGradient id="SVGID_8_" gradientUnits="userSpaceOnUse" x1="609.8669" y1="414.3396" x2="922.0859" y2="414.3396" gradientTransform="matrix(0.9854 -0.1701 0.1701 0.9854 -52.0319 113.549)">
						<stop  offset="0" style="stop-color:#4D80D9"/>
						<stop  offset="1" style="stop-color:#4DD9CF"/>
					</linearGradient>
					<path class="st13" d="M629.2,402.6c4.3-11,11.8-21.2,22.5-26.3c19.1-9.1,42.1,0.2,62.5-5c20.2-5.2,34-23.3,47.1-39.6
						c13.1-16.3,29.6-33.1,50.5-33.6c11.2-0.3,22,4.3,33,6.5c19.1,3.7,39.6-0.7,55.9-11.3c7.6-4.9,17.3,2.1,14.9,10.8
						c-1.2,4.2-2.5,8.4-3.4,12.5c-3,14.8,1.6,31.9-7.4,44c-8.7,11.6-26,12.9-36.8,22.7c-10.7,9.8-12.5,25.8-18.2,39.2
						c-2,4.8-4.7,9.4-8.6,12.9c-3.5,3.1-7.8,5.1-12.3,6.3c-16.5,4.7-34-0.5-51-3.3c-17-2.8-36.7-2.3-48.3,10.3
						c-10.3,11.2-11.5,29.5-23.7,38.7c-8.3,6.3-19.6,6.6-30.1,6.7c-7.9,0-16.3,0-23.1-4c-8.1-4.7-12.3-13.8-16.1-22.3
						c-4.3-9.7-12.9-22.2-14.3-32.6C621.1,425.5,625.6,411.2,629.2,402.6z"/>
					<path class="st12" d="M877.8,350.5c1.4,0.6,3.1,0.1,3.7-1.1c0.6-1.2,0-2.7-1.4-3.3c-6.2-2.6-12.5-5.2-18.9-7.7
						c6.3-2.9,12.6-5.7,18.9-8.5c1.4-0.6,1.9-2.1,1.1-3.3c-0.8-1.2-2.5-1.7-3.9-1.1c-11.6,5.1-23.1,10.4-34.3,15.8
						c0.8-5.9,1.7-11.8,2.5-17.6c0.2-1.3-0.9-2.6-2.5-2.8c-1.6-0.2-3,0.7-3.2,2.1c-1,7.1-2,14.2-2.9,21.3
						c-10.6,5.2-20.9,10.6-31.2,16.1c1.3-11.8,2.5-23.5,3.8-35.3c0.1-1.3-1-2.5-2.6-2.7c-1.6-0.1-3,0.8-3.1,2.2c-1.4,13-2.7,26-4,39
						c-10.2,5.6-20.1,11.3-30,17.2c1.2-16.3,2.4-32.5,3.6-48.8c0.1-1.3-1.1-2.5-2.6-2.6c-1.6-0.1-2.9,0.9-3,2.3
						c-1.2,17.5-2.4,35-3.6,52.5c-9.8,5.9-19.3,12-28.7,18.2c0.5-14.6,1.1-29.3,1.7-43.9c-1.8,1.6-3.7,3.1-5.7,4.5
						c-0.5,14.3-1,28.6-1.4,43c-9.3,6.2-18.5,12.6-27.5,19.1c0-17.4,0.1-34.7,0.2-52.1c-1.8,0.1-3.6,0.1-5.4,0.1
						c0,18.6,0,37.1,0.1,55.7c-8.9,6.5-17.6,13.2-26.2,20c-0.6-16.3-1.1-32.6-1.6-48.9c0-1.3-1.3-2.4-2.7-2.3
						c-1.5,0.1-2.6,1.2-2.6,2.5c0.6,17.5,1.3,35.1,2,52.6c-8.5,6.8-16.8,13.8-24.9,20.8c-0.4-5.9-0.8-11.8-1.2-17.8
						c-0.1-1.3-1.3-2.3-2.7-2.2c-1.4,0.1-2.4,1.3-2.3,2.6c0.3,3.6,0.5,7.1,0.8,10.7c0.1,0.3,0.3,0.6,0.4,0.8c1.7,3.9,3.6,8,5.9,11.7
						c3.1-2.7,6.3-5.5,9.5-8.2c7.1,1.5,14.2,3,21.2,4.7c1.3,0.3,2.6-0.5,2.9-1.8c0.3-1.3-0.5-2.6-1.8-2.9
						c-5.8-1.4-11.7-2.7-17.6-3.9c8.3-6.9,16.7-13.7,25.4-20.4c14,3.3,27.8,6.9,41.4,10.9c0.8-1.5,1.6-3,2.5-4.3
						c-12.8-3.7-25.8-7.2-39-10.3c8.7-6.6,17.6-13.2,26.7-19.6c15.6,4.2,31,8.7,46.2,13.6c6-0.2,12.2,0.4,18,1.4
						c0.2,0,0.3,0.1,0.5,0.1c-0.3-0.4-0.7-0.7-1.2-0.8c-19.1-6.5-38.5-12.5-58.3-17.9c9.1-6.3,18.4-12.6,27.9-18.7
						c21.3,6.3,42.1,13.3,62.5,20.9c1.3,0.5,2.8-0.1,3.4-1.4c0.5-1.2-0.1-2.7-1.5-3.2c-19.3-7.2-38.9-13.9-58.9-19.9
						c9.6-6,19.3-11.9,29.2-17.7c18.3,6,36.3,12.5,54,19.5c1.4,0.5,2.9,0,3.5-1.3c0.6-1.2-0.1-2.7-1.4-3.2
						c-16.5-6.5-33.3-12.6-50.3-18.3c10-5.7,20.1-11.2,30.4-16.6c13.8,5,27.4,10.2,40.8,15.7c1.4,0.6,3,0,3.6-1.2
						c0.6-1.2,0-2.7-1.4-3.2c-12.2-5-24.5-9.8-37-14.3c10.4-5.3,20.9-10.5,31.6-15.5C862.7,344.2,870.3,347.3,877.8,350.5z"/>
				</g>
				<g>
					<linearGradient id="SVGID_9_" gradientUnits="userSpaceOnUse" x1="558.6335" y1="231.272" x2="664.9811" y2="358.0122">
						<stop  offset="0" style="stop-color:#8C00F5"/>
						<stop  offset="1" style="stop-color:#5F51F4"/>
					</linearGradient>
					<path class="st14" d="M489.2,372.9c-1.3-11.8,0.6-24.3,7.7-33.8c12.7-16.9,37.4-19.4,53-33.5c15.5-14,19.3-36.4,23.3-57
						c4-20.5,10.9-43,29.2-53.2c9.8-5.5,21.5-6.4,32.2-9.6c18.7-5.6,34.7-19,44.2-36c4.4-7.9,16.3-6.2,18.2,2.6
						c0.9,4.3,1.7,8.6,2.8,12.6c4.2,14.5,16.2,27.5,13.8,42.4c-2.3,14.4-17.1,23.5-22,37.2c-4.9,13.7,0.9,28.6,2,43.1
						c0.4,5.2,0.2,10.5-1.7,15.4c-1.7,4.3-4.6,8.1-7.9,11.3c-12.5,11.8-30.4,15.4-46.7,20.8c-16.3,5.4-33.6,15-38,31.6
						c-3.9,14.8,3.5,31.5-3,45.3c-4.5,9.5-14.3,15-23.5,19.9c-7,3.7-14.4,7.5-22.3,7.2c-9.3-0.4-17.3-6.5-24.6-12.3
						c-8.3-6.6-21.7-13.7-27.8-22.3C492.7,396.9,490.1,382.1,489.2,372.9z"/>
					<path class="st12" d="M685.2,211.2c1.5-0.1,2.7-1.3,2.8-2.7c0-1.4-1.2-2.4-2.8-2.2c-6.8,0.6-13.5,1.2-20.3,1.9
						c4.2-5.5,8.5-10.9,12.8-16.3c0.9-1.2,0.7-2.7-0.5-3.4c-1.2-0.7-3-0.3-3.9,0.8c-7.9,9.9-15.6,19.9-23.1,29.9
						c-2-5.6-4-11.2-5.9-16.8c-0.5-1.3-2-1.8-3.5-1.3c-1.5,0.6-2.3,2-1.9,3.3c2.4,6.8,4.9,13.5,7.3,20.2
						c-6.9,9.5-13.6,19.1-20.1,28.7c-4.4-11-8.7-22-13-33c-0.5-1.3-2.1-1.8-3.5-1.2c-1.5,0.6-2.2,2.1-1.7,3.3
						c4.8,12.1,9.7,24.3,14.6,36.4c-6.4,9.6-12.6,19.4-18.6,29.1c-6.5-14.9-13-29.9-19.5-44.9c-0.5-1.2-2.1-1.7-3.5-1.1
						c-1.4,0.6-2.1,2.2-1.6,3.4c7,16.1,14.1,32.1,21.2,48.2c-5.9,9.8-11.6,19.6-17,29.4c-6.3-13.2-12.6-26.4-18.9-39.6
						c-0.9,2.3-1.9,4.5-2.9,6.6c6.2,12.9,12.4,25.8,18.7,38.7c-5.4,9.9-10.5,19.8-15.5,29.7c-8-15.4-16.1-30.8-24-46.2
						c-1.6,0.9-3.1,1.8-4.8,2.6c8.6,16.5,17.3,32.9,26,49.3c-4.9,9.9-9.5,19.9-13.9,29.9c-8.1-14.2-16.1-28.4-24.1-42.6
						c-0.7-1.2-2.2-1.5-3.5-0.8c-1.3,0.7-1.8,2.3-1.1,3.4c8.7,15.2,17.4,30.5,26.2,45.6c-4.3,10-8.5,20-12.4,30
						c-3.1-5.1-6.2-10.1-9.3-15.2c-0.7-1.1-2.2-1.5-3.4-0.7c-1.2,0.7-1.6,2.3-0.9,3.4c1.9,3,3.8,6.1,5.7,9.1
						c0.2,0.2,0.5,0.4,0.7,0.6c3.4,2.7,6.9,5.4,10.6,7.6c1.5-3.9,3-7.8,4.6-11.6c7-2,14-3.9,21-5.7c1.3-0.3,2.1-1.7,1.8-3
						c-0.3-1.3-1.6-2.1-3-1.7c-5.8,1.5-11.6,3.1-17.4,4.7c4.1-10,8.4-19.9,13-29.9c13.9-3.6,27.9-6.8,41.8-9.6c0-1.7,0.1-3.4,0.2-5
						c-13.1,2.7-26.2,5.6-39.3,8.9c4.6-9.9,9.5-19.8,14.5-29.7c15.8-3.6,31.5-6.7,47.3-9.4c5.3-2.9,11-5.3,16.5-7.1
						c0.1,0,0.3-0.1,0.4-0.1c-0.4-0.2-0.9-0.3-1.4-0.2c-19.9,3.1-39.9,6.8-59.9,11.2c5.1-9.9,10.5-19.7,16.1-29.5
						c21.8-4.3,43.5-7.8,65.1-10.5c1.4-0.2,2.5-1.4,2.3-2.8c-0.1-1.3-1.3-2.3-2.8-2.1c-20.4,2.6-40.9,5.8-61.4,9.7
						c5.7-9.8,11.5-19.5,17.6-29.2c19-3.2,37.9-5.8,56.8-7.8c1.4-0.2,2.6-1.4,2.5-2.7c-0.1-1.3-1.3-2.3-2.8-2.2
						c-17.6,1.9-35.3,4.3-53,7.2c6.2-9.7,12.6-19.3,19.2-28.8c14.5-2,29-3.7,43.4-5.1c1.5-0.1,2.7-1.4,2.6-2.7
						c0-1.4-1.3-2.3-2.7-2.2c-13.1,1.2-26.3,2.7-39.5,4.5c6.7-9.5,13.6-19,20.7-28.4C668.9,212.7,677.1,211.9,685.2,211.2z"/>
				</g>
				<g>
					<g>
						<g>
							<path class="st15" d="M574,520.6h-27.6V513H574c5.2,0,10-2.3,13.3-6.3c3.3-4,4.5-9.3,3.4-14.3l-17.1-78.9l7.4-1.6l17.1,78.9
								c1.6,7.3-0.2,14.9-4.9,20.7C588.5,517.2,581.5,520.6,574,520.6z"/>
						</g>
						<polygon class="st15" points="581,411.8 595.2,497.7 585.1,516.8 653.8,516.8 664.6,513 671.5,501.8 671.5,488.3 655.5,417.7 
													"/>
						<rect x="546.4" y="513" class="st15" width="77.5" height="7.6"/>
						<rect x="546.4" y="513" class="st12" width="77.5" height="7.6"/>
						<g>
							<path class="st15" d="M651.5,520.6h-27.6V513h27.6c5.2,0,10-2.3,13.3-6.3c3.3-4,4.5-9.3,3.4-14.3l-17.1-78.9l7.4-1.6
								l17.1,78.9c1.6,7.3-0.2,14.9-4.9,20.7C666,517.2,659,520.6,651.5,520.6z"/>
						</g>
						<g class="st1">
							<path d="M651.5,520.6h-27.6V513h27.6c5.2,0,10-2.3,13.3-6.3c3.3-4,4.5-9.3,3.4-14.3l-17.1-78.9l7.4-1.6l17.1,78.9
								c1.6,7.3-0.2,14.9-4.9,20.7C666,517.2,659,520.6,651.5,520.6z"/>
						</g>
					</g>
					<path class="st12" d="M668.9,459.5c-12.3-8-25.6-14.7-39.9-17.9c-15.4-3.4-32.1-2.4-46,5c-0.7,0.4-1.3,0.7-2,1.1l8.6,39.6
						c5.8,0.5,11.6,1.1,17.4,1.7c8.2,0.9,16.3,1.9,24.3,3.9c5.1,1.3,10.2,3,15.1,4.9c8.8,3.3,17.4,7.2,25.8,11.6
						c3.6-5.5,4.8-12.2,3.4-18.7L668.9,459.5z"/>
					<g>
						<path class="st15" d="M762.7,466.2h-301c-6.5,0-11.7-5.2-11.7-11.7V255c0-6.5,5.2-11.7,11.7-11.7h301
							c6.5,0,11.7,5.2,11.7,11.7v199.6C774.4,461,769.2,466.2,762.7,466.2z"/>
						<path class="st1" d="M762.7,466.2h-301c-6.5,0-11.7-5.2-11.7-11.7V255c0-6.5,5.2-11.7,11.7-11.7h301c6.5,0,11.7,5.2,11.7,11.7
							v199.6C774.4,461,769.2,466.2,762.7,466.2z"/>
						<path class="st15" d="M757.3,466.2h-301c-6.5,0-11.7-5.2-11.7-11.7V255c0-6.5,5.2-11.7,11.7-11.7h301
							c6.5,0,11.7,5.2,11.7,11.7v199.6C769,461,763.8,466.2,757.3,466.2z"/>
						<path class="st16" d="M444.7,255v182.8H769V255c0-6.5-5.2-11.7-11.7-11.7h-301C449.9,243.3,444.7,248.5,444.7,255z"/>
						<rect x="456.7" y="257.3" class="st17" width="300.2" height="168.9"/>
					</g>
					<path class="st12" d="M612.2,451c0,3-2.4,5.4-5.4,5.4c-3,0-5.4-2.4-5.4-5.4c0-3,2.4-5.4,5.4-5.4
						C609.8,445.6,612.2,448,612.2,451z"/>
					<g>
						<rect x="468.1" y="272.8" class="st17" width="138.1" height="138.1"/>
						<path class="st17" d="M740.2,282.3H623.4c-2.6,0-4.8-2.1-4.8-4.8l0,0c0-2.6,2.1-4.8,4.8-4.8h116.8c2.6,0,4.8,2.1,4.8,4.8l0,0
							C745,280.2,742.8,282.3,740.2,282.3z"/>
						<path class="st17" d="M740.2,303.7H623.4c-2.6,0-4.8-2.1-4.8-4.8l0,0c0-2.6,2.1-4.8,4.8-4.8h116.8c2.6,0,4.8,2.1,4.8,4.8l0,0
							C745,301.6,742.8,303.7,740.2,303.7z"/>
						<path class="st17" d="M740.2,325.1H623.4c-2.6,0-4.8-2.1-4.8-4.8l0,0c0-2.6,2.1-4.8,4.8-4.8h116.8c2.6,0,4.8,2.1,4.8,4.8l0,0
							C745,323,742.8,325.1,740.2,325.1z"/>
						<path class="st17" d="M740.2,346.5H623.4c-2.6,0-4.8-2.1-4.8-4.8l0,0c0-2.6,2.1-4.8,4.8-4.8h116.8c2.6,0,4.8,2.1,4.8,4.8l0,0
							C745,344.4,742.8,346.5,740.2,346.5z"/>
						<path class="st17" d="M740.2,368H623.4c-2.6,0-4.8-2.1-4.8-4.8l0,0c0-2.6,2.1-4.8,4.8-4.8h116.8c2.6,0,4.8,2.1,4.8,4.8l0,0
							C745,365.8,742.8,368,740.2,368z"/>
						<path class="st17" d="M740.2,389.4H623.4c-2.6,0-4.8-2.1-4.8-4.8l0,0c0-2.6,2.1-4.8,4.8-4.8h116.8c2.6,0,4.8,2.1,4.8,4.8l0,0
							C745,387.3,742.8,389.4,740.2,389.4z"/>
						<path class="st17" d="M740.2,410.8H623.4c-2.6,0-4.8-2.1-4.8-4.8l0,0c0-2.6,2.1-4.8,4.8-4.8h116.8c2.6,0,4.8,2.1,4.8,4.8l0,0
							C745,408.7,742.8,410.8,740.2,410.8z"/>
					</g>
				</g>
				<g>
					<g>
						<path class="st18" d="M886.3,487.1H750.9v-4.7h135.4c7.6,0,13.8-6.2,13.8-13.8c0-7.6-6.2-13.8-13.8-13.8H750.9V450h135.4
							c10.2,0,18.6,8.3,18.6,18.6C904.8,478.8,896.5,487.1,886.3,487.1z"/>
					</g>
					<path class="st19" d="M900.1,468.5c0-7.6-6.2-13.8-13.8-13.8H758.5v27.6h127.8C893.9,482.4,900.1,476.2,900.1,468.5z"/>
					<path class="st12" d="M899.1,473.7c0.6-1.6,1-3.3,1-5.1c0-7.6-6.2-13.8-13.8-13.8H758.5V465h127.8
						C892.1,465,897.1,468.6,899.1,473.7z"/>
				</g>
				<g>
					<g>
						<path class="st20" d="M863.2,450H727.7v-4.7h135.4c7.6,0,13.8-6.2,13.8-13.8c0-7.6-6.2-13.8-13.8-13.8H727.7v-4.7h135.4
							c10.2,0,18.6,8.3,18.6,18.6C881.7,441.7,873.4,450,863.2,450z"/>
					</g>
					<path class="st19" d="M877,431.4c0-7.6-6.2-13.8-13.8-13.8H735.4v27.6h127.8C870.8,445.2,877,439,877,431.4z"/>
					<path class="st12" d="M876,436.6c0.6-1.6,1-3.3,1-5.1c0-7.6-6.2-13.8-13.8-13.8H735.4v10.3h127.8
						C869,427.9,873.9,431.5,876,436.6z"/>
				</g>
				<g>
					<path class="st21" d="M876.9,487.1H690.6c-2.7,0-4.8,2.1-4.8,4.8v23.9c0,2.7,2.1,4.8,4.8,4.8h186.3c2.7,0,4.8-2.1,4.8-4.8
						v-23.9C881.7,489.2,879.6,487.1,876.9,487.1z"/>
					<rect x="705.1" y="493.9" class="st21" width="157.4" height="19.9"/>
				</g>
				<g>
					<path class="st22" d="M413.2,494.9l-8.5,1.4L391.8,420c-0.4-2.4,1.2-4.6,3.6-5l0,0c2.4-0.4,4.6,1.2,5,3.6L413.2,494.9z"/>
					<path class="st21" d="M418.8,486.9l-8.6-1.1l10.1-76.8c0.3-2.4,2.5-4,4.9-3.7l0,0c2.4,0.3,4,2.5,3.7,4.9L418.8,486.9z"/>
					<path class="st20" d="M421.2,501.1l-8.2-2.8l25.2-73.2c0.8-2.3,3.2-3.5,5.5-2.7l0,0c2.3,0.8,3.5,3.2,2.7,5.5L421.2,501.1z"/>
					<polygon class="st19" points="456.1,442.6 386.9,442.6 391.6,520.6 451.4,520.6 					"/>
					<polygon class="st12" points="387.4,450.7 454.5,468.2 456.1,442.6 386.9,442.6 					"/>
					<path class="st19" d="M456.2,442.6h-69.3c-2.2,0-3.9,1.8-3.9,3.9l0,0c0,2.2,1.8,3.9,3.9,3.9h69.3c2.2,0,3.9-1.8,3.9-3.9l0,0
						C460.1,444.4,458.3,442.6,456.2,442.6z"/>
				</g>
				<path class="st23" d="M559.6,333.1l-33.8-19.5c-7.4-4.3-16.6,1.1-16.6,9.6v39c0,8.5,9.2,13.8,16.6,9.6l33.8-19.5
					C566.9,348,566.9,337.4,559.6,333.1z"/>
			</g>
			<g>
				<linearGradient id="SVGID_10_" gradientUnits="userSpaceOnUse" x1="475.2129" y1="93.7002" x2="555.9934" y2="93.7002">
					<stop  offset="0" style="stop-color:#4D80D9"/>
					<stop  offset="1" style="stop-color:#4DD9CF"/>
				</linearGradient>
				<circle class="st24" cx="515.6" cy="93.7" r="40.4"/>
				<g>
					<rect x="494" y="65.2" class="st19" width="43.2" height="56.9"/>
					<g>
						<path class="st25" d="M523.6,99.5L523.6,99.5c0.2,0.6,1,0.8,1.5,0.3l0,0c0.6-0.6,1.6-0.1,1.5,0.7l0,0c0,0.6,0.6,1.1,1.2,0.9
							l0,0c0.8-0.2,1.5,0.6,1.1,1.3l0,0c-0.3,0.6,0,1.3,0.7,1.3l0,0c0.8,0.1,1.1,1.2,0.4,1.6l0,0c-0.5,0.4-0.5,1.1,0,1.5l0,0
							c0.7,0.5,0.4,1.5-0.4,1.6l0,0c-0.6,0.1-1,0.8-0.7,1.3v0c0.4,0.7-0.3,1.6-1.1,1.3l0,0c-0.6-0.2-1.2,0.3-1.2,0.9l0,0
							c0.1,0.8-0.9,1.3-1.5,0.7l0,0c-0.5-0.4-1.2-0.3-1.5,0.3l0,0c-0.3,0.8-1.4,0.8-1.7,0l0,0c-0.2-0.6-1-0.8-1.5-0.3l0,0
							c-0.6,0.6-1.6,0.1-1.5-0.7l0,0c0-0.6-0.6-1.1-1.2-0.9l0,0c-0.8,0.2-1.5-0.6-1.1-1.3v0c0.3-0.6,0-1.3-0.7-1.3l0,0
							c-0.8-0.1-1.1-1.2-0.4-1.6l0,0c0.5-0.4,0.5-1.1,0-1.5l0,0c-0.7-0.5-0.4-1.5,0.4-1.6l0,0c0.6-0.1,1-0.8,0.7-1.3l0,0
							c-0.4-0.7,0.3-1.6,1.1-1.3l0,0c0.6,0.2,1.2-0.3,1.2-0.9l0,0c-0.1-0.8,0.9-1.3,1.5-0.7l0,0c0.5,0.4,1.2,0.3,1.5-0.3l0,0
							C522.2,98.7,523.3,98.7,523.6,99.5z"/>
						<path class="st25" d="M527.8,106.6c0,2.8-2.3,5.1-5.1,5.1c-2.8,0-5.1-2.3-5.1-5.1c0-2.8,2.3-5.1,5.1-5.1
							C525.5,101.5,527.8,103.8,527.8,106.6z"/>
					</g>
					<rect x="498.9" y="69.7" class="st12" width="34.2" height="1.5"/>
					<rect x="498.9" y="73.3" class="st12" width="34.2" height="1.5"/>
					<rect x="498.9" y="76.9" class="st12" width="34.2" height="1.5"/>
					<rect x="498.9" y="80.6" class="st12" width="34.2" height="1.5"/>
					<rect x="498.9" y="84.2" class="st12" width="34.2" height="1.5"/>
					<rect x="498.9" y="87.8" class="st12" width="34.2" height="1.5"/>
					<rect x="498.9" y="91.5" class="st12" width="34.2" height="1.5"/>
					<rect x="498.9" y="95.1" class="st12" width="34.2" height="1.5"/>
					<rect x="498.9" y="98.7" class="st12" width="12.1" height="1.5"/>
					<rect x="498.9" y="102.4" class="st12" width="12.1" height="1.5"/>
					<rect x="498.9" y="106" class="st12" width="12.1" height="1.5"/>
					<rect x="498.9" y="109.6" class="st12" width="12.1" height="1.5"/>
					<rect x="498.9" y="113.3" class="st12" width="12.1" height="1.5"/>
				</g>
			</g>
			<g>
				<linearGradient id="SVGID_11_" gradientUnits="userSpaceOnUse" x1="757.9924" y1="182.2629" x2="851.4311" y2="182.2629">
					<stop  offset="0" style="stop-color:#8C00F5"/>
					<stop  offset="1" style="stop-color:#5F51F4"/>
				</linearGradient>
				<circle class="st26" cx="804.7" cy="182.3" r="46.7"/>
				<g>
					<path class="st27" d="M825.3,193.5L825.3,193.5c-12.2,5.4-26.1,5.4-38.3,0l0,0v-17h38.3V193.5z"/>
					<polygon class="st28" points="787.1,185.1 806.2,192 825.3,185.1 825.3,176.4 787.1,176.4 					"/>
					<polygon class="st27" points="845.3,177.8 806.2,187 767.1,177.8 806.2,168.6 					"/>
				</g>
				<g>
					<path class="st18" d="M784.6,205.6c-0.4,0-0.7-0.3-0.7-0.7v-23c0-0.3,0.2-0.6,0.6-0.7l21.6-4.1c0.4-0.1,0.7,0.2,0.8,0.5
						c0.1,0.4-0.2,0.7-0.5,0.8l-21.1,4v22.4C785.2,205.3,784.9,205.6,784.6,205.6z"/>
				</g>
				<circle class="st18" cx="784.6" cy="204.9" r="1.7"/>
			</g>
		</g>
		<g>
			<polygon class="st29" points="672.4,120.5 599.4,143.8 644.1,157.5 			"/>
			<polygon class="st29" points="615.9,148.9 615.9,165.8 630.8,153.4 			"/>
			<polygon class="st30" points="672.4,120.5 615.9,148.9 615.9,165.8 624.2,151.4 			"/>
			<polygon class="st12" points="615.9,165.8 624.2,151.4 630.8,153.4 			"/>
		</g>
		<g>
			<polygon class="st29" points="822.4,281.1 941.5,319.1 868.5,341.6 			"/>
			<polygon class="st29" points="914.5,327.4 914.5,355.1 890.3,334.9 			"/>
			<polygon class="st30" points="822.4,281.1 914.5,327.4 914.5,355.1 901,331.6 			"/>
			<polygon class="st12" points="914.5,355.1 901,331.6 890.3,334.9 			"/>
		</g>
		<g>
			<path class="st31" d="M699,460.2c-0.2,2.5-2.2,4.4-4.4,5.7s-4.6,2-6.6,3.4s-3.7,3.7-3.4,6.2c6.5-0.4,13-1.7,19-4.3
				c0.5-3.4,0.8-6.9,0.8-10.3C702.9,460.4,700.6,460,699,460.2z"/>
			<path class="st31" d="M721.3,460.4c0.4,2.1-0.9,4.2-2.4,5.8c-1.5,1.5-3.4,2.7-4.8,4.3c-1.4,1.6-2.3,4-1.5,6
				c5.4-1.8,10.6-4.4,15.1-7.8c-0.3-3-0.8-6-1.6-8.9C724.7,459.7,722.6,459.9,721.3,460.4z"/>
			<path class="st32" d="M761.2,319.8c-4.7,12.2-9.5,24.4-14.2,36.5c-2.2,5.8-4.5,11.7-8.6,16.4c-4,4.7-10.2,8-16.3,7.1
				c-1.2-0.2-2.3,0.8-2.3,2.1c-0.1,1.2,0.8,2.3,1.9,2.9c1.1,0.5,2.3,0.6,3.5,0.7c6,0.2,12-1.1,17.7-3c8.9-3.1,17.7-8.7,20.8-17.5
				c1.8-5.1,1.4-10.7,1-16.1C764,339.2,761.9,329.4,761.2,319.8z"/>
			<path class="st1" d="M761.2,319.8c-4.7,12.2-9.5,24.4-14.2,36.5c-2.2,5.8-4.5,11.7-8.6,16.4c-4,4.7-10.2,8-16.3,7.1
				c-1.2-0.2-2.3,0.8-2.3,2.1c-0.1,1.2,0.8,2.3,1.9,2.9c1.1,0.5,2.3,0.6,3.5,0.7c6,0.2,12-1.1,17.7-3c8.9-3.1,17.7-8.7,20.8-17.5
				c1.8-5.1,1.4-10.7,1-16.1C764,339.2,761.9,329.4,761.2,319.8z"/>
			<path class="st33" d="M764.5,325.7c-4.2,0.2-8.5-2.1-10.4-5.9c-2.1-4-1.6-8.9-0.6-13.3c1.1-4.4,2.6-8.9,2.3-13.4
				c-0.2-2.4-0.8-4.9,0-7.2s3.9-3.9,5.6-2.2c0.4-3,3.4-6.1,6.3-7.1c2.8-1,6.2-0.2,8.4,1.9c2.5,2.5,3.2,6.4,5.6,9
				c3.2,3.5,8.9,4.1,11.4,8c1.9,3.1,1.2,7.1,0.3,10.6c-1,3.5-2.1,7.3-0.9,10.7c1.5,4.2,6.2,6.6,8.3,10.5c2,3.7,1.6,8.4-0.2,12.2
				c-1.8,3.8-4.7,7-7.7,9.9c-2.5,2.5-5.5,5.1-9.1,5.1c-2.1,0-4.1-0.9-5.9-2c-4.4-2.6-8.1-6.3-10.5-10.8
				C764.9,337.4,763.4,330.6,764.5,325.7z"/>
			<path class="st0" d="M713.2,428.8c1.4,11.7,4.9,22.9,7.1,34.4l7.2-0.7c-2.8-18.6,5.9-37.4,3.7-56.1c2.9-0.5,5.7-1.1,8.5-1.6
				c-7.1-3.6-15.5-4-23.6-4C712.6,409.4,712.1,419.4,713.2,428.8z"/>
			<path class="st1" d="M713.2,428.8c1.4,11.7,4.9,22.9,7.1,34.4l7.2-0.7c-2.8-18.6,5.9-37.4,3.7-56.1c2.9-0.5,5.7-1.1,8.5-1.6
				c-7.1-3.6-15.5-4-23.6-4C712.6,409.4,712.1,419.4,713.2,428.8z"/>
			<path class="st0" d="M779.9,380.8c-11.3,2-22.8,1.8-34.2,3.1c-11.4,1.3-23.1,4.5-31.5,12.2c-8.6,7.9-12.8,19.7-14.5,31.3
				c-1.6,11.6-1.1,23.4-1.9,35.1l7.2,1.1c2.1-18.7,15.3-34.7,17.9-53.3c9.5,0.7,18.7,1.2,28.2,1.9c6.1,0.4,12.3,0.9,18.3,0.1
				c6.1-0.8,12.1-2.8,16.8-6.7c4.7-4,7.8-10,7.2-16.1C792.7,383.3,785.9,379.7,779.9,380.8z"/>
			<path class="st1" d="M779.9,380.8c-8.3,1.5-16.7,1.7-25.1,2.3c-0.3,0.2-0.5,0.3-0.8,0.5c10.9,8.4,24.5,13.1,38.2,13.5
				c0.9-2.4,1.4-5.1,1.1-7.7C792.7,383.3,785.9,379.7,779.9,380.8z"/>
			<path class="st32" d="M776.2,309.2c-1.9-0.1-3.7-0.2-5.6-0.3c-9.5,4.9-14.4,17.3-15.8,27.9c-2,15.7-0.9,31.7,3.2,47
				c11.4,4.1,25.1,4.1,36.8,1c-5-15.7-4.1-32.7-3.8-49.2c0.1-5.8,0.1-11.7-2.2-17C786.6,313.2,781.9,309.5,776.2,309.2z"/>
			<path class="st1" d="M769.1,333.9c-0.3,0.5-0.6,1.1-1,1.6c-0.1,0.1-0.2,0.3-0.3,0.4c-1.1,4.1-2,8.2-3,11.5
				c-0.6,1.8-1.7,2.8-3,3.2c0,0.8,0,1.5-0.1,2.3c-0.2,7.8-1,15.8-4.3,22.9c-0.3,0.6-0.6,1.2-0.9,1.7c0.4,2.1,0.9,4.1,1.5,6.2
				c2.8,1,5.6,1.7,8.6,2.3c4.3-4.7,7.4-10.4,9.4-16.5c2.5-7.5,3.5-15.5,4.2-23.4c0.7-8,0.7-17.3-2.3-24.9
				C775.3,325.6,771.9,329.6,769.1,333.9z"/>
			<g>
				<path class="st19" d="M751.3,388.4h-41.8v-3.7h44.5v1.1C753.9,387.2,752.7,388.4,751.3,388.4z"/>
				<polygon class="st19" points="725.9,388.4 709.2,388.4 693,355.1 709.6,355.1 				"/>
			</g>
			<path class="st34" d="M733.4,382.1c-1-0.3-2-0.8-2.9-1.2c-1-0.4-2-0.7-3.1-0.6c-1,0.1-2.1,0.8-2.4,1.8c-0.2,0.7-0.6,1.5-0.1,2
				c0.5,0.5,1.1,0.8,1.8,0.9c1.9,0.5,3.9,0.6,5.8,0.4C732.6,384.6,733.2,382.8,733.4,382.1z"/>
			<path class="st32" d="M781.8,317c-3-1.2-6.5-0.2-9.1,1.8c-2.5,2-4.2,4.9-5.5,7.8c-3.2,7.1-4.6,14.9-6.4,22.5
				c-1.8,7.6-4.1,15.3-8.8,21.6c-4.7,6.3-12.2,10.9-20,10.3c-1,1.6-1.6,3.6-1,5.4c7.3,3,17,2.4,24-1.3s12.5-9.9,16.4-16.8
				c4-6.9,6.5-14.5,8.7-22.1C782.9,337,785,325.9,781.8,317z"/>
			<path class="st34" d="M765.4,305c1.2,2.8,2,5.7,2.3,8.7c2.5-0.9,5.3-2.1,7.7-3c0-3.5-0.9-6.9-2-10.3
				C769.9,300.6,767.9,302.7,765.4,305z"/>
			<path class="st1" d="M775,306.6c-0.4-2.1-1-4.1-1.6-6.1c-3.5,0.1-5.5,2.2-8,4.6c1,2.3,1.7,4.7,2.1,7.2
				C770.2,310.7,772.8,308.8,775,306.6z"/>
			<path class="st34" d="M760.2,292.4c-0.5,6.3,0.8,12.7,3.6,18.4c4.1,0.1,9-1.6,11.6-4.7c2.7-3.1,3.8-7.5,3.1-11.5
				c-0.5-3-2.1-5.8-4.6-7.6c-2.5-1.8-5.8-2.3-8.6-1.2C762.6,287,760.4,289.4,760.2,292.4z"/>
			<path class="st33" d="M758.6,297c1.5-1.2,2.7-2.7,3.4-4.5c0.1,1.5,1.3,2.8,2.8,3.3c1.4,0.4,3.1,0.1,4.3,1
				c0.9,0.7,1.2,1.8,1.4,2.9c0.3,1.7,0.4,3.5,1,5.2c0.5,1.7,1.5,3.3,3.1,4.1c1.2,0.6,2.6,0.6,3.9,0.3c1.3-0.3,2.5-1,3.6-1.7
				c0.3-3.1,0.3-6.3,0.1-9.4c-0.2-3.1-0.9-6.1-2.5-8.8c-1.6-2.6-4.1-4.8-7.1-5.5c-2.4-0.6-4.9-0.2-7.2,0.6c-2.3,0.7-4.5,2-5.7,4
				c-0.9,1.4-1.3,3.1-1.3,4.8C758.2,294.4,758.3,295.7,758.6,297z"/>
		</g>
		<g>
			<path class="st35" d="M511.4,303.7c5.7,6.1,15.2,8.3,23.1,5.4c2.5-0.9,4.9-2.5,6.3-4.7c1.4-2.3,1.6-5.4-0.1-7.6
				c-1.9-2.5-5.5-2.8-8.6-2.5c-3.1,0.3-6.4,0.9-9.3-0.3c-3.7-1.6-5.7-5.8-9.4-7.3c-2.3-0.9-5-0.6-7.3,0.3s-4.3,2.4-6.3,3.9
				c-1.8-0.3-3.6,0.4-4.6,1.9c-1,1.5-1.3,3.4-1.4,5.2c-0.2,7.1,3.3,14.2,9.1,18.2C503.7,311.3,506.8,305.5,511.4,303.7z"/>
			<path class="st36" d="M551.2,344.7c0.7-1.9,2-3.6,3.6-4.8c0.7-0.5,1.4-0.9,2.3-1c0.8-0.1,1.8,0.2,2.3,0.8
				c0.9-0.1,2.2,0.5,2.5,1.4c0.3,0.9,0.1,1.9-0.3,2.8c-0.7,1.5-2.1,2.6-3.6,3.2c-1.5,0.6-3.2,0.9-4.8,1.1
				C552.4,346.7,552,346,551.2,344.7z"/>
			<path class="st36" d="M534.5,378.9c0.5-1.8,2.3-3.2,4.2-3.3c0.2-0.9,0.4-1.8,1.1-2.5c0.7-0.6,1.6-1,2.6-0.9
				c0.9,0.1,1.8,0.9,1.9,1.8c0.1,0.8-0.3,1.5-0.7,2.2c-1.7,2.7-4.6,4.7-7.8,5.3C534.8,381,534.8,380,534.5,378.9z"/>
			<path class="st0" d="M509.2,325c0.4,9.4,6.6,18.4,15.2,22.1c8.7,3.7,19.4,2.1,26.5-4c1.5,1.4,2.8,3.4,2.9,5.4
				c-13.1,9.7-31.5,12.3-46.6,6.3c-2-5-4.6-10.9-4.9-16.3S505,328.3,509.2,325z"/>
			<path class="st1" d="M509.2,325c0.4,9.4,6.6,18.4,15.2,22.1c8.7,3.7,19.4,2.1,26.5-4c1.5,1.4,2.8,3.4,2.9,5.4
				c-13.1,9.7-31.5,12.3-46.6,6.3c-2-5-4.6-10.9-4.9-16.3S505,328.3,509.2,325z"/>
			<path class="st37" d="M512.4,511.5c-0.3,2.1,0.6,4.3,2.3,5.5c1.3,0.9,2.9,1.3,4.3,2.1s2.4,2.6,1.7,4h-15.2
				c-0.3-3.7-0.1-7.6,0.6-11.3C508.1,511.6,510.5,511.8,512.4,511.5z"/>
			<path class="st37" d="M489.9,511.5c-0.3,2.1,0.6,4.3,2.3,5.5c1.3,0.9,2.9,1.3,4.3,2.1s2.4,2.6,1.7,4H483
				c-0.3-3.7-0.1-7.6,0.6-11.3C485.5,511.6,487.9,511.8,489.9,511.5z"/>
			<path class="st38" d="M512.9,371.1c0.2,3.9,0.5,7.7,0.7,11.6V515h-8.8c-8-30.9-13.1-98.2-13.5-130.1c-0.1-4.1,2.7-8,6.1-10.3
				C500.7,372.3,509.1,372.4,512.9,371.1z"/>
			<path class="st1" d="M512.9,371.1c0.2,3.9,0.5,7.7,0.7,11.6V515h-8.8c-8-30.9-13.1-98.2-13.5-130.1c-0.1-4.1,2.7-8,6.1-10.3
				C500.7,372.3,509.1,372.4,512.9,371.1z"/>
			<path class="st38" d="M513,377c-1.4,35.2-13.7,104.6-21.2,139h-10c0.9-17.6,3.9-36.4-0.3-53.5c-4.2-17.1-7.6-69.4-3.5-86.5
				C487.2,383,502.8,382.4,513,377z"/>
			<path class="st1" d="M512.7,381.6c-2.1-0.7-4.2-1.4-6.3-2c-9.5,2.7-21.1,2-28.4-3.5c-1.8,7.4-2.1,14.9-1.7,22.4
				c12.1,2.3,25-0.3,35.4-7C512.2,388.2,512.5,384.9,512.7,381.6z"/>
			<path class="st0" d="M517.5,389.4c0.6-20.2-1.1-40.6-5.1-60.4c-1.4-6.8-4.3-14.8-11.1-16c-5.3-0.9-10.2,2.9-13.6,6.9
				c-14.9,17.5-16.8,42.4-16.2,65.3C485,394.8,502.2,395.5,517.5,389.4z"/>
			<path class="st1" d="M508.7,379.4c-3.9-3.8-5.1-9.6-4.6-15.1s2.4-10.6,3.9-15.8c1.5-5.2,2.5-10.8,1.2-16.1
				c-1.3-5.3-8.9-9.4-14.3-9.9c-4.6,9.8-8.1,20.4-8.2,31.2c-0.1,10.8,3.6,22,11.6,29.4c4.3,4,10,6.6,15.8,7.4
				c1.1-0.4,2.3-0.8,3.4-1.2c0.1-2,0.1-4,0.1-6C514.3,382.9,511.1,381.7,508.7,379.4z"/>
			<path class="st0" d="M492.9,322c-3,10.4-4.7,21.4-3,32.1c1.7,10.7,7.2,21.1,16.2,27.1c9,6,21.8,6.7,30.5,0.3
				c-0.5-1.5-0.8-3.5-1.3-5c-6.3,1.8-14.1,3.1-19.5-0.7c-4.5-3.1-6.6-8.7-7-14.1c-0.4-5.4,0.7-10.8,1.3-16.2c0.6-5.4,0.7-11-1.4-16
				S498.4,321.7,492.9,322z"/>
			<path class="st36" d="M501.9,306.5c0,0,0-0.1,0.1-0.1c-1.2,3.6-2.4,7.1-3.6,10.7c1.4,1.8,3.8,2.6,6.1,2.5
				c1.5-2.9,1.8-5.6,2.5-8.8C507.4,308.5,503.9,307.5,501.9,306.5z"/>
			<g class="st1">
				<path d="M501.9,306.5C501.9,306.5,501.9,306.5,501.9,306.5c0,0,0-0.1,0.1-0.1C501.9,306.4,501.9,306.4,501.9,306.5z"/>
				<path d="M501.9,306.5c-0.7,2.2-1.5,4.4-2.2,6.6c0.5,1.3,1.1,2.5,1.8,3.7c0.6,1,1.3,2,2.1,2.8c0.3,0,0.5,0,0.8,0
					c1.5-2.9,1.8-5.6,2.5-8.8C507.4,308.5,504,307.5,501.9,306.5z"/>
			</g>
			<path class="st36" d="M517.1,297.5c-1.2,7-4.1,13.6-8.5,19.2c-4.9-1.1-9.5-4.9-10.6-9.8c-1.2-4.9,1-10.5,5.3-13.1
				C507.5,291.1,513.8,293.7,517.1,297.5z"/>
			<path class="st35" d="M517,305.8c-3.4-1.1-6.7-2.8-9.5-5.1c-1.3,0.8-2.4,1.7-3.6,2.5c0.2-0.7,0-1.4,0-2.1
				c-0.1-0.7-0.5-1.4-1.2-1.5c-1-0.2-1.8,0.9-2.1,1.9c-0.5,1.8-0.5,3.7,0.1,5.4c-0.7,1.4-0.9,3.4-1,5c-4-3.9-4.4-11.2-1.1-15.7
				c3.3-4.5,9.9-6.2,15-4c2.6,1.1,4.8,3.1,5.7,5.7C520.2,300.5,519.2,304,517,305.8z"/>
		</g>
	</g>
</g>
<g id="DESIGNED_BY_FREEPIK">
</g>
</svg>
