<?xml version="1.0" encoding="utf-8"?>
<!-- Generator: Adobe Illustrator 25.2.1, SVG Export Plug-In . SVG Version: 6.00 Build 0)  -->
<svg version="1.1" id="Layer_1" xmlns="http://www.w3.org/2000/svg" xmlns:xlink="http://www.w3.org/1999/xlink" x="0px" y="0px"
	 viewBox="0 0 450 450" style="enable-background:new 0 0 450 450;" xml:space="preserve">
<style type="text/css">
	.st0{fill:#3F90A8;}
	.st1{fill:#F4F1E5;}
	.st2{fill:#F8DCC2;}
	.st3{fill:#EC925D;}
	.st4{fill:#A64C49;}
	.st5{fill:#666666;}
	.st6{fill:#29ABE2;}
	.st7{fill:#3B5765;}
	.st8{opacity:0.28;fill:#3B5765;}
	.st9{opacity:0.4;fill:#EC925D;}
	.st10{fill:#F8C650;}
	.st11{fill:#FCC7A9;}
	.st12{opacity:0.43;fill:#EC925D;}
	.st13{opacity:0.51;fill:#F8C650;}
	.st14{opacity:0.39;fill:#FCC7A9;}
	.st15{opacity:0.55;fill:#F8C650;}
	.st16{opacity:0.69;fill:#F8C650;}
	.st17{opacity:0.14;fill:#F8C650;}
	.st18{fill:#ABE3EF;}
	.st19{opacity:0.54;fill:#ABE3EF;}
	.st20{opacity:0.45;fill:#ABE3EF;}
	.st21{fill:#1B262B;}
	.st22{opacity:0.28;fill:#1B262B;}
	.st23{fill:#474747;}
	.st24{opacity:0.43;fill:#3B4063;}
	.st25{fill:#D8AA93;}
	.st26{fill:#381F00;}
	.st27{fill:#C9C9C9;}
	.st28{fill:#444444;}
	.st29{fill:#898989;}
	.st30{fill:#565656;}
	.st31{fill:#A5A5A5;}
</style>
<g>
	<g>
		<path class="st0" d="M692.3,567c0,0-18.8,15-1.2,33.7l84.6-24.9L692.3,567z"/>
		<polygon class="st0" points="980.3,573.9 831,619.6 691.1,600.7 700.3,597.8 841.9,552.4 842,552.4 908.5,566.3 973.5,573.2 		"/>
		<path class="st1" d="M978.8,546.9l-7.7,3.8l7.6-2.7l-0.1,2.2l-28.8,12.3l28.7-11.2l-0.4,11.3l-11.1,4.8l11-2.9l-0.3,7.1l-4.4,1.5
			l-142.1,43.1l-0.4-0.1l-130.8-18.4l-6.8-1c-3.6-8.8-2.9-18.1,1-27.8l147.4-16.6h0.1l130-7.8l6.9-0.8L978.8,546.9z"/>
		<polygon class="st2" points="694.4,569 847.6,535 978.9,543.8 834.3,587.8 		"/>
		<polygon class="st2" points="694.4,569 847.6,535 978.9,543.8 832.3,587.5 		"/>
		<path class="st0" d="M692.3,567L835,536.7c6.9-2.4,14.2-3.6,21.6-3.3l124.9,7.9l-149.3,44.5L692.3,567z"/>
		<polygon class="st2" points="980.3,573.9 831,619.6 831.1,616.2 832.2,585.8 908.5,566.3 972,544.6 978.9,543.8 978.8,546.9 
			971.1,550.7 978.7,548 978.7,550.2 949.9,562.5 978.6,551.3 978.2,562.6 967.2,567.4 978.2,564.5 977.9,571.6 973.5,573.2 		"/>
	</g>
	<g>
		<path class="st3" d="M685.4,527.5c0,0-18.8,15-1.2,33.7l84.6-24.9L685.4,527.5z"/>
		<polygon class="st3" points="973.4,534.4 824.1,580 684.2,561.2 693.4,558.3 835,512.9 835.1,512.9 901.6,526.8 966.6,533.6 		"/>
		<path class="st1" d="M971.9,507.4l-7.7,3.8l7.6-2.7l-0.1,2.2L943,523l28.7-11.2l-0.4,11.3l-11.1,4.8l11-2.9l-0.3,7.1l-4.4,1.5
			l-142.1,43.1l-0.4-0.1l-130.8-18.4l-6.8-1c-3.6-8.8-2.9-18.1,1-27.8L835,512.9h0.1l130-7.8l6.9-0.8L971.9,507.4z"/>
		<polygon class="st2" points="687.5,529.5 840.7,495.4 972,504.3 827.4,548.3 		"/>
		<polygon class="st2" points="687.5,529.5 840.7,495.4 972,504.3 825.4,548 		"/>
		<path class="st3" d="M685.4,527.5l142.7-30.3c6.9-2.4,14.2-3.6,21.6-3.3l124.9,7.9l-149.3,44.5L685.4,527.5z"/>
		<polygon class="st2" points="973.4,534.4 824.1,580 824.2,576.7 825.3,546.3 901.6,526.8 965.1,505.1 972,504.3 971.9,507.4 
			964.2,511.2 971.8,508.5 971.8,510.7 943,523 971.7,511.8 971.3,523 960.3,527.9 971.3,524.9 971,532.1 966.6,533.6 		"/>
	</g>
	<g>
		<path class="st4" d="M706.8,494.8c0,0-18.8,15-1.2,33.7l84.6-24.9L706.8,494.8z"/>
		<polygon class="st4" points="994.9,501.7 845.5,547.4 705.6,528.6 714.8,525.6 856.4,480.2 856.5,480.2 923,494.2 988,501 		"/>
		<path class="st1" d="M993.3,474.8l-7.7,3.8l7.6-2.7l-0.1,2.2l-28.8,12.3l28.7-11.2l-0.4,11.3l-11.1,4.8l11-2.9l-0.3,7.1L988,501
			l-142.1,43.1l-0.4-0.1l-130.8-18.4l-6.8-1c-3.6-8.8-2.9-18.1,1-27.8l147.4-16.6h0.1l130-7.8l6.9-0.8L993.3,474.8z"/>
		<polygon class="st2" points="709,496.8 862.1,462.8 993.4,471.7 848.9,515.6 		"/>
		<polygon class="st2" points="709,496.8 862.1,462.8 993.4,471.7 846.8,515.4 		"/>
		<path class="st4" d="M706.8,494.8l142.7-30.3c6.9-2.4,14.2-3.6,21.6-3.3l124.9,7.9l-149.3,44.5L706.8,494.8z"/>
		<polygon class="st2" points="994.9,501.7 845.5,547.4 845.6,544 846.7,513.7 923,494.2 986.5,472.4 993.4,471.6 993.3,474.8 
			985.7,478.6 993.3,475.9 993.2,478.1 964.4,490.4 993.2,479.1 992.8,490.4 981.7,495.2 992.7,492.3 992.5,499.5 988,501 		"/>
	</g>
	<g>
		<path class="st0" d="M997.8,487.5l-11.1-2.5l-78.6-17.6l5.7-0.9l8.4-1.3l10.3-1.7l53-8.3l7-1.1
			C992.5,454.2,1013,466.8,997.8,487.5z"/>
		<polygon class="st0" points="997.8,487.5 859.6,509.2 705,480.7 772.8,466 778.5,464.6 809.5,451.6 840.7,443.9 873.4,453.6 
			918.1,464 921.8,465.1 922.2,465.2 922.8,465.4 988.5,484.8 		"/>
		<path class="st2" d="M716.4,472.5l-11.5-3.5l-1.7-11.1l29.9,7.7l-30.1-8.7l-0.3-2.2l7.9,1.8l-8.1-2.9l290.1,0.7
			c5.5,20.6,5,20.6,2.4,29.7l-136,21.4l-152.7-27.4l-1.1-7.1L716.4,472.5z"/>
		<polygon class="st2" points="990.7,456.4 835,434.5 702,450.4 852.5,478.1 		"/>
		<polygon class="st2" points="992.9,455.3 992.6,454.2 835,434.5 702,450.4 854.7,477.8 		"/>
		<path class="st0" d="M992.6,454.2l-144.8-19.5c-7.2-1.6-14.6-1.8-21.8-0.7l-126.6,14.6l155,27.4L992.6,454.2z"/>
		<path class="st2" d="M997.8,487.5l-138.2,21.7l-0.6-3.9l-4.3-27.5l-0.3-1.9l63.8-11.9l67-8.8l7.4-1
			C992.5,454.2,1013,466.8,997.8,487.5z"/>
	</g>
</g>
<g>
	<g>
		<path class="st0" d="M32.3,326.3c0,0-24.8,19.8-1.6,44.5l111.6-32.9L32.3,326.3z"/>
		<polygon class="st0" points="412.4,335.4 215.3,395.6 30.7,370.8 42.8,366.9 229.6,307 229.8,307 317.6,325.4 403.3,334.4 		"/>
		<path class="st1" d="M410.3,299.8l-10.1,5l10-3.6l-0.1,2.9l-38,16.2l37.9-14.8l-0.5,14.9l-14.6,6.4l14.5-3.9l-0.3,9.4l-5.8,2
			l-187.5,56.9l-0.5-0.1L42.8,366.9l-9-1.3c-4.7-11.7-3.9-23.9,1.4-36.7L229.6,307h0.1l171.5-10.3l9.2-1L410.3,299.8z"/>
		<polygon class="st2" points="35.1,328.9 237.2,284 410.5,295.7 219.7,353.7 		"/>
		<polygon class="st2" points="35.1,328.9 237.2,284 410.5,295.7 217,353.4 		"/>
		<path class="st0" d="M32.3,326.3l188.3-40c9.1-3.2,18.8-4.7,28.4-4.4l164.8,10.5l-196.9,58.7L32.3,326.3z"/>
		<polygon class="st2" points="412.4,335.4 215.3,395.6 215.4,391.2 216.9,351.1 317.6,325.4 401.3,296.7 410.5,295.7 410.3,299.8 
			400.2,304.8 410.3,301.2 410.2,304.2 372.2,320.4 410.1,305.6 409.6,320.4 395,326.8 409.5,323 409.2,332.4 403.3,334.4 		"/>
	</g>
	<g>
		<path class="st5" d="M23.2,274.1c0,0-24.8,19.8-1.6,44.5l111.6-32.9L23.2,274.1z"/>
		<polygon class="st5" points="403.3,283.2 206.2,343.5 21.6,318.7 33.7,314.8 220.5,254.9 220.7,254.9 308.5,273.3 394.2,282.3 		
			"/>
		<path class="st1" d="M401.2,247.7l-10.1,5l10-3.6l-0.1,2.9l-38,16.2l37.9-14.8l-0.5,14.9l-14.6,6.4l14.5-3.9l-0.3,9.4l-5.8,2
			l-187.5,56.9l-0.5-0.1L33.7,314.8l-9-1.3c-4.7-11.7-3.9-23.9,1.4-36.7l194.5-21.9h0.1l171.5-10.3l9.2-1L401.2,247.7z"/>
		<polygon class="st2" points="26,276.8 228.1,231.9 401.4,243.6 210.6,301.6 		"/>
		<polygon class="st2" points="26,276.8 228.1,231.9 401.4,243.6 207.9,301.2 		"/>
		<path class="st5" d="M23.2,274.1l188.3-40c9.1-3.2,18.8-4.7,28.4-4.4l164.8,10.5L207.8,299L23.2,274.1z"/>
		<polygon class="st2" points="403.3,283.2 206.2,343.5 206.3,339.1 207.8,299 308.5,273.3 392.2,244.6 401.4,243.5 401.2,247.7 
			391.1,252.7 401.2,249.1 401.1,252 363.1,268.2 401,253.4 400.5,268.3 385.9,274.7 400.4,270.8 400.1,280.2 394.2,282.3 		"/>
	</g>
	<g>
		<path d="M51.5,231.1c0,0-24.8,19.8-1.6,44.5l111.6-32.9L51.5,231.1z"/>
		<polygon points="431.5,240.2 234.4,300.4 49.9,275.6 62,271.7 248.8,211.8 249,211.8 336.8,230.2 422.5,239.2 		"/>
		<path class="st1" d="M429.5,204.6l-10.1,5l10-3.6l-0.1,2.9l-38,16.2l37.9-14.8l-0.5,14.9l-14.6,6.4l14.5-3.9l-0.3,9.4l-5.8,2
			L235,296.1l-0.5-0.1L62,271.7l-9-1.3c-4.7-11.7-3.9-23.9,1.4-36.7l194.5-21.9h0.1l171.5-10.3l9.2-1L429.5,204.6z"/>
		<polygon class="st2" points="54.3,233.7 256.4,188.8 429.7,200.5 238.9,258.5 		"/>
		<polygon class="st2" points="54.3,233.7 256.4,188.8 429.7,200.5 236.2,258.1 		"/>
		<path d="M51.5,231.1l188.3-40c9.1-3.2,18.8-4.7,28.4-4.4L433,197.2L236,255.9L51.5,231.1z"/>
		<polygon class="st2" points="431.5,240.2 234.4,300.4 234.6,296 236.1,255.9 336.8,230.2 420.5,201.5 429.6,200.5 429.5,204.6 
			419.4,209.6 429.4,206 429.4,209 391.4,225.2 429.3,210.4 428.8,225.2 414.2,231.6 428.7,227.7 428.3,237.2 422.5,239.2 		"/>
	</g>
	<g>
		<path class="st6" d="M435.4,221.5l-14.7-3.3L317,195l7.6-1.2l11.1-1.8l13.6-2.2l69.9-11l9.2-1.4
			C428.5,177.4,455.4,194.1,435.4,221.5z"/>
		<polygon class="st6" points="435.4,221.5 253.1,250.1 49.1,212.4 138.5,193 146,191.1 187,174 228.1,163.9 271.3,176.7 
			330.3,190.4 335.2,191.9 335.7,192 336.4,192.2 423.1,217.8 		"/>
		<path class="st2" d="M64.2,201.6L48.9,197l-2.3-14.7l39.4,10.1l-39.7-11.5l-0.5-2.9l10.4,2.4l-10.6-3.8l382.8,0.9
			c7.2,27.2,6.6,27.1,3.2,39.2L252.3,245L50.8,208.8l-1.5-9.4L64.2,201.6z"/>
		<polygon class="st2" points="426,180.4 220.6,151.4 45.1,172.5 243.6,209.1 		"/>
		<polygon class="st2" points="428.9,178.9 428.5,177.4 220.6,151.4 45.1,172.5 246.5,208.7 		"/>
		<path class="st6" d="M428.5,177.4l-191.1-25.8c-9.4-2.1-19.2-2.4-28.8-0.9L41.7,170l204.5,36.1L428.5,177.4z"/>
		<path class="st2" d="M435.4,221.5l-182.3,28.6l-0.8-5.1l-5.7-36.3l-0.4-2.6l84.2-15.7l88.4-11.7l9.8-1.3
			C428.5,177.4,455.4,194.1,435.4,221.5z"/>
	</g>
</g>
<g>
	<path class="st7" d="M966.7,536.1c-3,2.1-4.7,4-12.4,1.9c-4.2-1.1-8.8-4.1-11.6-5.8c-1.6-1-3.3-1.6-5.1-2.1c-0.5-0.1-1-0.2-1.5-0.4
		c-0.1,0-0.1,0-0.2-0.1c-6.2-1.7-6.5-3.8-6.7-4.6c-0.3-0.9,1-16.3,1-16.3l17.1,3.7c0,0,2.2,3.8,5.6,7.2c4.3,4.3,11,9.2,12.9,10.7
		C968.8,532.6,968.3,535,966.7,536.1z"/>
	<path class="st8" d="M949.2,515.2c0,0,2.1,3.7-12.8,4.7c-9.2,0.7-2.3,8.8-0.4,9.7c-6.2-1.7-6.5-3.8-6.7-4.6c-0.3-0.9,1-16.3,1-16.3
		l17.1,3.7C947.4,512.6,948,513.6,949.2,515.2z"/>
	<path class="st3" d="M951.4,452.9c-0.3,6.8-4.6,8.9-7.6,14.1c-2.1-0.6-5.1-1-9-1.3c-3.6-0.3-7.8-0.5-12.3-0.6
		c-23.3-0.7-55.7-0.4-60.5-6.2c-1.3-1.6-7-24.1-7.9-25.7c-1.9-3.5-3-7-3-10.3c-0.1-6,2.7-11,8.4-13c3.2-1.2,7.5-1.3,12.6-0.1
		c2,0.8,6.1-1.8,8.2-1.2c1.9,0.6,3.7,1.2,5.5,1.8c4.5,1.5,8.9,3.1,13.2,4.7c17.1,6.5,33.9,14.7,44.6,20.5
		C950.1,440,951.7,446.3,951.4,452.9z"/>
	<path class="st3" d="M951.3,448.2c0.9,22.4-3.4,58.8-2.4,65.6c-2.4,4-19.1,5.1-19.6,1.8c-0.3-2.7-0.3-2.8-0.4-3.1
		c-1.8-11.6-8.4-48.2-9.4-52c0-0.1,0-0.2,0.1-0.4c0.8-1.5,6.1-5.9,11.9-10.3C939.2,444,951.3,446.5,951.3,448.2z"/>
	<path class="st9" d="M935.7,472c-3.7,12.4-6.9,37.9-6,46.3c-1.8-11.6-7.7-48.4-8.7-52.1c0-0.1,1.5-0.9,1.6-1
		c-23.3-0.7-55.7-0.4-60.5-6.2c-1.3-1.6-7-24.1-7.9-25.7c-1.9-3.5-3-7-3-10.3l34.7-12.4c4.5,1.5,8.9,3.1,13.2,4.7
		c0,0,1.8,0.3-1.2,5.4c-1.2,2,2.4,7.2,4.4,8.4c11,6.9,23,14.2,29.5,20.9C936.5,454.7,937.9,464.6,935.7,472z"/>
	<path class="st10" d="M904,347.5c-0.3,1.7-6.2,26.6-8.7,36.9c0,0,0,0,0,0c-0.6,2.6-1,4.3-1,4.4c-5.3-0.7-15.4-3.3-19.6-8.5
		c-1.5-1.8-2.2-4-1.8-6.5c0.8-4.3,4.2-14.3,5.3-18.3c1.5-5.7,3.5-10.3,5.8-13.9c2.6-4,5.6-6.6,9-7.5c8-2.2,10,2.2,11.5,6.2
		C905.3,342.4,904.1,346.6,904,347.5z"/>
	<path class="st11" d="M919.1,411.6c0,0,4,4.2,6.1,5c2.1,0.8,6.1-0.6,10.3,0c4.2,0.6,5.4,6.3,6.1,7.6c0.7,1.3,0.9,5.5-3.4,5.7
		c-4.3,0.2-9.1-6.3-9.2-4c1.6,2.9,3,4.5,0.9,4.6c-2,0.1-5.2-5.9-8.2-6.8c-3-0.9-5.3-2-6.1-3.9C914.9,417.9,919.1,411.6,919.1,411.6z
		"/>
	<path class="st10" d="M912.2,420.9c0,0-1.1-0.6-2.9-1.7c0,0-0.1,0-0.1,0c-7.9-4.5-28.8-16.4-31.1-17.7c-2.8-1.6-7.2-7.3-8.5-9.3
		c0.3-5.2,2.3-9.3,5.1-11.9c5.4-5,13.9-4.6,20.6,4.2c0,0.1,26,27.2,26.9,28C923.2,413.2,916,422.6,912.2,420.9z"/>
	<path class="st10" d="M872.4,325.5l-2.5-3.5c0,0,3.3-2.8,7.4-1L872.4,325.5z"/>
	<path class="st10" d="M869.9,322c0,0,3.3-2.8,7.4-1c4.1,1.7-4.9,4.6-4.9,4.6L869.9,322z"/>
	<path class="st7" d="M910.7,301.8c-7.4,6.3-8.4,17-22.6,17c-14.2,0-11.7,3.5-15.9-5.3c-4.1-8.6-4.3-13.2-4.9-21.6
		c-0.3-4.1,4.4-10.3,13.6-13c10.7-6.6,19.7,0,25.2,1.2c8,1.8,8.7,6.8,7.7,9.7C913.9,297.4,913.2,297.9,910.7,301.8z"/>
	<path class="st3" d="M922.3,446.6c0.1,0.8-3.5,9.3-6.8,16.8c-0.2,0.4-0.4,0.9-0.6,1.3c-2.4,5.5-4.5,10.1-4.7,10.1
		c-4.6-0.9-9.1-1.9-13.6-2.9c-1.5-0.3-2.9-0.6-4.4-1c-17.6-4-34.4-8.8-51-16.1c-13.9-6.1-19.2-20.6-17.6-29.9
		c0.2-1.1,0.4-2.1,0.5-3.1c2.5-15.1,2.7-14.8,22.6-13.9c3.6,0.2,12.9,4.3,16.5,5.4c9,2.9,6-1.9,13.5,2.8c0.4,0.3,0.9,0.6,1.3,0.9
		c3.7,2.3,7,4.4,10.1,6.4c14,8.8,22.7,14.6,29.7,19.7c0.3,0.2,0.6,0.4,0.9,0.7c1.2,0.8,2.3,1.7,3.4,2.5
		C922.1,446.5,922.2,446.6,922.3,446.6z"/>
	<path class="st7" d="M887.7,552.1c-2.3,0.8-13.9-1.6-18.5-6.8c-0.4-0.4-1.2-2.1-2.3-4.1c0,0,0,0,0-0.1c-1.8-3.4-4.2-7.9-5.9-9.1
		c-2.7-1.8-5-8.4-4.1-10.3c0.9-1.9,15-12.9,15-12.9l9.4,10.6c0,0-1.4,3.4-0.8,9.5c0.3,2.4,0.9,5.2,2.1,8.4
		C887.8,544.6,895.8,549.3,887.7,552.1z"/>
	<path class="st8" d="M881.4,519.4c0,0-1.4,3.4-0.8,9.5c-1.7,0.5-4.7,0.4-9.8-2.6c-8.9-5.3-9.2,0.1-8.8,1.8c0.3,1.7,3,7.7,4.9,13.1
		c-1.8-3.4-4.2-7.9-5.9-9.1c-2.7-1.8-5-8.4-4.1-10.3c0.9-1.9,15-12.9,15-12.9L881.4,519.4z"/>
	<path class="st3" d="M931.7,469.7c-5.9,19.1-47.2,52-48.9,55c-0.6,1.1-1.8,1.5-3.1,1.4c0,0,0,0-0.1,0c-5.9-0.6-16.5-10.6-13.7-14.6
		c0,0,6.8-10.8,15.6-24.3c0,0,0-0.1,0.1-0.1c1.5-2.4,3.1-4.8,4.8-7.3c1.9-2.9,3.9-5.9,5.9-8.9c0.2-0.3,0.4-0.6,0.6-0.9
		c1.9-2.8,3.8-5.7,5.6-8.4c0.5-1.9,10.6-21.3,11.1-23.3c3,1.7,5.7,3.3,8.1,4.9c0.3,0.2,0.6,0.4,0.9,0.7c1.2,0.8,2.3,1.7,3.4,2.5
		c0.1,0.1,0.2,0.2,0.3,0.3C933.2,455.4,934.5,463.1,931.7,469.7z"/>
	<path class="st12" d="M859.6,438.6c23.5-8,29.9-11.8,29.6-14.3c-3.1-2-7.6-4.8-11.3-7.1l-16,0l-37.3,4.2l-0.5,0.5
		c-0.2,1-0.3,2-0.5,3.1c-1.6,9.3,3.8,23.8,17.6,29.9c16.6,7.3,33.4,12.1,51,16.1c-0.4,0.5-26.4,40.6-26.4,40.6
		c-2.8,4,7.8,14,13.7,14.6c-2.9-1.9-10.5-10.8-6.8-14.4c14.1-13.8,21.3-23.4,21.3-23.4c7.2-6.4,1.5-16.7,13.2-21.3
		C901.2,468.4,841.4,444.8,859.6,438.6z"/>
	<path class="st13" d="M909.2,419.2c-7.9-4.5-28.8-16.4-31.1-17.7c-2.8-1.6-7.2-7.3-8.5-9.3c0.3-5.2,2.3-9.3,5.1-11.9
		c-1.5-1.8-2.2-4-1.8-6.5c0.8-4.3,4.2-14.3,5.3-18.3c1.5-5.7,3.5-10.3,5.8-13.9l12.6,2.1c0,0-0.4,36.2-1.4,40.8c0,0,1.7,3.9,2.2,8.1
		C898,396.2,901,414,909.2,419.2z"/>
	<path class="st10" d="M903.9,341.4c0,0.3,0,0.6,0,0.9v0.2c0,20.1-15.6,52.4-16.1,58.6c0,0-2.1,9.2,3.6,12.8c0,0,4.7,4.1-12,12.5
		c-0.2-0.1-0.4-0.2-0.6-0.3c-1.4-0.7-2.6-1.4-3.4-2.3c-0.9-1-1.3-2.2-0.8-3.8c-0.8,1.8-1.3,3.3-1.6,4.5c-0.1,0.4-0.2,0.8-0.3,1.1
		c-0.4,1.9-0.3,2.9-0.2,3.5c-1.3,3.5-11.3,5-19.6,5.6c-0.1,0-0.2,0-0.4,0c-7.2,0.5-14.5-0.1-21.5-1.9c-6.4-1.6-13.6-4-13.2-6.5
		c2.4-13.9,9.3-25.3,11.7-54.7c0.2-2.2,10.2-28.1,17.3-36.4c0.8-0.9,1.5-1.6,2.2-2c0.5-0.3,0.8-0.5,1.1-0.8c2.1-1.4,3-2.2,6.2-3.9
		c0.7-0.4,1.5-0.8,2.5-1.3c18-8.8,35.5-7,44,10c0.4,0.8,0.2,0.4,0.7,2C903.7,340.1,903.8,340.7,903.9,341.4z"/>
	<path class="st11" d="M898.6,325.4l-7.1,6.5c0,1-0.1,2.2-0.2,3.4c-0.3,5.3-1.1,11.7-3.1,12.2c-0.5-6-1.7-10.2-3.7-13.4
		c-1.2-2-2.8-3.6-4.5-5.1c-2.6-2.1-5.7-3.9-9.4-5.9c0.2-0.4,9-12.2,9-12.2C882.1,307.4,900.4,322.1,898.6,325.4z"/>
	<path class="st14" d="M898.5,327.3l-7.1,6c0,0.9-0.5,14-3.2,14.3c1.2-0.5,2-4.4,2.3-6.7c0.3-2.4,0.2-4.2-3.2-4.2
		c-1-0.3-1.9-0.7-2.8-1.3c-1.2-1.8-2.8-3.3-4.5-4.6c-14.7-1.8-5.6-10.2-5.6-10.2L898.5,327.3z"/>
	<path class="st10" d="M885.1,335c-0.1,0.3-0.2,1.8,0.4,3.3c0,0-6.2-0.1-7.8-2.3c-1.6-2.1,6.4-1.5,7.3-1.2
		C885.1,334.9,885.1,335,885.1,335z"/>
	<path class="st13" d="M860.7,383.8c4.7-10.7,0.5-22.9,1.5-33.5c1.1-11-0.1-16.5-2.2-19.2c-1.8-1.9,4-5.8,5.9-4.9
		c-3.7,1-2.4,4.1-1.4,4.8c3.8,2.9,5.8,13.8,5.8,13.8s11.3-7,14.3-7c-4.5-0.8-17.7-13.6-17.7-13.6c-4.5,0.8-15.8,7.4-15.5,7.4
		c-0.3,0.3-1.9,1.5-2.4,1.8c-0.6,0.4-1.4,1.1-2.2,2c-7.1,8.3-17.1,34.2-17.3,36.4c-2.4,29.4-9.3,40.7-11.7,54.7
		c-0.4,2.5,6.8,4.8,13.2,6.5c7,1.8,14.2,2.4,21.5,1.9c-8.2-1.6-42-6.2-20.6-22.3c2.7-2,28.9,11.6,40.9,12.1c0,0,0.1,0,0.1,0
		c0.9-0.4,4.1,0.8,5.8,1.6c0.2,0.1,0.4,0.2,0.6,0.3c6.1-4.3,4.7-9.7,4.7-11.9C884.1,410.5,855.8,394.9,860.7,383.8z"/>
	<path class="st10" d="M873.6,335.6c3.6,0.1,11.3-1,11.5-0.7c0,0,0,0,0,0.1c0,0.3-0.2,1.9,0.4,3.3
		C881.5,335.1,874,337.6,873.6,335.6z"/>
	<path class="st10" d="M885,334.9c-0.6-0.2-2,0.4-3.6,1.4c-2,1.3-4.5,3.1-6.6,4.8c-2.5,2-4.4,3.6-4.4,3.6s0.1-11.3-4.3-14.5
		c-4.3-3.1,1.5-6.4,2.2-7.1c0.8-0.7,1.5-1.2,2-1.5c0,0,0,0,0,0s2.2-1.3,3.6-1.2c1.4,0.1-1,0.2-1.7,2.7
		C872.7,328.6,883.3,334,885,334.9z"/>
	<path class="st15" d="M891.3,337.8c1.3-1.2,3.5,5.2,5.4,6.5c0.7-3.5,1.6-9.1,1.8-10.7C895.2,331.8,892,335.1,891.3,337.8z"/>
	<path class="st10" d="M891.3,338c0,0,0.5-2.7,2.5-3.6c1.8-0.9-1.5,0-2.2,0.2c-0.1,0-0.1,0.1-0.1,0.2L891.3,338z"/>
	<path class="st10" d="M891.5,334.6c0,0,1.1-0.5,2.6,3.8c1.4,4.3,2.6,5.3,2.6,5.3s0.3-7.7,1.3-8.7c1-1-1-4.7-1-4.7L891.5,334.6z"/>
	<path class="st11" d="M909.3,305.6c-0.5,1.1-0.7,2.3-0.6,3.5c0.3,4.1-1.3,8.1-4,12.7c-7.3,12.6-7.9,10.9-14.4,9.4
		c-4-0.9-7.7-3-10.5-6c-3.9-4.2-7.3-10-10.2-18.4c-1.1-3.1-0.9-6.6,0.6-9.6c7.5-14.6,21.5-8.6,34-5.8
		C913.6,293.6,911.3,301,909.3,305.6z"/>
	<path class="st7" d="M910.7,301.8c0,0-10.1-4.7-8.3-8.8c0.6-1.4-2.2-2.1-3.7-2.1c-8.7-0.4-14.9,3.6-16.7,8.8
		c-0.4,1.1-0.5,2.2-0.5,3.3c0.1,8.4-5.3,4.3-6.6,7.5c-0.7,1.7-1.9,2.1-2.2,4.1c-3-4.5-4.4-13.5-5.6-19.7c0.1-6.2,2.7-10.8,10.1-14.3
		c12.3-5.9,22.9-1.1,28.4,4.4c0,0,0,0,0,0C917.9,287.9,920.4,296.1,910.7,301.8z"/>
	<path class="st7" d="M874.8,310.4c-0.7,1.7-0.2,5.5-0.4,7.5c-5.6-8.6-12.8-30,2.7-37.5L874.8,310.4z"/>
	<path class="st11" d="M877.8,309c-1.5,2.8,0.7,6.4-1.1,7.1c-1.8,0.7-4.3-1.4-5.5-4.6c-1.2-3.2-2.2-5.9,1.1-7.1
		C876.5,302.8,879.5,305.9,877.8,309z"/>
	<path class="st10" d="M849,386.6l9.2-26.2c9.5-19.3,3.6-27.6,2.6-28.7c-1.2-1.4-4.7-1.7-6.3-1.3c-7.4,1.8-16.3,11.2-25.2,36.1
		c-0.1,0.4-6.9,21.2-7,21.8C822.2,388.6,840.2,385.1,849,386.6z"/>
	<path class="st16" d="M888.2,348.9c0.2,12.1-1.8,24.5-7.3,35.5c-2.4,5.6-3.7,11.5-4.6,17.5c-0.9,6-1.5,12-1.8,18.1l-0.1,0
		c0-6.1,0.3-12.2,1.2-18.2c0.9-6,2.2-12.1,4.9-17.6c3-5.3,4.6-11.2,5.6-17.2C887.3,361,887.9,355,888.2,348.9L888.2,348.9z"/>
	<path class="st17" d="M874.8,340.7c0.5-4.1-5.7-13.3-2.5-11.9c1.9,3.8,7.2,6.2,9.2,7.5c-2,1.3-4.5,3.1-6.6,4.8
		C874.7,341,874.7,340.8,874.8,340.7z"/>
	<g>
		<path class="st7" d="M913.2,420.4c-0.6-0.2-1.3-0.2-1.9,0l-38.6,14.1c-0.2-0.2-0.7-0.5-0.7-0.4c-0.1,0.2-0.3,0.9-0.2,1.2
			c0,0,0,0,0,0c0,0,0,0,0,0c0,0,0,0,0,0c0,0.2,0.1,0.4,0.4,0.5l38.9,14.4c0.4,0.1,0.8,0.1,1.2,0l40.1-17.8L913.2,420.4z"/>
		<path class="st18" d="M912.4,449.4l40.8-17.6l-39.8-12.3c-0.6-0.2-1.3-0.2-1.9,0l-39.1,14.4c-0.5,0.2-0.5,0.9,0,1.1l38.9,14.4
			C911.6,449.5,912.1,449.5,912.4,449.4z"/>
		<path class="st7" d="M969.8,390c-1-1.2-1.3-1-1.8-0.9l-41,13.6c-0.9,0.3-1.6,1-1.9,1.9l-14.1,44c-0.2,0.7,0.5,1.3,1.1,1l41.2-18.3
			c0.7-0.3,1.3-0.9,1.6-1.7l14-39.2C969.1,390.4,969.4,390.2,969.8,390z"/>
		<path class="st18" d="M912.4,449.4l40.8-17.6l-39.8-12.3c-0.6-0.2-1.3-0.2-1.9,0l-39.1,14.4c-0.5,0.2-0.5,0.9,0,1.1l38.9,14.4
			C911.6,449.5,912.1,449.5,912.4,449.4z"/>
		<path class="st18" d="M913.8,447.9l36.9-16l-25-6.8c-0.6-0.2-1.2-0.2-1.7,0l-35.4,13c-0.5,0.2-0.5,0.8,0,1l24.1,8.7
			C913.1,448.1,913.5,448.1,913.8,447.9z"/>
		<path class="st18" d="M900.8,432.3l11.5-4c0.2-0.1,0.2-0.4,0-0.4l-7.8-2.7c-0.2,0-0.4,0-0.6,0l-11.2,4.1c0,0.2,0,0.2,0,0.3
			l7.6,2.7C900.6,432.3,900.7,432.3,900.8,432.3z"/>
		<path class="st18" d="M913,450.2l41.2-18.3c0.7-0.3,1.3-0.9,1.6-1.7l14.1-39.5c0.2-0.6-0.4-1.3-1-1.1l-41,13.6
			c-0.9,0.3-1.6,1-1.9,1.9l-14.1,44C911.7,449.9,912.4,450.5,913,450.2z"/>
		<path class="st19" d="M944.9,419.7C944.9,419.7,944.9,419.7,944.9,419.7c2-2.4,2.7-5.1,1.5-6c-1.2-1-3.7,0.1-5.7,2.5
			c-0.5,0.6-1,1.3-1.3,2c-2.7,0-4.8,1.1-4.8,2.4c-0.1,1.5,2.3,2.9,5.4,3c3.1,0.2,5.6-0.9,5.7-2.4
			C945.6,420.6,945.4,420.1,944.9,419.7z"/>
		<path class="st20" d="M968.9,389.7L968,390c0,0.1,0,0.1,0,0.2c0,0-6.2,13-12.1,24.1c-4.8,9.1-12.4,16.5-21.7,21l-21,10.1l-1.2,3.9
			c-0.2,0.7,0.5,1.3,1.1,1l41.2-18.3c0.7-0.3,1.3-0.9,1.6-1.7l14.1-39.5C970.1,390.1,969.5,389.5,968.9,389.7z"/>
	</g>
	<path class="st11" d="M869,408.5c0,0,12.4,8.4,14.6,8.9c2.2,0.6,7.7,0.9,9.7,1c2,0.1,8,6.5,9,9.7c1,3.2,1,6.7,0.1,7.8
		c-1,1.1-6.7,0.6-11-1.1c-4.3-1.7-6-6.7-7.5-7.3c-1.5-0.6-22-10.4-22-10.4L869,408.5z"/>
	<path class="st10" d="M848.8,389.2l0.6-3.8c-7.9,3.9-20.5-7.3-26.9,2.3c0,0-0.6,2.5,0,5c0.7,3,2.3,6.2,4.6,8.4
		c1.6,1.6,4.4,3,5.5,3.5c9,7.5,23.9,14.6,43.6,21.6c3.4,1.4,8.8-10.5,7.9-11.7L848.8,389.2z"/>
	<path class="st11" d="M893.2,418.9c1.3,0.3,2.7,0.5,4,0.6c0.7,0.1,1.3,0.1,1.9,0.1c0.5,0,1.3-0.2,1.1,0c0.8-0.6,1.9-0.4,2.5,0.4
		c0.6,0.8,0.4,1.9-0.4,2.5c-1.4,0.9-2.2,0.8-3,1c-0.8,0.1-1.6,0.1-2.3,0.1c-1.5,0-3-0.1-4.5-0.3c-1.2-0.1-2.1-1.2-2-2.5
		c0.1-1.2,1.2-2.1,2.5-2C893.1,418.8,893.2,418.9,893.2,418.9z"/>
</g>
<g>
	<path class="st7" d="M1210.2,535.6c-2.8,2.3-4.4,4.3-11.6,2c-3.9-1.2-8.3-4.4-10.9-6.3c-1.5-1-3.1-1.8-4.7-2.2
		c-0.5-0.1-1-0.3-1.4-0.4c-0.1,0-0.1,0-0.2-0.1c-5.8-1.8-6.1-4.1-6.3-4.9c-0.3-1,1-17.7,1-17.7l16,4c0,0,2,4.1,5.2,7.8
		c4,4.6,10.3,10,12.1,11.6C1212.2,531.8,1211.8,534.3,1210.2,535.6z"/>
	<path class="st8" d="M1193.8,512.9c0,0,1.9,4-11.9,5.1c-8.6,0.7-2.2,9.5-0.4,10.6c-5.8-1.8-6.1-4.1-6.3-4.9c-0.3-1,1-17.7,1-17.7
		l16,4C1192.2,510,1192.7,511.2,1193.8,512.9z"/>
	<path class="st3" d="M1195.9,445.3c-0.3,7.4-4.3,9.6-7.1,15.3c-1.9-0.6-4.8-1.1-8.4-1.4c-3.3-0.3-7.3-0.5-11.5-0.6
		c-21.8-0.8-52.2-0.4-56.7-6.8c-1.2-1.7-6.6-26.2-7.4-27.9c-1.8-3.8-2.8-7.6-2.9-11.2c-0.1-6.5,2.5-12,7.9-14.1
		c3-1.3,7-1.4,11.8-0.1c1.9,0.8,5.7-2,7.7-1.3c1.7,0.6,3.5,1.3,5.2,2c4.2,1.6,8.3,3.3,12.4,5.1c16,7.1,31.8,16,41.7,22.3
		C1194.7,431.2,1196.2,438.1,1195.9,445.3z"/>
	<path class="st3" d="M1195.8,440.2c0.8,24.3-3.2,63.9-2.2,71.2c-2.2,4.4-17.9,5.5-18.4,2c-0.3-2.9-0.3-3-0.3-3.4
		c-1.7-12.6-7.9-52.3-8.8-56.4c0-0.1,0-0.2,0.1-0.4c0.7-1.7,5.7-6.4,11.1-11.2C1184.5,435.6,1195.8,438.3,1195.8,440.2z"/>
	<path class="st9" d="M1181.2,465.9c-3.5,13.5-6.4,41.1-5.6,50.2c-1.7-12.6-7.2-52.5-8.1-56.6c0-0.1,1.4-0.9,1.5-1.1
		c-21.8-0.8-52.2-0.4-56.7-6.8c-1.2-1.7-6.6-26.2-7.4-27.9c-1.8-3.8-2.8-7.6-2.9-11.2l32.5-13.5c4.2,1.6,8.3,3.3,12.4,5.1
		c0,0,1.7,0.4-1.1,5.8c-1.1,2.2,2.2,7.8,4.1,9.2c10.3,7.4,21.5,15.5,27.6,22.6C1181.9,447.2,1183.2,458,1181.2,465.9z"/>
	<path class="st10" d="M1143.3,363.3c-0.3,1.9,2.4-3.5,0.1,7.6c0,0,0,0.1,0,0.1c-0.6,2.8-0.9,4.6-0.9,4.7c-5-0.7-14.4-3.6-18.3-9.3
		c-1.4-2-7.5,18.1-7.1,15.4c0.7-4.7,4-15.5,5-19.9c1.4-6.2,0.5-1.3,2.7-5.2c2.4-4.4,5.3-7.2,8.4-8.2c7.4-2.4,9.3,2.4,10.7,6.8
		C1144.6,357.7,1143.5,362.2,1143.3,363.3z"/>
	<path class="st11" d="M1165.6,400.4c0,0,3.8,4.6,5.7,5.4c2,0.8,5.7-0.6,9.6,0c3.9,0.6,5,6.8,5.7,8.3c0.7,1.5,0.9,6-3.1,6.2
		c-4,0.2-8.5-6.8-8.6-4.3c1.5,3.1,2.8,4.9,0.9,5c-1.9,0.1-4.9-6.4-7.7-7.4c-2.8-1-5-2.2-5.7-4.2
		C1161.7,407.3,1165.6,400.4,1165.6,400.4z"/>
	<path class="st10" d="M1159.2,410.5c0,0-1-0.7-2.7-1.8c0,0,0,0-0.1-0.1c-7.4-4.9-26.9-17.8-29.1-19.2c-2.6-1.8-6.7-7.9-8-10.1
		c0.3-5.6,2.1-10.1,4.7-12.9c5-5.4,13-5,19.3,4.5c0,0.1,24.4,29.5,25.2,30.3C1169.5,402.2,1162.8,412.3,1159.2,410.5z"/>
	<path class="st10" d="M1113.7,339.4l-2.3-3.8c0,0,3.1-3,6.9-1.1L1113.7,339.4z"/>
	<path class="st10" d="M1111.4,335.6c0,0,3.1-3,6.9-1.1c3.8,1.9-4.6,4.9-4.6,4.9L1111.4,335.6z"/>
	<path class="st7" d="M1149.6,313.6c-6.9,6.9-7.8,18.4-21.2,18.4s-11,3.8-14.9-5.7c-3.8-9.3-4-14.3-4.6-23.4
		c-0.3-4.5,4.1-11.2,12.8-14.1c10-7.1,18.5,0,23.6,1.4c7.5,2,8.2,7.3,7.3,10.5C1152.6,308.9,1151.9,309.5,1149.6,313.6z"/>
	<path class="st3" d="M1168.7,438.5c0.1,0.8-3.3,10.1-6.4,18.3c-0.2,0.5-0.4,0.9-0.6,1.4c-2.2,5.9-4.2,10.9-4.4,10.9
		c-4.3-1-8.6-2-12.7-3.1c-1.4-0.3-2.8-0.7-4.1-1.1c-16.5-4.3-32.2-9.6-47.7-17.5c-13-6.6-18-22.4-16.5-32.5c0.2-1.2,0.3-2.3,0.5-3.3
		c2.4-16.4,2.5-16.1,21.1-15c3.4,0.2,12.1,4.7,15.4,5.9c8.4,3.2,5.6-2.1,12.6,3.1c0.4,0.3,0.8,0.6,1.3,0.9c3.4,2.5,6.6,4.8,9.5,6.9
		c13.1,9.6,21.2,15.9,27.8,21.4c0.3,0.2,0.6,0.5,0.9,0.7c1.1,0.9,2.1,1.8,3.2,2.7C1168.5,438.3,1168.6,438.4,1168.7,438.5z"/>
	<path class="st7" d="M1136.3,552.9c-2.2,0.9-13-1.7-17.3-7.4c-0.4-0.5-1.2-2.3-2.1-4.4c0,0,0,0,0-0.1c-1.7-3.7-3.9-8.6-5.5-9.9
		c-2.5-2-4.7-9.1-3.8-11.2c0.9-2.1,14.1-14,14.1-14l8.8,11.5c0,0-1.4,3.7-0.7,10.3c0.3,2.6,0.8,5.6,1.9,9.1
		C1136.3,544.7,1143.9,549.9,1136.3,552.9z"/>
	<path class="st8" d="M1130.3,517.4c0,0-1.4,3.7-0.7,10.3c-1.6,0.6-4.4,0.5-9.2-2.8c-8.3-5.8-8.6,0.1-8.3,1.9
		c0.3,1.8,2.8,8.3,4.6,14.2c-1.7-3.7-3.9-8.6-5.5-9.9c-2.5-2-4.7-9.1-3.8-11.2c0.9-2.1,14.1-14,14.1-14L1130.3,517.4z"/>
	<path class="st3" d="M1177.4,463.5c-5.5,20.7-44.2,56.4-45.8,59.7c-0.6,1.2-1.6,1.6-2.9,1.5c0,0,0,0-0.1,0
		c-5.5-0.7-15.5-11.5-12.9-15.8c0,0,6.4-11.7,14.6-26.4c0,0,0-0.1,0.1-0.1c1.4-2.6,2.9-5.2,4.5-7.9c1.8-3.2,3.6-6.4,5.5-9.7
		c0.2-0.3,0.4-0.7,0.6-1c1.7-3.1,3.5-6.2,5.3-9.2c0.5-2.1,10-23.1,10.4-25.3c2.8,1.8,5.4,3.6,7.6,5.4c0.3,0.2,0.6,0.5,0.9,0.7
		c1.1,0.9,2.1,1.8,3.2,2.7c0.1,0.1,0.2,0.2,0.3,0.3C1178.8,448,1180.1,456.3,1177.4,463.5z"/>
	<path class="st12" d="M1109.9,429.7c22-8.7,28-12.8,27.7-15.5c-2.9-2.1-7.1-5.3-10.6-7.7l-15,0l-34.9,4.6l-0.5,0.5
		c-0.1,1-0.3,2.2-0.5,3.3c-1.5,10,3.5,25.9,16.5,32.5c15.6,7.9,31.2,13.2,47.7,17.5c-0.4,0.5-24.7,44.1-24.7,44.1
		c-2.6,4.3,7.3,15.1,12.9,15.8c-2.7-2.1-9.9-11.7-6.3-15.7c13.2-15,19.9-25.4,19.9-25.4c6.7-6.9,1.4-18.1,12.3-23.1
		C1148.9,462.1,1092.9,436.4,1109.9,429.7z"/>
	<path class="st13" d="M1156.4,408.6c-7.4-4.9-26.9-17.8-29.1-19.2c-2.6-1.8-6.7-7.9-8-10.1c0.3-5.6,2.1-10.1,4.7-12.9
		c-1.4-2-7.5,18.1-7.1,15.4c0.7-4.7,4-15.5,5-19.9c1.4-6.2,0.5-1.3,2.7-5.2l11.8,2.3c0,0,7.8,6.9,6.9,11.9c0,0,1.6,4.2,2.1,8.8
		C1145.9,383.7,1148.7,403,1156.4,408.6z"/>
	<path class="st10" d="M1143.2,356.6c0,0.3,0,0.7,0,1v0.2c0,21.8-6.4,24.5-6.9,31.2c0,0.1-2,9.9,3.3,13.9c0,0,4.4,4.4-11.2,13.6
		c-0.1-0.1-0.3-0.2-0.5-0.3c-1.3-0.8-2.4-1.5-3.2-2.5c-0.9-1.1-1.2-2.4-0.7-4.2c-0.7,2-1.2,3.6-1.5,4.9c-0.1,0.5-0.2,0.9-0.2,1.2
		c-0.3,2-0.2,3.1-0.2,3.8c-1.2,3.8-10.6,5.4-18.3,6.1c-0.1,0-0.2,0-0.4,0c-6.7,0.6-13.5-0.1-20.1-2c-6-1.8-12.7-4.3-12.3-7
		c2.2-15.1,3.2-5,5.5-36.9c0.1-2.4,6.8-20.5,13.4-29.6c0.7-1,1.4-1.7,2-2.2c0.4-0.3,0.7-0.6,1-0.8c2-1.6,2.8-2.4,5.8-4.2
		c0.7-0.4,1.4-0.9,2.4-1.4c16.9-9.5,33.2-7.6,41.2,10.9c0.4,0.9,0.2,0.4,0.6,2.2C1143.1,355.2,1143.2,355.9,1143.2,356.6z"/>
	<path class="st11" d="M1138.3,339.3l-6.6,7c0,1.1-0.1,2.4-0.1,3.7c-0.3,5.7-1,12.7-2.9,13.2c-0.4-6.5-1.6-11.1-3.5-14.6
		c-1.1-2.2-2.6-3.9-4.2-5.5c-2.4-2.3-5.4-4.2-8.8-6.4c0.2-0.4,8.4-13.3,8.4-13.3C1122.8,319.8,1139.9,335.7,1138.3,339.3z"/>
	<path class="st14" d="M1138.2,341.3l-6.6,6.5c0,1-0.4,15.2-3,15.5c1.1-0.6,1.8-4.8,2.1-7.3c0.3-2.6,0.2-4.6-3-4.6
		c-0.9-0.3-1.8-0.8-2.6-1.4c-1.1-2-2.6-3.6-4.2-5c-13.8-2-5.2-11.1-5.2-11.1L1138.2,341.3z"/>
	<path class="st10" d="M1125.6,349.7c0,0.4-0.2,2,0.4,3.6c0,0-5.8-0.1-7.3-2.5c-1.5-2.3,6-1.6,6.8-1.3
		C1125.6,349.6,1125.6,349.6,1125.6,349.7z"/>
	<path class="st13" d="M1111,370.2c4.4-11.6-7.7,7.6-6.8-4c1-11.9-0.1-17.9-2.1-20.8c-1.7-2.1,3.7-6.3,5.5-5.4
		c-3.5,1.1-2.2,4.4-1.3,5.3c3.6,3.1,5.5,14.9,5.5,14.9s10.6-7.6,13.4-7.6c-4.2-0.9-16.5-14.7-16.5-14.7c-4.2,0.9-14.8,8-14.5,8
		c-0.3,0.3-1.8,1.7-2.2,2c-0.6,0.5-1.3,1.2-2,2.2c-6.6,9.1-13.3,27.2-13.4,29.6c-2.3,31.9-3.3,21.7-5.5,36.9
		c-0.4,2.7,6.4,5.2,12.3,7c6.5,1.9,13.3,2.6,20.1,2c-7.7-1.8-39.4-6.8-19.3-24.2c2.5-2.2,27.1,12.6,38.3,13.1c0,0,0-0.1,0.1-0.1
		c0.8-0.4,3.8,0.9,5.4,1.8c0.2,0.1,0.4,0.2,0.5,0.3c5.7-4.6,4.4-10.5,4.4-13C1132.9,399.2,1106.4,382.3,1111,370.2z"/>
	<path class="st10" d="M1114.8,350.4c3.4,0.1,10.6-1.1,10.8-0.7c0,0,0,0.1,0,0.1c0,0.3-0.2,2.1,0.4,3.6
		C1122.3,349.8,1115.2,352.5,1114.8,350.4z"/>
	<path class="st10" d="M1125.6,349.6c-0.6-0.2-1.8,0.4-3.4,1.5c-1.9,1.4-4.2,3.4-6.2,5.2c-2.3,2.1-4.1,3.9-4.1,3.9s0.1-12.3-4-15.8
		c-4.1-3.4,1.4-6.9,2.1-7.7c0.8-0.8,1.4-1.3,1.9-1.6c0,0,0,0,0,0s2-1.4,3.4-1.3c1.3,0.1-1,0.3-1.6,2.9
		C1114.1,342.7,1124,348.6,1125.6,349.6z"/>
	<path class="st15" d="M1131.4,352.7c1.2-1.3,3.3,5.7,5.1,7c0.7-3.8,1.5-9.9,1.7-11.6C1135.1,346.2,1132.1,349.8,1131.4,352.7z"/>
	<path class="st10" d="M1131.4,352.9c0,0,0.5-2.9,2.4-3.9c1.7-0.9-1.4,0-2.1,0.2c-0.1,0-0.1,0.1-0.1,0.2L1131.4,352.9z"/>
	<path class="st10" d="M1131.6,349.2c0,0,1-0.6,2.4,4.1c1.4,4.7,2.4,5.8,2.4,5.8s0.3-8.3,1.2-9.4c0.9-1.1-0.9-5.1-0.9-5.1
		L1131.6,349.2z"/>
	<path class="st11" d="M1148.3,317.8c-0.5,1.2-0.7,2.5-0.6,3.8c0.3,4.5-1.2,8.8-3.8,13.8c-6.9,13.6-7.4,11.8-13.5,10.2
		c-3.8-1-7.2-3.3-9.8-6.5c-3.6-4.5-6.9-10.8-9.6-20c-1-3.4-0.8-7.2,0.6-10.4c7-15.8,20.1-9.3,31.8-6.3
		C1152.3,304.7,1150.2,312.8,1148.3,317.8z"/>
	<path class="st7" d="M1149.6,313.6c0,0-9.5-5.1-7.8-9.6c0.6-1.5-2-2.2-3.4-2.3c-8.2-0.4-14,3.9-15.7,9.5c-0.3,1.1-0.5,2.4-0.5,3.6
		c0.1,9.1-5,4.7-6.2,8.1c-0.7,1.9-1.8,2.3-2,4.5c-2.8-4.9-4.1-14.6-5.3-21.4c0.1-6.7,2.5-11.7,9.4-15.5c11.6-6.4,21.5-1.2,26.6,4.8
		c0,0,0,0,0,0C1156.3,298.6,1158.7,307.5,1149.6,313.6z"/>
	<path class="st7" d="M1116,323c-0.7,1.9-0.2,6-0.4,8.2c-5.3-9.3-12-32.6,2.5-40.6L1116,323z"/>
	<path class="st11" d="M1118.8,321.4c-1.4,3,0.7,7-1,7.7c-1.7,0.8-4-1.5-5.2-5c-1.1-3.5-2.1-6.4,1-7.7
		C1117.6,314.7,1120.4,318.2,1118.8,321.4z"/>
	<path class="st10" d="M1100,373.3l3.2-6c8.9-20.9,0.6-20-0.3-21.2c-1.2-1.5-4.4-1.9-5.9-1.5c-6.9,2-12.5,2.3-20.8,29.3
		c-0.1,0.4-1,0.5-1.2,1.2C1074.9,375.4,1091.8,371.7,1100,373.3z"/>
	<path class="st16" d="M1128.6,364.8c0.2,13.2,6.5-5.8,1.4,6.1c-2.2,6-3.4,12.5-4.3,19c-0.8,6.5-1.4,13.1-1.7,19.7l-0.1,0
		c0-6.6,0.3-13.2,1.2-19.8c0.9-6.5,2.1-13.1,4.6-19.1c2.8-5.8-1.1,10.3-0.2,3.8C1130.4,368,1128.3,371.4,1128.6,364.8L1128.6,364.8z
		"/>
	<path class="st17" d="M1116,355.9c0.4-4.4-5.4-14.4-2.4-12.9c1.8,4.1,6.7,6.7,8.6,8.2c-1.9,1.4-4.2,3.4-6.2,5.2
		C1115.9,356.2,1115.9,356,1116,355.9z"/>
	<g>
		<path class="st7" d="M1160.2,409.9c-0.6-0.2-1.2-0.2-1.8,0.1l-36.1,15.4c-0.2-0.2-0.6-0.6-0.7-0.4c-0.1,0.2-0.2,1-0.2,1.3
			c0,0,0,0,0,0c0,0,0,0,0,0c0,0,0,0,0,0c0,0.2,0.1,0.5,0.4,0.6l36.4,15.7c0.4,0.2,0.8,0.1,1.1,0l37.6-19.4L1160.2,409.9z"/>
		<path class="st18" d="M1159.4,441.4l38.2-19.1l-37.3-13.3c-0.6-0.2-1.2-0.2-1.8,0.1l-36.7,15.6c-0.5,0.2-0.5,1,0,1.2l36.4,15.7
			C1158.7,441.6,1159.1,441.6,1159.4,441.4z"/>
		<path class="st7" d="M1213.1,376.9c-1-1.3-1.2-1.1-1.7-0.9l-38.4,14.7c-0.8,0.3-1.5,1.1-1.8,2.1l-13.2,47.8
			c-0.2,0.7,0.4,1.4,1,1.1l38.6-19.8c0.7-0.4,1.2-1,1.5-1.9l13.1-42.5C1212.5,377.4,1212.8,377.2,1213.1,376.9z"/>
		<path class="st18" d="M1159.4,441.4l38.2-19.1l-37.3-13.3c-0.6-0.2-1.2-0.2-1.8,0.1l-36.7,15.6c-0.5,0.2-0.5,1,0,1.2l36.4,15.7
			C1158.7,441.6,1159.1,441.6,1159.4,441.4z"/>
		<path class="st18" d="M1160.7,439.8l34.6-17.3l-23.4-7.4c-0.5-0.2-1.1-0.2-1.6,0l-33.2,14.1c-0.4,0.2-0.4,0.9,0,1.1l22.6,9.5
			C1160,440,1160.4,440,1160.7,439.8z"/>
		<path class="st18" d="M1148.5,422.9l10.8-4.4c0.2-0.1,0.2-0.4,0-0.5l-7.3-2.9c-0.2,0-0.3,0-0.5,0l-10.4,4.4c0,0.2,0,0.2,0,0.3
			l7.1,3C1148.3,422.9,1148.4,422.9,1148.5,422.9z"/>
		<path class="st18" d="M1160,442.3l38.6-19.8c0.7-0.4,1.2-1,1.5-1.9l13.2-42.8c0.2-0.7-0.4-1.4-1-1.2l-38.4,14.7
			c-0.8,0.3-1.5,1.1-1.8,2.1l-13.2,47.8C1158.7,442,1159.4,442.6,1160,442.3z"/>
		<path class="st19" d="M1189.8,409.2C1189.8,409.2,1189.8,409.2,1189.8,409.2c1.9-2.6,2.5-5.5,1.4-6.5c-1.1-1.1-3.5,0.1-5.3,2.7
			c-0.5,0.7-0.9,1.4-1.2,2.1c-2.5,0.1-4.5,1.1-4.5,2.6c-0.1,1.6,2.2,3.1,5,3.3c2.9,0.2,5.2-1,5.3-2.6
			C1190.5,410.2,1190.2,409.7,1189.8,409.2z"/>
		<path class="st20" d="M1212.3,376.6l-0.8,0.3c0,0.1,0,0.1,0,0.2c0,0-5.8,14.1-11.3,26.2c-4.5,9.9-11.6,17.9-20.4,22.7l-19.7,11
			l-1.2,4.2c-0.2,0.7,0.4,1.4,1,1.1l38.6-19.8c0.7-0.4,1.2-1,1.5-1.9l13.2-42.8C1213.4,377.1,1212.9,376.4,1212.3,376.6z"/>
	</g>
	<path class="st11" d="M1118.8,397c0,0,11.7,9.1,13.7,9.7c2,0.6,7.2,1,9,1.1c1.9,0.1,7.5,7.1,8.4,10.5c0.9,3.5,1,7.3,0.1,8.5
		c-0.9,1.2-6.3,0.7-10.3-1.2c-4-1.8-5.6-7.3-7-7.9c-1.4-0.7-20.6-11.3-20.6-11.3L1118.8,397z"/>
	<path class="st10" d="M1099.9,376.2l0.6-4.1c-7.4,4.3-19.2-7.9-25.2,2.6c0,0-0.5,2.7,0,5.4c0.6,3.2,2.2,6.7,4.3,9.1
		c1.5,1.7,4.1,3.2,5.1,3.8c8.4,8.1,22.4,15.9,40.8,23.4c3.1,1.5,8.3-11.4,7.4-12.7L1099.9,376.2z"/>
	<path class="st11" d="M1141.5,408.3c1.2,0.3,2.5,0.5,3.7,0.7c0.6,0.1,1.2,0.1,1.8,0.1c0.5,0,1.2-0.2,1,0c0.8-0.7,1.8-0.5,2.4,0.4
		c0.6,0.9,0.4,2.1-0.3,2.8c-1.3,1-2,0.9-2.8,1c-0.8,0.1-1.5,0.1-2.2,0.1c-1.4,0-2.8-0.1-4.2-0.3c-1.1-0.2-2-1.3-1.8-2.7
		c0.1-1.3,1.2-2.3,2.3-2.1C1141.3,408.3,1141.4,408.3,1141.5,408.3z"/>
</g>
<g>
	<path class="st21" d="M378.7,255c-2.4,2-3.8,3.7-10,1.8c-3.4-1.1-7.2-3.8-9.4-5.4c-1.3-0.9-2.7-1.5-4.1-1.9
		c-0.4-0.1-0.8-0.2-1.2-0.4c0,0-0.1,0-0.2-0.1c-5-1.6-5.3-3.5-5.4-4.3c-0.2-0.9,0.8-15.3,0.8-15.3l13.9,3.5c0,0,1.8,3.6,4.6,6.8
		c3.5,4,8.9,8.7,10.5,10C380.4,251.7,380,253.9,378.7,255z"/>
	<path class="st22" d="M364.5,235.3c0,0,1.7,3.5-10.4,4.5c-7.5,0.6-1.9,8.3-0.4,9.2c-5-1.6-5.3-3.5-5.4-4.3
		c-0.2-0.9,0.8-15.3,0.8-15.3l13.9,3.5C363,232.8,363.5,233.8,364.5,235.3z"/>
	<path class="st23" d="M366.3,176.7c-0.2,6.4-3.7,8.3-6.2,13.2c-1.7-0.5-4.2-0.9-7.3-1.2c-2.9-0.3-6.3-0.4-10-0.6
		c-18.9-0.7-45.2-0.4-49.1-5.9c-1.1-1.5-5.7-22.7-6.4-24.2c-1.6-3.3-2.4-6.6-2.5-9.7c-0.1-5.6,2.2-10.4,6.8-12.3
		c2.6-1.1,6.1-1.2,10.2-0.1c1.7,0.7,4.9-1.7,6.7-1.1c1.5,0.5,3,1.1,4.5,1.7c3.6,1.4,7.2,2.9,10.7,4.5c13.9,6.1,27.6,13.9,36.2,19.3
		C365.2,164.5,366.5,170.4,366.3,176.7z"/>
	<path class="st23" d="M366.2,172.2c0.7,21-2.8,55.4-1.9,61.7c-1.9,3.8-15.5,4.8-15.9,1.7c-0.3-2.5-0.3-2.6-0.3-3
		c-1.5-10.9-6.8-45.4-7.6-48.9c0-0.1,0-0.2,0.1-0.4c0.6-1.5,5-5.5,9.7-9.7C356.4,168.3,366.2,170.6,366.2,172.2z"/>
	<path class="st24" d="M353.5,194.6c-3,11.7-5.6,35.7-4.9,43.6c-1.5-10.9-6.3-45.5-7-49.1c0-0.1,1.2-0.8,1.3-0.9
		c-18.9-0.7-45.2-0.4-49.1-5.9c-1.1-1.5-5.7-22.7-6.4-24.2c-1.6-3.3-2.4-6.6-2.5-9.7l28.2-11.7c3.6,1.4,7.2,2.9,10.7,4.5
		c0,0,1.4,0.3-1,5.1c-1,1.9,1.9,6.8,3.5,7.9c8.9,6.5,18.7,13.4,24,19.6C354.1,178.3,355.3,187.7,353.5,194.6z"/>
	<path d="M323,97c-0.2,1.6-0.3,5.5-2.3,15.2c0,0,0,0,0,0c-0.5,2.5-0.8,4-0.8,4.1c-4.3-0.6-12.5-3.1-15.9-8
		c-1.2-1.7-6.5,15.7-6.1,13.4c0.6-4.1,3.4-13.4,4.3-17.2c1.2-5.3,2.8-9.7,4.7-13.1c2.1-3.8,4.6-6.2,7.3-7.1c6.5-2,8.1,2.1,9.3,5.9
		C324.1,92.1,323.2,96.1,323,97z"/>
	<path class="st25" d="M340,137.8c0,0,3.3,4,5,4.7c1.7,0.7,5-0.5,8.4,0c3.4,0.5,4.4,5.9,5,7.2c0.6,1.3,0.8,5.2-2.7,5.4
		c-3.5,0.2-7.4-5.9-7.5-3.8c1.3,2.7,2.4,4.3,0.8,4.3c-1.7,0.1-4.2-5.6-6.7-6.4c-2.5-0.9-4.3-1.9-4.9-3.7
		C336.6,143.7,340,137.8,340,137.8z"/>
	<path d="M334.4,146.5c0,0-0.9-0.6-2.4-1.6c0,0,0,0-0.1,0c-6.4-4.2-23.4-15.4-25.2-16.7c-2.3-1.5-5.8-6.8-6.9-8.7
		c0.3-4.9,1.8-8.7,4.1-11.2c4.4-4.7,11.3-4.3,16.7,3.9c0,0.1,21.1,25.6,21.9,26.3C343.4,139.3,337.5,148.1,334.4,146.5z"/>
	<path class="st10" d="M297.4,76.3l-2-3.3c0,0,2.7-2.6,6-1L297.4,76.3z"/>
	<path class="st10" d="M295.3,72.9c0,0,2.7-2.6,6-1c3.3,1.6-4,4.3-4,4.3L295.3,72.9z"/>
	<path class="st26" d="M328.5,53.9c-6,6-6.8,16-18.4,16c-11.6,0-9.5,3.3-12.9-5c-3.3-8.1-3.5-12.4-4-20.3
		c-0.3-3.9,3.5-9.7,11.1-12.2c8.7-6.2,16,0,20.5,1.2c6.5,1.7,7.1,6.4,6.3,9.1C331.1,49.8,330.5,50.3,328.5,53.9z"/>
	<path class="st23" d="M342.6,170.8c0.1,0.7-2.9,8.8-5.6,15.8c-0.2,0.4-0.3,0.8-0.5,1.2c-1.9,5.2-3.7,9.5-3.8,9.5
		c-3.7-0.9-7.4-1.8-11-2.7c-1.2-0.3-2.4-0.6-3.6-0.9c-14.3-3.8-27.9-8.3-41.4-15.2c-11.3-5.7-15.6-19.4-14.3-28.1
		c0.1-1,0.3-2,0.4-2.9c2.1-14.2,2.2-14,18.3-13c2.9,0.1,10.5,4,13.4,5.1c7.3,2.7,4.8-1.8,10.9,2.7c0.4,0.3,0.7,0.5,1.1,0.8
		c3,2.1,5.7,4.2,8.2,6c11.4,8.3,18.4,13.7,24.1,18.5c0.3,0.2,0.5,0.4,0.8,0.6c0.9,0.8,1.9,1.6,2.8,2.4
		C342.5,170.6,342.6,170.7,342.6,170.8z"/>
	<path class="st21" d="M314.5,270c-1.9,0.7-11.3-1.5-15-6.4c-0.3-0.4-1-2-1.9-3.8c0,0,0,0,0-0.1c-1.5-3.2-3.4-7.5-4.8-8.6
		c-2.2-1.7-4.1-7.9-3.3-9.7c0.8-1.8,12.2-12.2,12.2-12.2l7.7,10c0,0-1.2,3.2-0.6,8.9c0.2,2.3,0.7,4.9,1.7,7.9
		C314.6,262.9,321.1,267.4,314.5,270z"/>
	<path class="st22" d="M309.4,239.2c0,0-1.2,3.2-0.6,8.9c-1.4,0.5-3.8,0.4-7.9-2.4c-7.2-5-7.4,0.1-7.2,1.7c0.3,1.6,2.4,7.2,4,12.3
		c-1.5-3.2-3.4-7.5-4.8-8.6c-2.2-1.7-4.1-7.9-3.3-9.7c0.8-1.8,12.2-12.2,12.2-12.2L309.4,239.2z"/>
	<path class="st23" d="M350.2,192.5c-4.8,17.9-38.3,49-39.7,51.8c-0.5,1-1.4,1.4-2.5,1.3c0,0,0,0,0,0c-4.8-0.6-13.4-10-11.2-13.7
		c0,0,5.5-10.1,12.7-22.9c0,0,0-0.1,0.1-0.1c1.2-2.2,2.5-4.5,3.9-6.8c1.6-2.8,3.2-5.6,4.8-8.4c0.2-0.3,0.3-0.6,0.5-0.9
		c1.5-2.7,3.1-5.4,4.6-7.9c0.4-1.8,8.6-20,9-22c2.5,1.6,4.7,3.1,6.6,4.6c0.3,0.2,0.5,0.4,0.8,0.6c0.9,0.8,1.9,1.6,2.8,2.4
		c0.1,0.1,0.2,0.2,0.2,0.2C351.5,179,352.6,186.2,350.2,192.5z"/>
	<path class="st24" d="M291.7,163.1c19.1-7.5,24.3-11.1,24-13.5c-2.5-1.8-6.2-4.6-9.2-6.7l-13,0l-30.3,4l-0.4,0.4
		c-0.1,0.9-0.3,1.9-0.4,2.9c-1.3,8.7,3.1,22.4,14.3,28.1c13.5,6.9,27.1,11.4,41.4,15.2c-0.3,0.4-21.4,38.2-21.4,38.2
		c-2.3,3.8,6.4,13.1,11.2,13.7c-2.4-1.8-8.5-10.1-5.5-13.6c11.5-13,17.3-22.1,17.3-22.1c5.9-6,1.2-15.7,10.7-20
		C325.5,191.3,276.9,169,291.7,163.1z"/>
	<path d="M332,144.9c-6.4-4.2-23.4-15.4-25.2-16.7c-2.3-1.5-5.8-6.8-6.9-8.7c0.3-4.9,1.8-8.7,4.1-11.2c-1.2-1.7-6.5,15.7-6.1,13.4
		c0.6-4.1,3.4-13.4,4.3-17.2c1.2-5.3,2.8-9.7,4.7-13.1l10.2,2c0,0,4.4,14.6,3.6,18.9c0,0,1.3,3.7,1.8,7.6
		C322.9,123.3,325.3,140,332,144.9z"/>
	<path d="M323,91.2c0,0.3,0,0.6,0,0.9v0.2c0,18.9-7.9,29.8-8.4,35.7c0,0-1.7,8.6,2.9,12.1c0,0,3.8,3.9-9.7,11.8
		c-0.1-0.1-0.3-0.2-0.5-0.3c-1.1-0.7-2.1-1.3-2.8-2.2c-0.8-0.9-1.1-2.1-0.7-3.6c-0.6,1.7-1,3.1-1.3,4.3c-0.1,0.4-0.2,0.8-0.2,1.1
		c-0.3,1.7-0.2,2.7-0.2,3.3c-1,3.3-9.2,4.7-15.9,5.2c-0.1,0-0.2,0-0.3,0c-5.9,0.5-11.7-0.1-17.4-1.8c-5.2-1.5-11-3.8-10.7-6.1
		c1.9-13.1,2.8-4.3,4.8-32c0.1-2.1,8.3-26.4,14-34.3c0.6-0.9,1.2-1.5,1.8-1.9c0.4-0.3,0.6-0.5,0.9-0.7c1.7-1.4,2.5-2.1,5-3.7
		c0.6-0.4,1.3-0.8,2.1-1.2c14.6-8.3,28.8-6.6,35.8,9.4c0.3,0.8,0.2,0.3,0.6,1.9C322.8,90,322.9,90.5,323,91.2z"/>
	<path class="st25" d="M318.7,76.2l-5.7,6.1c0,1-0.1,2.1-0.1,3.2c-0.3,5-0.9,11-2.5,11.5c-0.4-5.7-1.4-9.6-3-12.6
		c-1-1.9-2.2-3.4-3.7-4.8c-2.1-2-4.7-3.6-7.6-5.6c0.2-0.4,7.3-11.5,7.3-11.5C305.3,59.2,320.1,73,318.7,76.2z"/>
	<path class="st14" d="M318.6,77.9l-5.7,5.6c0,0.9-0.4,13.2-2.6,13.5c1-0.5,1.6-4.2,1.8-6.3c0.3-2.2,0.2-4-2.6-4
		c-0.8-0.2-1.5-0.7-2.3-1.3c-1-1.7-2.2-3.1-3.7-4.4c-12-1.7-4.5-9.6-4.5-9.6L318.6,77.9z"/>
	<path d="M307.7,85.2c0,0.3-0.2,1.7,0.3,3.1c0,0-5-0.1-6.3-2.1c-1.3-2,5.2-1.4,5.9-1.1C307.7,85.1,307.7,85.1,307.7,85.2z"/>
	<path d="M292.6,111.6c3.8-10.1-4.3-2-3.5-12.1c0.9-10.3-0.1-15.5-1.8-18c-1.4-1.8,3.2-5.5,4.8-4.7c-3,0.9-1.9,3.8-1.2,4.6
		c3.1,2.7,4.7,12.9,4.7,12.9s9.2-6.6,11.6-6.6C303.7,87,293,75,293,75c-3.6,0.8-12.9,7-12.6,6.9c-0.2,0.3-1.6,1.4-1.9,1.7
		c-0.5,0.4-1.1,1.1-1.8,1.9c-5.7,7.8-13.9,32.2-14,34.3c-2,27.6-2.9,18.8-4.8,32c-0.3,2.3,5.5,4.5,10.7,6.1
		c5.7,1.7,11.6,2.3,17.4,1.8c-6.7-1.5-34.1-5.9-16.7-21c2.2-1.9,23.5,10.9,33.2,11.3c0,0,0,0,0.1,0c0.7-0.4,3.3,0.8,4.7,1.5
		c0.2,0.1,0.3,0.2,0.5,0.3c4.9-4,3.8-9.1,3.8-11.2C311.6,136.7,288.6,122,292.6,111.6z"/>
	<path d="M298.3,85.8c2.9,0.1,9.2-1,9.4-0.6c0,0,0,0,0,0.1c0,0.3-0.2,1.8,0.4,3.1C304.8,85.3,298.7,87.6,298.3,85.8z"/>
	<path d="M307.7,85.1c-0.5-0.2-1.6,0.4-3,1.3c-1.7,1.2-3.7,3-5.4,4.5c-2,1.8-3.6,3.4-3.6,3.4s0.1-10.7-3.5-13.7
		c-3.5-3,1.2-6,1.8-6.6c0.7-0.7,1.2-1.1,1.6-1.4c0,0,0,0,0,0s1.8-1.2,2.9-1.1c1.1,0.1-0.8,0.2-1.4,2.6
		C297.7,79.1,306.3,84.2,307.7,85.1z"/>
	<path class="st15" d="M312.7,87.8c1.1-1.1,2.8,4.9,4.4,6.1c0.6-3.3,1.3-8.6,1.5-10.1C315.9,82.1,313.3,85.3,312.7,87.8z"/>
	<path class="st10" d="M312.7,88c0,0,0.4-2.5,2-3.4c1.5-0.8-1.2,0-1.8,0.2c-0.1,0-0.1,0.1-0.1,0.2L312.7,88z"/>
	<path d="M312.9,84.8c0,0,0.9-0.5,2.1,3.6c1.2,4.1,2.1,5,2.1,5s0.2-7.2,1-8.2c0.8-1-0.8-4.5-0.8-4.5L312.9,84.8z"/>
	<path class="st25" d="M327.3,57.5c-0.4,1-0.6,2.2-0.5,3.3c0.2,3.9-1.1,7.6-3.3,12c-6,11.8-6.4,10.2-11.7,8.8
		c-3.3-0.9-6.2-2.8-8.5-5.7c-3.2-3.9-5.9-9.4-8.3-17.3c-0.9-3-0.7-6.2,0.5-9c6.1-13.7,17.4-8.1,27.6-5.5
		C330.9,46.2,329,53.2,327.3,57.5z"/>
	<path class="st26" d="M328.5,53.9c0,0-8.2-4.4-6.7-8.3c0.5-1.3-1.8-1.9-3-2c-7.1-0.3-12.1,3.4-13.6,8.2c-0.3,1-0.4,2-0.4,3.1
		c0.1,7.9-4.3,4.1-5.4,7.1c-0.6,1.6-1.6,2-1.8,3.9c-2.4-4.2-3.6-12.7-4.6-18.6c0.1-5.8,2.2-10.1,8.2-13.5c10-5.6,18.6-1.1,23,4.2
		c0,0,0,0,0,0C334.3,40.8,336.4,48.6,328.5,53.9z"/>
	<path class="st26" d="M299.4,62c-0.6,1.6-0.1,5.2-0.3,7.1c-4.6-8.1-10.4-28.3,2.2-35.3L299.4,62z"/>
	<path class="st25" d="M301.8,60.7c-1.2,2.6,0.6,6-0.9,6.7c-1.5,0.7-3.5-1.3-4.5-4.3c-1-3-1.8-5.5,0.9-6.7
		C300.7,54.8,303.1,57.8,301.8,60.7z"/>
	<path d="M283.1,114.3l2.8-5.2c7.7-18.2,2.9-26,2.1-27c-1-1.3-3.8-1.6-5.1-1.3c-6,1.7-13.2,10.6-20.5,34c-0.1,0.4-0.9,0.4-1,1
		C261.4,116.1,275.9,112.8,283.1,114.3z"/>
	<path class="st16" d="M310.3,98.3c0.1,11.4,3.3,3.6-1.2,13.9c-1.9,5.2-3,10.9-3.7,16.5c-0.7,5.6-1.2,11.3-1.5,17l-0.1,0
		c0-5.7,0.3-11.5,1-17.1c0.8-5.6,1.8-11.3,4-16.5c2.4-5-1,8.9-0.2,3.3C309.5,109.7,310,104,310.3,98.3L310.3,98.3z"/>
	<path class="st17" d="M299.3,90.5c0.4-3.9-4.7-12.5-2.1-11.2c1.6,3.6,5.8,5.8,7.4,7.1c-1.7,1.2-3.7,3-5.4,4.5
		C299.3,90.8,299.3,90.7,299.3,90.5z"/>
	<g>
		<path class="st7" d="M335.3,146c-0.5-0.2-1-0.2-1.5,0l-31.3,13.3c-0.2-0.2-0.5-0.5-0.6-0.4c-0.1,0.2-0.2,0.9-0.2,1.1c0,0,0,0,0,0
			c0,0,0,0,0,0c0,0,0,0,0,0c0,0.2,0.1,0.4,0.3,0.5l31.6,13.6c0.3,0.1,0.7,0.1,1,0l32.6-16.8L335.3,146z"/>
		<path class="st18" d="M334.6,173.3l33.1-16.6l-32.3-11.6c-0.5-0.2-1-0.2-1.5,0l-31.8,13.5c-0.4,0.2-0.4,0.9,0,1.1l31.6,13.6
			C334,173.5,334.3,173.5,334.6,173.3z"/>
		<path class="st7" d="M381.2,117.4c-0.8-1.1-1.1-1-1.5-0.8l-33.3,12.8c-0.7,0.3-1.3,0.9-1.5,1.8l-11.4,41.5
			c-0.2,0.6,0.4,1.2,0.9,0.9l33.5-17.2c0.6-0.3,1.1-0.9,1.3-1.6l11.4-36.9C380.7,117.8,380.9,117.7,381.2,117.4z"/>
		<path class="st27" d="M334.6,173.3l33.1-16.6l-32.3-11.6c-0.5-0.2-1-0.2-1.5,0l-31.8,13.5c-0.4,0.2-0.4,0.9,0,1.1l31.6,13.6
			C334,173.5,334.3,173.5,334.6,173.3z"/>
		<path class="st18" d="M335.7,172l30-15l-20.3-6.4c-0.5-0.2-0.9-0.1-1.4,0l-28.8,12.2c-0.4,0.2-0.4,0.8,0,1l19.6,8.2
			C335.1,172.1,335.4,172.1,335.7,172z"/>
		<path class="st18" d="M325.2,157.2l9.4-3.8c0.2-0.1,0.2-0.3,0-0.4l-6.3-2.5c-0.2,0-0.3,0-0.5,0l-9.1,3.8c0,0.1,0,0.2,0,0.3
			l6.1,2.6C325,157.2,325.1,157.2,325.2,157.2z"/>
		<path class="st27" d="M335.1,174.1l33.5-17.2c0.6-0.3,1.1-0.9,1.3-1.6l11.4-37.1c0.2-0.6-0.3-1.2-0.8-1l-33.3,12.8
			c-0.7,0.3-1.3,0.9-1.5,1.8l-11.4,41.5C334,173.8,334.6,174.4,335.1,174.1z"/>
		<path class="st19" d="M361,145.4C361,145.4,361,145.4,361,145.4c1.6-2.2,2.2-4.8,1.2-5.7c-0.9-0.9-3,0.1-4.6,2.3
			c-0.4,0.6-0.8,1.2-1.1,1.9c-2.2,0-3.9,1-3.9,2.3c-0.1,1.4,1.9,2.7,4.4,2.9c2.5,0.2,4.5-0.9,4.6-2.3
			C361.6,146.3,361.4,145.8,361,145.4z"/>
		<path class="st20" d="M380.5,117.1l-0.7,0.3c0,0,0,0.1,0,0.1c0,0-5,12.2-9.8,22.7c-3.9,8.6-10.1,15.5-17.7,19.7l-17.1,9.5l-1,3.6
			c-0.2,0.6,0.4,1.2,0.9,0.9l33.5-17.2c0.6-0.3,1.1-0.9,1.3-1.6l11.4-37.1C381.5,117.5,381,116.9,380.5,117.1z"/>
	</g>
	<path class="st25" d="M299.4,134.8c0,0,10.1,7.9,11.9,8.4c1.8,0.5,6.2,0.8,7.8,0.9c1.6,0.1,6.5,6.1,7.3,9.1c0.8,3,0.8,6.3,0,7.4
		c-0.8,1.1-5.4,0.6-8.9-1c-3.5-1.6-4.9-6.3-6.1-6.9s-17.9-9.8-17.9-9.8L299.4,134.8z"/>
	<path d="M283,116.7l0.5-3.6c-6.4,3.7-16.7-6.8-21.9,2.2c0,0-0.5,2.3,0,4.7c0.6,2.8,1.9,5.8,3.7,7.9c1.3,1.5,3.6,2.8,4.4,3.3
		c7.3,7,19.4,13.8,35.4,20.3c2.7,1.3,7.2-9.9,6.4-11L283,116.7z"/>
	<path class="st25" d="M319,144.6c1,0.3,2.2,0.5,3.2,0.6c0.5,0.1,1.1,0.1,1.5,0.1c0.4,0,1-0.2,0.9,0c0.7-0.6,1.6-0.4,2.1,0.3
		c0.5,0.8,0.4,1.8-0.3,2.4c-1.1,0.8-1.8,0.8-2.5,0.9c-0.7,0.1-1.3,0.1-1.9,0.1c-1.2,0-2.4-0.1-3.6-0.3c-1-0.1-1.7-1.2-1.6-2.3
		c0.1-1.1,1-2,2-1.8C318.9,144.6,319,144.6,319,144.6z"/>
</g>
<rect x="878.6" y="182.3" class="st28" width="36.4" height="33.7"/>
<rect x="923.7" y="182.3" class="st29" width="36.4" height="33.7"/>
<rect x="878.6" y="220.6" class="st30" width="36.4" height="33.7"/>
<rect x="923" y="220.6" class="st31" width="36.4" height="33.7"/>
</svg>
