<?xml version="1.0" encoding="utf-8"?>
<!-- Generator: Adobe Illustrator 25.2.1, SVG Export Plug-In . SVG Version: 6.00 Build 0)  -->
<svg version="1.1" id="Layer_1" xmlns="http://www.w3.org/2000/svg" xmlns:xlink="http://www.w3.org/1999/xlink" x="0px" y="0px"
	 viewBox="0 0 450 450" style="enable-background:new 0 0 450 450;" xml:space="preserve">
<style type="text/css">
	.st0{fill:#3F90A8;}
	.st1{fill:#F4F1E5;}
	.st2{fill:#F8DCC2;}
	.st3{fill:#666666;}
	.st4{fill:#29ABE2;}
	.st5{fill:#1B262B;}
	.st6{opacity:0.28;fill:#1B262B;enable-background:new    ;}
	.st7{fill:#474747;}
	.st8{opacity:0.43;fill:#3B4063;enable-background:new    ;}
	.st9{fill:#D8AA93;}
	.st10{fill:#F8C650;}
	.st11{fill:#381F00;}
	.st12{opacity:0.55;fill:#2B2B2B;enable-background:new    ;}
	.st13{fill:#3F3F3F;}
	.st14{opacity:0.69;fill:#3F3F3F;enable-background:new    ;}
	.st15{fill:#3B5765;}
	.st16{fill:#ABE3EF;}
	.st17{fill:#C9C9C9;}
	.st18{fill:#B7B7B7;}
</style>
<g>
	<g>
		<path class="st0" d="M32.3,326.3c0,0-24.8,19.8-1.6,44.5l111.6-32.9L32.3,326.3z"/>
		<polygon class="st0" points="412.4,335.4 215.3,395.6 30.7,370.8 42.8,366.9 229.6,307 229.8,307 317.6,325.4 403.3,334.4 		"/>
		<path class="st1" d="M410.3,299.8l-10.1,5l10-3.6l-0.1,2.9l-38,16.2l37.9-14.8l-0.5,14.9l-14.6,6.4l14.5-3.9l-0.3,9.4l-5.8,2
			l-187.5,56.9l-0.5-0.1L42.8,366.9l-9-1.3c-4.7-11.7-3.9-23.9,1.4-36.7L229.6,307h0.1l171.5-10.3l9.2-1L410.3,299.8z"/>
		<polygon class="st2" points="35.1,328.9 237.2,284 410.5,295.7 219.7,353.7 		"/>
		<polygon class="st2" points="35.1,328.9 237.2,284 410.5,295.7 217,353.4 		"/>
		<path class="st0" d="M32.3,326.3l188.3-40c9.1-3.2,18.8-4.7,28.4-4.4l164.8,10.5l-196.9,58.7L32.3,326.3z"/>
		<polygon class="st2" points="412.4,335.4 215.3,395.6 215.4,391.2 216.9,351.1 317.6,325.4 401.3,296.7 410.5,295.7 410.3,299.8 
			400.2,304.8 410.3,301.2 410.2,304.2 372.2,320.4 410.1,305.6 409.6,320.4 395,326.8 409.5,323 409.2,332.4 403.3,334.4 		"/>
	</g>
	<g>
		<path class="st3" d="M23.2,274.1c0,0-24.8,19.8-1.6,44.5l111.6-32.9L23.2,274.1z"/>
		<polygon class="st3" points="403.3,283.2 206.2,343.5 21.6,318.7 33.7,314.8 220.5,254.9 220.7,254.9 308.5,273.3 394.2,282.3 		
			"/>
		<path class="st1" d="M401.2,247.7l-10.1,5l10-3.6L401,252l-38,16.2l37.9-14.8l-0.5,14.9l-14.6,6.4l14.5-3.9l-0.3,9.4l-5.8,2
			l-187.5,56.9l-0.5-0.1L33.7,314.8l-9-1.3c-4.7-11.7-3.9-23.9,1.4-36.7l194.5-21.9h0.1l171.5-10.3l9.2-1L401.2,247.7z"/>
		<polygon class="st2" points="26,276.8 228.1,231.9 401.4,243.6 210.6,301.6 		"/>
		<polygon class="st2" points="26,276.8 228.1,231.9 401.4,243.6 207.9,301.2 		"/>
		<path class="st3" d="M23.2,274.1l188.3-40c9.1-3.2,18.8-4.7,28.4-4.4l164.8,10.5L207.8,299L23.2,274.1z"/>
		<polygon class="st2" points="403.3,283.2 206.2,343.5 206.3,339.1 207.8,299 308.5,273.3 392.2,244.6 401.4,243.5 401.2,247.7 
			391.1,252.7 401.2,249.1 401.1,252 363.1,268.2 401,253.4 400.5,268.3 385.9,274.7 400.4,270.8 400.1,280.2 394.2,282.3 		"/>
	</g>
	<g>
		<path d="M51.5,231.1c0,0-24.8,19.8-1.6,44.5l111.6-32.9L51.5,231.1z"/>
		<polygon points="431.5,240.2 234.4,300.4 49.9,275.6 62,271.7 248.8,211.8 249,211.8 336.8,230.2 422.5,239.2 		"/>
		<path class="st1" d="M429.5,204.6l-10.1,5l10-3.6l-0.1,2.9l-38,16.2l37.9-14.8l-0.5,14.9l-14.6,6.4l14.5-3.9l-0.3,9.4l-5.8,2
			l-187.5,57l-0.5-0.1L62,271.7l-9-1.3c-4.7-11.7-3.9-23.9,1.4-36.7l194.5-21.9h0.1l171.5-10.3l9.2-1L429.5,204.6z"/>
		<polygon class="st2" points="54.3,233.7 256.4,188.8 429.7,200.5 238.9,258.5 		"/>
		<polygon class="st2" points="54.3,233.7 256.4,188.8 429.7,200.5 236.2,258.1 		"/>
		<path d="M51.5,231.1l188.3-40c9.1-3.2,18.8-4.7,28.4-4.4L433,197.2l-197,58.7L51.5,231.1z"/>
		<polygon class="st2" points="431.5,240.2 234.4,300.4 234.6,296 236.1,255.9 336.8,230.2 420.5,201.5 429.6,200.5 429.5,204.6 
			419.4,209.6 429.4,206 429.4,209 391.4,225.2 429.3,210.4 428.8,225.2 414.2,231.6 428.7,227.7 428.3,237.2 422.5,239.2 		"/>
	</g>
	<g>
		<path class="st4" d="M435.4,221.5l-14.7-3.3L317,195l7.6-1.2l11.1-1.8l13.6-2.2l69.9-11l9.2-1.4
			C428.5,177.4,455.4,194.1,435.4,221.5z"/>
		<polygon class="st4" points="435.4,221.5 253.1,250.1 49.1,212.4 138.5,193 146,191.1 187,174 228.1,163.9 271.3,176.7 
			330.3,190.4 335.2,191.9 335.7,192 336.4,192.2 423.1,217.8 		"/>
		<path class="st2" d="M64.2,201.6L48.9,197l-2.3-14.7L86,192.4l-39.7-11.5l-0.5-2.9l10.4,2.4l-10.6-3.8l382.8,0.9
			c7.2,27.2,6.6,27.1,3.2,39.2L252.3,245L50.8,208.8l-1.5-9.4L64.2,201.6z"/>
		<polygon class="st2" points="426,180.4 220.6,151.4 45.1,172.5 243.6,209.1 		"/>
		<polygon class="st2" points="428.9,178.9 428.5,177.4 220.6,151.4 45.1,172.5 246.5,208.7 		"/>
		<path class="st4" d="M428.5,177.4l-191.1-25.8c-9.4-2.1-19.2-2.4-28.8-0.9L41.7,170l204.5,36.1L428.5,177.4z"/>
		<path class="st2" d="M435.4,221.5l-182.3,28.6l-0.8-5.1l-5.7-36.3l-0.4-2.6l84.2-15.7l88.4-11.7l9.8-1.3
			C428.5,177.4,455.4,194.1,435.4,221.5z"/>
	</g>
</g>
<g>
	<path class="st5" d="M378.7,255c-2.4,2-3.8,3.7-10,1.8c-3.4-1.1-7.2-3.8-9.4-5.4c-1.3-0.9-2.7-1.5-4.1-1.9
		c-0.4-0.1-0.8-0.2-1.2-0.4c0,0-0.1,0-0.2-0.1c-5-1.6-5.3-3.5-5.4-4.3c-0.2-0.9,0.8-15.3,0.8-15.3l13.9,3.5c0,0,1.8,3.6,4.6,6.8
		c3.5,4,8.9,8.7,10.5,10C380.4,251.7,380,253.9,378.7,255z"/>
	<path class="st6" d="M364.5,235.3c0,0,1.7,3.5-10.4,4.5c-7.5,0.6-1.9,8.3-0.4,9.2c-5-1.6-5.3-3.5-5.4-4.3
		c-0.2-0.9,0.8-15.3,0.8-15.3l13.9,3.5C363,232.8,363.5,233.8,364.5,235.3z"/>
	<path class="st7" d="M366.3,176.7c-0.2,6.4-3.7,8.3-6.2,13.2c-1.7-0.5-4.2-0.9-7.3-1.2c-2.9-0.3-6.3-0.4-10-0.6
		c-18.9-0.7-45.2-0.4-49.1-5.9c-1.1-1.5-5.7-22.7-6.4-24.2c-1.6-3.3-2.4-6.6-2.5-9.7c-0.1-5.6,2.2-10.4,6.8-12.3
		c2.6-1.1,6.1-1.2,10.2-0.1c1.7,0.7,4.9-1.7,6.7-1.1c1.5,0.5,3,1.1,4.5,1.7c3.6,1.4,7.2,2.9,10.7,4.5c13.9,6.1,27.6,13.9,36.2,19.3
		C365.2,164.5,366.5,170.4,366.3,176.7z"/>
	<path class="st7" d="M366.2,172.2c0.7,21-2.8,55.4-1.9,61.7c-1.9,3.8-15.5,4.8-15.9,1.7c-0.3-2.5-0.3-2.6-0.3-3
		c-1.5-10.9-6.8-45.4-7.6-48.9c0-0.1,0-0.2,0.1-0.4c0.6-1.5,5-5.5,9.7-9.7C356.4,168.3,366.2,170.6,366.2,172.2z"/>
	<path class="st8" d="M353.5,194.6c-3,11.7-4.4,36.1-5,43.6c-1.5-10.9-6.2-45.5-6.9-49.1c0-0.1,1.2-0.8,1.3-0.9
		c-18.9-0.7-45.2-0.4-49.1-5.9c-1.1-1.5-5.7-22.7-6.4-24.2c-1.6-3.3-2.4-6.6-2.5-9.7l28.2-11.7c3.6,1.4,7.2,2.9,10.7,4.5
		c0,0,1.4,0.3-1,5.1c-1,1.9,1.9,6.8,3.5,7.9c8.9,6.5,18.7,13.4,24,19.6C354.1,178.3,355.3,187.7,353.5,194.6z"/>
	<path d="M323,97c-0.2,1.6-0.3,5.5-2.3,15.2l0,0c-0.5,2.5-0.8,4-0.8,4.1c-4.3-0.6-12.5-3.1-15.9-8c-1.2-1.7-6.5,15.7-6.1,13.4
		c0.6-4.1,3.4-13.4,4.3-17.2c1.2-5.3,2.8-9.7,4.7-13.1c2.1-3.8,4.6-6.2,7.3-7.1c6.5-2,8.1,2.1,9.3,5.9C324.1,92.1,323.2,96.1,323,97
		z"/>
	<path class="st9" d="M340,137.8c0,0,3.3,4,5,4.7s5-0.5,8.4,0s4.4,5.9,5,7.2s0.8,5.2-2.7,5.4s-7.4-5.9-7.5-3.8
		c1.3,2.7,2.4,4.3,0.8,4.3c-1.7,0.1-4.2-5.6-6.7-6.4c-2.5-0.9-4.3-1.9-4.9-3.7C336.6,143.7,340,137.8,340,137.8z"/>
	<path d="M334.4,146.5c0,0-0.9-0.6-2.4-1.6c0,0,0,0-0.1,0c-6.4-4.2-23.4-15.4-25.2-16.7c-2.3-1.5-5.8-6.8-6.9-8.7
		c0.3-4.9,1.8-8.7,4.1-11.2c4.4-4.7,11.3-4.3,16.7,3.9c0,0.1,21.1,25.6,21.9,26.3C343.4,139.3,337.5,148.1,334.4,146.5z"/>
	<path class="st10" d="M297.4,76.3l-2-3.3c0,0,2.7-2.6,6-1L297.4,76.3z"/>
	<path class="st10" d="M295.3,72.9c0,0,2.7-2.6,6-1s-4,4.3-4,4.3L295.3,72.9z"/>
	<path class="st11" d="M328.5,53.9c-6,6-6.8,16-18.4,16s-9.5,3.3-12.9-5c-3.3-8.1-3.5-12.4-4-20.3c-0.3-3.9,3.5-9.7,11.1-12.2
		c8.7-6.2,16,0,20.5,1.2c6.5,1.7,7.1,6.4,6.3,9.1C331.1,49.8,330.5,50.3,328.5,53.9z"/>
	<path class="st7" d="M342.6,170.8c0.1,0.7-2.9,8.8-5.6,15.8c-0.2,0.4-0.3,0.8-0.5,1.2c-1.9,5.2-3.7,9.5-3.8,9.5
		c-3.7-0.9-7.4-1.8-11-2.7c-1.2-0.3-2.4-0.6-3.6-0.9c-14.3-3.8-27.9-8.3-41.4-15.2c-11.3-5.7-15.6-19.4-14.3-28.1
		c0.1-1,0.3-2,0.4-2.9c2.1-14.2,2.2-14,18.3-13c2.9,0.1,10.5,4,13.4,5.1c7.3,2.7,4.8-1.8,10.9,2.7c0.4,0.3,0.7,0.5,1.1,0.8
		c3,2.1,5.7,4.2,8.2,6c11.4,8.3,18.4,13.7,24.1,18.5c0.3,0.2,0.5,0.4,0.8,0.6c0.9,0.8,1.9,1.6,2.8,2.4
		C342.5,170.6,342.6,170.7,342.6,170.8z"/>
	<path class="st5" d="M314.5,270c-1.9,0.7-11.3-1.5-15-6.4c-0.3-0.4-1-2-1.9-3.8c0,0,0,0,0-0.1c-1.5-3.2-3.4-7.5-4.8-8.6
		c-2.2-1.7-4.1-7.9-3.3-9.7c0.8-1.8,12.2-12.2,12.2-12.2l7.7,10c0,0-1.2,3.2-0.6,8.9c0.2,2.3,0.7,4.9,1.7,7.9
		C314.6,262.9,321.1,267.4,314.5,270z"/>
	<path class="st6" d="M309.4,239.2c0,0-1.2,3.2-0.6,8.9c-1.4,0.5-3.8,0.4-7.9-2.4c-7.2-5-7.4,0.1-7.2,1.7c0.3,1.6,2.4,7.2,4,12.3
		c-1.5-3.2-3.4-7.5-4.8-8.6c-2.2-1.7-4.1-7.9-3.3-9.7c0.8-1.8,12.2-12.2,12.2-12.2L309.4,239.2z"/>
	<path class="st7" d="M350.2,192.5c-4.8,17.9-38.3,49-39.7,51.8c-0.5,1-1.4,1.4-2.5,1.3l0,0c-4.8-0.6-13.4-10-11.2-13.7
		c0,0,5.5-10.1,12.7-22.9c0,0,0-0.1,0.1-0.1c1.2-2.2,2.5-4.5,3.9-6.8c1.6-2.8,3.2-5.6,4.8-8.4c0.2-0.3,0.3-0.6,0.5-0.9
		c1.5-2.7,3.1-5.4,4.6-7.9c0.4-1.8,8.6-20,9-22c2.5,1.6,4.7,3.1,6.6,4.6c0.3,0.2,0.5,0.4,0.8,0.6c0.9,0.8,1.9,1.6,2.8,2.4
		c0.1,0.1,0.2,0.2,0.2,0.2C351.5,179,352.6,186.2,350.2,192.5z"/>
	<path class="st8" d="M291.7,163.1c19.1-7.5,24.3-11.1,24-13.5c-2.5-1.8-6.2-4.6-9.2-6.7h-13l-30.3,4l-0.4,0.4
		c-0.1,0.9-0.3,1.9-0.4,2.9c-1.3,8.7,3.1,22.4,14.3,28.1c13.5,6.9,27.1,11.4,41.4,15.2c-0.3,0.4-21.4,38.2-21.4,38.2
		c-2.3,3.8,6.4,13.1,11.2,13.7c-2.4-1.8-8.5-10.1-5.5-13.6c11.5-13,17.3-22.1,17.3-22.1c5.9-6,1.2-15.7,10.7-20
		C325.5,191.3,276.9,169,291.7,163.1z"/>
	<path d="M332,144.9c-6.4-4.2-23.4-15.4-25.2-16.7c-2.3-1.5-5.8-6.8-6.9-8.7c0.3-4.9,1.8-8.7,4.1-11.2c-1.2-1.7-6.5,15.7-6.1,13.4
		c0.6-4.1,3.4-13.4,4.3-17.2c1.2-5.3,2.8-9.7,4.7-13.1l10.2,2c0,0,4.4,14.6,3.6,18.9c0,0,1.3,3.7,1.8,7.6
		C322.9,123.3,325.3,140,332,144.9z"/>
	<path d="M323,91.2c0,0.3,0,0.6,0,0.9v0.2c0,18.9-7.9,29.8-8.4,35.7c0,0-1.7,8.6,2.9,12.1c0,0,3.8,3.9-9.7,11.8
		c-0.1-0.1-0.3-0.2-0.5-0.3c-1.1-0.7-2.1-1.3-2.8-2.2c-0.8-0.9-1.1-2.1-0.7-3.6c-0.6,1.7-1,3.1-1.3,4.3c-0.1,0.4-0.2,0.8-0.2,1.1
		c-0.3,1.7-0.2,2.7-0.2,3.3c-1,3.3-9.2,4.7-15.9,5.2c-0.1,0-0.2,0-0.3,0c-5.9,0.5-11.7-0.1-17.4-1.8c-5.2-1.5-11-3.8-10.7-6.1
		c1.9-13.1,2.8-4.3,4.8-32c0.1-2.1,8.3-26.4,14-34.3c0.6-0.9,1.2-1.5,1.8-1.9c0.4-0.3,0.6-0.5,0.9-0.7c1.7-1.4,2.5-2.1,5-3.7
		c0.6-0.4,1.3-0.8,2.1-1.2c14.6-8.3,28.8-6.6,35.8,9.4c0.3,0.8,0.2,0.3,0.6,1.9C322.8,90,322.9,90.5,323,91.2z"/>
	<path class="st9" d="M318.7,76.2l-5.7,6.1c0,1-0.1,2.1-0.1,3.2c-0.3,5-0.9,11-2.5,11.5c-0.4-5.7-1.4-9.6-3-12.6
		c-1-1.9-2.2-3.4-3.7-4.8c-2.1-2-4.7-3.6-7.6-5.6c0.2-0.4,7.3-11.5,7.3-11.5C305.3,59.2,320.1,73,318.7,76.2z"/>
	<path class="st9" d="M318.6,77.9l-5.7,5.6c0,0.9-0.4,13.2-2.6,13.5c1-0.5,1.6-4.2,1.8-6.3c0.3-2.2,0.2-4-2.6-4
		c-0.8-0.2-1.5-0.7-2.3-1.3c-1-1.7-2.2-3.1-3.7-4.4c-12-1.7-4.5-9.6-4.5-9.6L318.6,77.9z"/>
	<path d="M307.7,85.2c0,0.3-0.2,1.7,0.3,3.1c0,0-5-0.1-6.3-2.1s5.2-1.4,5.9-1.1C307.7,85.1,307.7,85.1,307.7,85.2z"/>
	<path d="M292.6,111.6c3.8-10.1-4.3-2-3.5-12.1c0.9-10.3-0.1-15.5-1.8-18c-1.4-1.8,3.2-5.5,4.8-4.7c-3,0.9-1.9,3.8-1.2,4.6
		c3.1,2.7,4.7,12.9,4.7,12.9s9.2-6.6,11.6-6.6C303.7,87,293,75,293,75c-3.6,0.8-12.9,7-12.6,6.9c-0.2,0.3-1.6,1.4-1.9,1.7
		c-0.5,0.4-1.1,1.1-1.8,1.9c-5.7,7.8-13.9,32.2-14,34.3c-2,27.6-2.9,18.8-4.8,32c-0.3,2.3,5.5,4.5,10.7,6.1
		c5.7,1.7,11.6,2.3,17.4,1.8c-6.7-1.5-34.1-5.9-16.7-21c2.2-1.9,23.5,10.9,33.2,11.3c0,0,0,0,0.1,0c0.7-0.4,3.3,0.8,4.7,1.5
		c0.2,0.1,0.3,0.2,0.5,0.3c4.9-4,3.8-9.1,3.8-11.2C311.6,136.7,288.6,122,292.6,111.6z"/>
	<path d="M298.3,85.8c2.9,0.1,9.2-1,9.4-0.6c0,0,0,0,0,0.1c0,0.3-0.2,1.8,0.4,3.1C304.8,85.3,298.7,87.6,298.3,85.8z"/>
	<path d="M307.7,85.1c-0.5-0.2-1.6,0.4-3,1.3c-1.7,1.2-3.7,3-5.4,4.5c-2,1.8-3.6,3.4-3.6,3.4s0.1-10.7-3.5-13.7
		c-3.5-3,1.2-6,1.8-6.6c0.7-0.7,1.2-1.1,1.6-1.4l0,0c0,0,2.8-2.3,2.2-1.3c-0.1,0.2-0.1,0.4-0.7,2.8
		C297.7,79.1,306.3,84.2,307.7,85.1z"/>
	<path class="st12" d="M312.7,87.8c1.1-1.1,2.8,4.9,4.4,6.1c0.6-3.3,1.3-8.6,1.5-10.1C315.9,82.1,313.3,85.3,312.7,87.8z"/>
	<path class="st13" d="M312.7,88c0,0,0.4-2.5,2-3.4c1.5-0.8-1.2,0-1.8,0.2c-0.1,0-0.1,0.1-0.1,0.2L312.7,88z"/>
	<path d="M312.9,84.8c0,0,0.9-0.5,2.1,3.6s2.1,5,2.1,5s0.2-7.2,1-8.2s-0.8-4.5-0.8-4.5L312.9,84.8z"/>
	<path class="st9" d="M327.3,57.5c-0.4,1-0.6,2.2-0.5,3.3c0.2,3.9-1.1,7.6-3.3,12c-6,11.8-6.4,10.2-11.7,8.8
		c-3.3-0.9-6.2-2.8-8.5-5.7c-3.2-3.9-5.9-9.4-8.3-17.3c-0.9-3-0.7-6.2,0.5-9c6.1-13.7,17.4-8.1,27.6-5.5
		C330.9,46.2,329,53.2,327.3,57.5z"/>
	<path class="st11" d="M328.5,53.9c0,0-8.2-4.4-6.7-8.3c0.5-1.3-1.8-1.9-3-2c-7.1-0.3-12.1,3.4-13.6,8.2c-0.3,1-0.4,2-0.4,3.1
		c0.1,7.9-4.3,4.1-5.4,7.1c-0.6,1.6-1.6,2-1.8,3.9c-2.4-4.2-3.6-12.7-4.6-18.6c0.1-5.8,2.2-10.1,8.2-13.5c10-5.6,18.6-1.1,23,4.2
		l0,0C334.3,40.8,336.4,48.6,328.5,53.9z"/>
	<path class="st11" d="M299.4,62c-0.6,1.6-0.1,5.2-0.3,7.1c-4.6-8.1-10.4-28.3,2.2-35.3L299.4,62z"/>
	<path class="st9" d="M301.8,60.7c-1.2,2.6,0.6,6-0.9,6.7c-1.5,0.7-3.5-1.3-4.5-4.3c-1-3-1.8-5.5,0.9-6.7
		C300.7,54.8,303.1,57.8,301.8,60.7z"/>
	<path d="M283.1,114.3l2.8-5.2c7.7-18.2,2.9-26,2.1-27c-1-1.3-3.8-1.6-5.1-1.3c-6,1.7-13.2,10.6-20.5,34c-0.1,0.4-0.9,0.4-1,1
		C261.4,116.1,275.9,112.8,283.1,114.3z"/>
	<path class="st14" d="M310.3,98.3c0.1,11.4,3.3,3.6-1.2,13.9c-1.9,5.2-3,10.9-3.7,16.5s-1.2,11.3-1.5,17h-0.1
		c0-5.7,0.3-11.5,1-17.1c0.8-5.6,1.8-11.3,4-16.5c2.4-5-1,8.9-0.2,3.3C309.5,109.7,310,104,310.3,98.3L310.3,98.3z"/>
	<path d="M299.3,90.5c0.4-3.9-4.7-12.5-2.1-11.2c1.6,3.6,5.8,5.8,7.4,7.1c-1.7,1.2-3.7,3-5.4,4.5C299.3,90.8,299.3,90.7,299.3,90.5z
		"/>
	<g>
		<path class="st15" d="M335.3,146c-0.5-0.2-1-0.2-1.5,0l-31.3,13.3c-0.2-0.2-0.5-0.5-0.6-0.4c-0.1,0.2-0.2,0.9-0.2,1.1l0,0l0,0l0,0
			c0,0.2,0.1,0.4,0.3,0.5l31.6,13.6c0.3,0.1,0.7,0.1,1,0l32.6-16.8L335.3,146z"/>
		<path class="st16" d="M334.6,173.3l33.1-16.6l-32.3-11.6c-0.5-0.2-1-0.2-1.5,0l-31.8,13.5c-0.4,0.2-0.4,0.9,0,1.1l31.6,13.6
			C334,173.5,334.3,173.5,334.6,173.3z"/>
		<path class="st15" d="M381.2,117.4c-0.8-1.1-1.1-1-1.5-0.8l-33.3,12.8c-0.7,0.3-1.3,0.9-1.5,1.8l-11.4,41.5
			c-0.2,0.6,0.4,1.2,0.9,0.9l33.5-17.2c0.6-0.3,1.1-0.9,1.3-1.6l11.4-36.9C380.7,117.8,380.9,117.7,381.2,117.4z"/>
		<path class="st17" d="M334.6,173.3l33.1-16.6l-32.3-11.6c-0.5-0.2-1-0.2-1.5,0l-31.8,13.5c-0.4,0.2-0.4,0.9,0,1.1l31.6,13.6
			C334,173.5,334.3,173.5,334.6,173.3z"/>
		<path class="st18" d="M335.7,172l30-15l-20.3-6.4c-0.5-0.2-0.9-0.1-1.4,0l-28.8,12.2c-0.4,0.2-0.4,0.8,0,1l19.6,8.2
			C335.1,172.1,335.4,172.1,335.7,172z"/>
		<path class="st18" d="M325.2,157.2l9.4-3.8c0.2-0.1,0.2-0.3,0-0.4l-6.3-2.5c-0.2,0-0.3,0-0.5,0l-9.1,3.8c0,0.1,0,0.2,0,0.3
			l6.1,2.6C325,157.2,325.1,157.2,325.2,157.2z"/>
		<path class="st17" d="M335.1,174.1l33.5-17.2c0.6-0.3,1.1-0.9,1.3-1.6l11.4-37.1c0.2-0.6-0.3-1.2-0.8-1L347.2,130
			c-0.7,0.3-1.3,0.9-1.5,1.8l-11.4,41.5C334,173.8,334.6,174.4,335.1,174.1z"/>
		<path class="st18" d="M380.5,117.1l-0.7,0.3v0.1c0,0-5,12.2-9.8,22.7c-3.9,8.6-10.1,15.5-17.7,19.7l-17.1,9.5l-1,3.6
			c-0.2,0.6,0.4,1.2,0.9,0.9l33.5-17.2c0.6-0.3,1.1-0.9,1.3-1.6l11.4-37.1C381.5,117.5,381,116.9,380.5,117.1z"/>
	</g>
	<path class="st9" d="M299.4,134.8c0,0,10.1,7.9,11.9,8.4s6.2,0.8,7.8,0.9c1.6,0.1,6.5,6.1,7.3,9.1s0.8,6.3,0,7.4
		c-0.8,1.1-5.4,0.6-8.9-1s-4.9-6.3-6.1-6.9s-17.9-9.8-17.9-9.8L299.4,134.8z"/>
	<path d="M283,116.7l0.5-3.6c-6.4,3.7-16.7-6.8-21.9,2.2c0,0-0.5,2.3,0,4.7c0.6,2.8,1.9,5.8,3.7,7.9c1.3,1.5,3.6,2.8,4.4,3.3
		c7.3,7,19.4,13.8,35.4,20.3c2.7,1.3,7.2-9.9,6.4-11L283,116.7z"/>
	<path class="st9" d="M319,144.6c1,0.3,2.2,0.5,3.2,0.6c0.5,0.1,1.1,0.1,1.5,0.1s1-0.2,0.9,0c0.7-0.6,1.6-0.4,2.1,0.3
		c0.5,0.8,0.4,1.8-0.3,2.4c-1.1,0.8-1.8,0.8-2.5,0.9c-0.7,0.1-1.3,0.1-1.9,0.1c-1.2,0-2.4-0.1-3.6-0.3c-1-0.1-1.7-1.2-1.6-2.3
		s1-2,2-1.8C318.9,144.6,319,144.6,319,144.6z"/>
</g>
</svg>
